<?xml version="1.0" encoding="UTF-8" standalone="no"?>
<!DOCTYPE svg PUBLIC "-//W3C//DTD SVG 1.1//EN" "http://www.w3.org/Graphics/SVG/1.1/DTD/svg11.dtd">
<svg width="100%" height="100%" viewBox="0 0 129 60" version="1.1" xmlns="http://www.w3.org/2000/svg" xmlns:xlink="http://www.w3.org/1999/xlink" xml:space="preserve" xmlns:serif="http://www.serif.com/" style="fill-rule:evenodd;clip-rule:evenodd;stroke-linejoin:round;stroke-miterlimit:2;">
    <g transform="matrix(0.382928,0,0,0.382928,-16.521,-43.9711)">
        <g id="Vrstva-1" serif:id="Vrstva 1">
            <g transform="matrix(1,0,0,1,0,-33.1826)">
                <path d="M267.473,168.53L263.027,168.53L267.473,168.53ZM146.927,148.011L160.932,148.011L146.927,148.011ZM263.027,148.011L267.473,148.011L263.027,148.011ZM341.605,216.096C356.994,216.096 365.621,225.422 365.621,241.977L365.621,283.014L379.69,283.014L379.69,303.533L341.605,303.533L341.605,251.537C341.605,238.247 340.206,236.614 329.48,236.614L300.334,236.614L300.334,303.533L263.027,303.533L263.027,283.014L275.852,283.014L275.852,168.53L255.116,168.53L255.116,267.159C255.116,280.683 253.017,287.911 246.955,294.44C240.892,300.969 232.032,304.699 222.472,304.699L191.461,304.699C181.202,304.699 172.575,301.202 166.745,294.906C161.849,289.31 159.517,281.616 159.517,270.424L159.517,168.53L147.408,168.53L118.496,303.533L80.49,303.533L56.201,188.893L43.144,188.893L43.144,168.375L76.72,168.375L100.076,282.082L127.356,148.011L184.933,148.011L184.933,266.693C184.933,281.149 187.73,284.18 200.788,284.18L213.145,284.18C219.674,284.18 222.472,283.481 225.27,281.149C228.534,278.584 229.234,276.486 229.234,268.092L229.234,148.011L300.334,148.011L300.334,217.728L328.663,168.319L359.441,168.319L359.441,188.838L343.586,188.838L326.216,216.096L341.605,216.096Z" style="fill:#a04f89;"/>
            </g>
            <g transform="matrix(1,0,0,1,0,-57.7011)">
                <path d="M216.514,294.001L197.668,294.001C196.504,294.001 195.627,294.224 195.045,294.678C194.463,295.123 194.169,295.791 194.169,296.674C194.169,297.558 194.463,298.226 195.045,298.671C195.627,299.125 196.504,299.348 197.668,299.348L216.514,299.348C217.678,299.348 218.555,299.125 219.152,298.671C219.742,298.226 220.037,297.558 220.037,296.674C220.037,295.791 219.742,295.123 219.152,294.678C218.555,294.224 217.678,294.001 216.514,294.001ZM197.994,304.647C195.34,304.647 193.253,303.923 191.746,302.482C190.24,301.035 189.483,299.038 189.483,296.484C189.483,294.081 190.256,292.171 191.802,290.763C193.348,289.355 195.46,288.655 198.137,288.655L215.439,288.655C218.395,288.655 220.666,289.347 222.268,290.739C223.87,292.131 224.675,294.112 224.675,296.674C224.675,299.268 223.878,301.249 222.284,302.61C220.69,303.97 218.363,304.647 215.295,304.647L197.994,304.647ZM204.258,272.799L204.258,270.699C204.258,269.752 203.851,269.012 203.046,268.487C202.233,267.954 201.094,267.691 199.636,267.691C198.026,267.691 196.87,267.962 196.153,268.495C195.436,269.036 195.077,269.911 195.077,271.121L195.077,272.799L204.258,272.799ZM219.08,272.799L219.08,270.564C219.08,269.434 218.69,268.614 217.917,268.089C217.136,267.572 215.917,267.31 214.251,267.31C212.41,267.31 211.103,267.604 210.314,268.185C209.525,268.774 209.135,269.752 209.135,271.121L209.135,272.799L219.08,272.799ZM223.958,277.955L190.2,277.955L190.2,271.073C190.2,268.304 190.965,266.164 192.503,264.652C194.033,263.148 196.201,262.393 199.006,262.393C200.688,262.393 202.162,262.687 203.429,263.276C204.696,263.864 205.788,264.779 206.704,266.005C207.501,264.628 208.561,263.61 209.892,262.95C211.223,262.289 212.905,261.963 214.921,261.963C218.005,261.963 220.284,262.639 221.75,263.992C223.225,265.344 223.958,267.437 223.958,270.277L223.958,277.955ZM223.958,254.701L218.746,254.701C218.746,254.621 218.762,254.494 218.793,254.303C218.826,253.977 218.842,253.762 218.842,253.651C218.842,252.783 218.602,252.115 218.116,251.638C217.638,251.168 216.937,250.93 216.02,250.93L190.2,250.93L190.2,245.726L215.016,245.726C218.053,245.726 220.3,246.227 221.766,247.222C223.225,248.217 223.958,249.736 223.958,251.789L223.958,254.701ZM223.958,234.732L190.2,234.732L190.2,221.175L195.077,221.175L195.077,229.529L203.923,229.529L203.923,223.506L208.8,223.506L208.8,229.529L218.889,229.529L218.889,221.175L223.958,221.175L223.958,234.732ZM223.958,211.176L190.2,211.176L190.2,205.972L204.441,205.972C203.883,205.813 203.429,205.678 203.078,205.566C202.728,205.447 202.449,205.344 202.25,205.248L190.2,200.101L190.2,194.953L201.731,200.729L223.958,194.277L223.958,199.679L206.983,204.063L210.817,205.972L223.958,205.972L223.958,211.176ZM195.077,188.574L190.2,188.574L190.2,172.582L195.077,172.582L195.077,177.976L223.958,177.976L223.958,183.18L195.077,183.18L195.077,188.574Z" style="fill:rgb(86,86,86);fill-rule:nonzero;"/>
            </g>
        </g>
    </g>
</svg>
