<?xml version="1.0" encoding="UTF-8" standalone="no"?>
<!DOCTYPE svg PUBLIC "-//W3C//DTD SVG 1.1//EN" "http://www.w3.org/Graphics/SVG/1.1/DTD/svg11.dtd">
<svg width="100%" height="100%" viewBox="0 0 125 150" version="1.1" xmlns="http://www.w3.org/2000/svg" xmlns:xlink="http://www.w3.org/1999/xlink" xml:space="preserve" xmlns:serif="http://www.serif.com/" style="fill-rule:evenodd;clip-rule:evenodd;stroke-miterlimit:22.9256;">
    <g transform="matrix(-1.00929,2.22045e-16,2.22045e-16,1.00929,125,-1.39281)">
        <g>
            <clipPath id="_clip1">
                <rect x="0" y="1.38" width="121.25" height="148.62"/>
            </clipPath>
            <g clip-path="url(#_clip1)">
                <path d="M4.81,153.16L-3.66,149.34L-1.91,145.51C0.51,146.6 4.89,147.44 8.95,147.28L10.07,151.99C8.42,152.62 6.55,152.96 4.81,153.16Z" style="fill:rgb(238,235,221);"/>
            </g>
            <clipPath id="_clip2">
                <rect x="0" y="1.38" width="121.25" height="148.62"/>
            </clipPath>
            <g clip-path="url(#_clip2)">
                <path d="M4.81,153.16L-3.66,149.34L-1.91,145.51C0.51,146.6 4.89,147.44 8.95,147.28L10.07,151.99C8.42,152.62 6.55,152.96 4.81,153.16Z" style="fill:none;fill-rule:nonzero;stroke:rgb(178,178,179);stroke-width:0.5px;"/>
            </g>
            <clipPath id="_clip3">
                <rect x="0" y="1.38" width="121.25" height="148.62"/>
            </clipPath>
            <g clip-path="url(#_clip3)">
                <path d="M21.66,144.07L17.95,140.17C16.11,143.67 13.24,146.31 8.89,147.19L10.08,152.04C14.16,150.9 18.14,149.1 21.66,144.07Z" style="fill:rgb(238,235,221);"/>
            </g>
            <clipPath id="_clip4">
                <rect x="0" y="1.38" width="121.25" height="148.62"/>
            </clipPath>
            <g clip-path="url(#_clip4)">
                <path d="M21.66,144.07L17.95,140.17C16.11,143.67 13.24,146.31 8.89,147.19L10.08,152.04C14.16,150.9 18.14,149.1 21.66,144.07Z" style="fill:none;fill-rule:nonzero;stroke:rgb(178,178,179);stroke-width:0.5px;"/>
            </g>
            <clipPath id="_clip5">
                <rect x="0" y="1.38" width="121.25" height="148.62"/>
            </clipPath>
            <g clip-path="url(#_clip5)">
                <path d="M18.74,159.4L22.11,160.97L23.26,160C21.87,156.09 19.83,152.27 17.63,148.48L14.83,150.31C16.39,153.36 17.73,156.39 18.74,159.4Z" style="fill:rgb(238,235,221);"/>
            </g>
            <clipPath id="_clip6">
                <rect x="0" y="1.38" width="121.25" height="148.62"/>
            </clipPath>
            <g clip-path="url(#_clip6)">
                <path d="M18.74,159.4L22.11,160.97L23.26,160C21.87,156.09 19.83,152.27 17.63,148.48L14.83,150.31C16.39,153.36 17.73,156.39 18.74,159.4Z" style="fill:none;fill-rule:nonzero;stroke:rgb(178,178,179);stroke-width:0.5px;"/>
            </g>
            <clipPath id="_clip7">
                <rect x="0" y="1.38" width="121.25" height="148.62"/>
            </clipPath>
            <g clip-path="url(#_clip7)">
                <path d="M0.31,131.73C-2.36,128.94 -3.85,126 -4.64,122.99L-11.5,124.82C-10.54,129.16 -8.45,133.31 -4.8,137.32L0.31,131.73Z" style="fill:rgb(238,235,221);"/>
            </g>
            <clipPath id="_clip8">
                <rect x="0" y="1.38" width="121.25" height="148.62"/>
            </clipPath>
            <g clip-path="url(#_clip8)">
                <path d="M0.31,131.73C-2.36,128.94 -3.85,126 -4.64,122.99L-11.5,124.82C-10.54,129.16 -8.45,133.31 -4.8,137.32L0.31,131.73Z" style="fill:none;fill-rule:nonzero;stroke:rgb(178,178,179);stroke-width:0.5px;"/>
            </g>
            <clipPath id="_clip9">
                <rect x="0" y="1.38" width="121.25" height="148.62"/>
            </clipPath>
            <g clip-path="url(#_clip9)">
                <path d="M5.99,134.98C4.35,134.26 2.52,133.27 0.27,131.71L-4.8,137.31C-1.06,140.52 2.28,141.95 5.14,141.79L5.99,134.98Z" style="fill:rgb(238,235,221);"/>
            </g>
            <clipPath id="_clip10">
                <rect x="0" y="1.38" width="121.25" height="148.62"/>
            </clipPath>
            <g clip-path="url(#_clip10)">
                <path d="M5.99,134.98C4.35,134.26 2.52,133.27 0.27,131.71L-4.8,137.31C-1.06,140.52 2.28,141.95 5.14,141.79L5.99,134.98Z" style="fill:none;fill-rule:nonzero;stroke:rgb(178,178,179);stroke-width:0.5px;"/>
            </g>
            <clipPath id="_clip11">
                <rect x="0" y="1.38" width="121.25" height="148.62"/>
            </clipPath>
            <g clip-path="url(#_clip11)">
                <path d="M5.09,126.85C4.19,125.12 3.64,123.39 3,121.77L-4.41,123.75C-2.91,128.3 -0.4,132.17 3.79,133.85C2.21,131.72 2.9,128.67 5.09,126.85Z" style="fill:rgb(238,235,221);"/>
            </g>
            <clipPath id="_clip12">
                <rect x="0" y="1.38" width="121.25" height="148.62"/>
            </clipPath>
            <g clip-path="url(#_clip12)">
                <path d="M5.09,126.85C4.19,125.12 3.64,123.39 3,121.77L-4.41,123.75C-2.91,128.3 -0.4,132.17 3.79,133.85C2.21,131.72 2.9,128.67 5.09,126.85Z" style="fill:none;fill-rule:nonzero;stroke:rgb(178,178,179);stroke-width:0.5px;"/>
            </g>
            <clipPath id="_clip13">
                <rect x="0" y="1.38" width="121.25" height="148.62"/>
            </clipPath>
            <g clip-path="url(#_clip13)">
                <path d="M3.3,113.42C1,113.32 -1.41,113.08 -4.01,112.61C-4.81,116.72 -5.02,120.43 -4.44,123.71L2.99,121.8C2.74,119.02 2.86,116.26 3.3,113.42Z" style="fill:rgb(238,235,221);"/>
            </g>
            <clipPath id="_clip14">
                <rect x="0" y="1.38" width="121.25" height="148.62"/>
            </clipPath>
            <g clip-path="url(#_clip14)">
                <path d="M3.3,113.42C1,113.32 -1.41,113.08 -4.01,112.61C-4.81,116.72 -5.02,120.43 -4.44,123.71L2.99,121.8C2.74,119.02 2.86,116.26 3.3,113.42Z" style="fill:none;fill-rule:nonzero;stroke:rgb(178,178,179);stroke-width:0.5px;"/>
            </g>
            <path d="M11.95,125.72C11.32,123.66 10.78,121.61 10.4,119.58L2.86,120.1C2.66,121.3 3.38,123.53 5.1,126.75C6.96,125.16 9.29,125.01 11.95,125.72Z" style="fill:rgb(238,235,221);"/>
            <clipPath id="_clip15">
                <rect x="0" y="1.38" width="121.25" height="148.62"/>
            </clipPath>
            <g clip-path="url(#_clip15)">
                <path d="M11.95,125.72C11.32,123.66 10.78,121.61 10.4,119.58L2.86,120.1C2.66,121.3 3.38,123.53 5.1,126.75C6.96,125.16 9.29,125.01 11.95,125.72Z" style="fill:none;fill-rule:nonzero;stroke:rgb(178,178,179);stroke-width:0.5px;"/>
            </g>
            <path d="M10.42,119.55C10.61,116.86 10.89,114.37 11.37,111.81C8.77,112.73 6.09,113.23 3.28,113.44C3.02,115.6 2.86,117.81 2.9,120.1L10.42,119.55Z" style="fill:rgb(238,235,221);"/>
            <clipPath id="_clip16">
                <rect x="0" y="1.38" width="121.25" height="148.62"/>
            </clipPath>
            <g clip-path="url(#_clip16)">
                <path d="M10.42,119.55C10.61,116.86 10.89,114.37 11.37,111.81C8.77,112.73 6.09,113.23 3.28,113.44C3.02,115.6 2.86,117.81 2.9,120.1L10.42,119.55Z" style="fill:none;fill-rule:nonzero;stroke:rgb(178,178,179);stroke-width:0.5px;"/>
            </g>
            <path d="M18.87,119.15L12.04,111.53L11.36,111.87C10.99,113.68 10.79,115.47 10.61,117.24C10.47,118.58 10.49,119.89 10.81,121.11C11.21,122.62 11.39,124.19 11.93,125.7L18.87,119.15Z" style="fill:rgb(238,235,221);"/>
            <path d="M18.87,119.15L12.04,111.53L11.36,111.87C10.99,113.68 10.79,115.47 10.61,117.24C10.47,118.58 10.49,119.89 10.81,121.11C11.21,122.62 11.39,124.19 11.93,125.7L18.87,119.15Z" style="fill:none;fill-rule:nonzero;stroke:rgb(178,178,179);stroke-width:0.5px;"/>
            <path d="M23.91,114.52L18.92,119.08L12.02,111.56C14.29,110.64 16.55,109.42 18.8,107.99L22.78,113.28L23.91,114.52Z" style="fill:rgb(238,235,221);"/>
            <path d="M23.91,114.52L18.92,119.08L12.02,111.56C14.29,110.64 16.55,109.42 18.8,107.99L22.78,113.28L23.91,114.52Z" style="fill:none;fill-rule:nonzero;stroke:rgb(178,178,179);stroke-width:0.5px;"/>
            <path d="M19.28,118.73L23.93,114.45L19.26,118.77L24.42,123.32L29.3,119.45C35.56,116.52 38.2,112.52 36.27,107.05C34.1,114.86 28.69,117.78 23.97,114.46L19.28,118.73Z" style="fill:rgb(238,235,221);"/>
            <path d="M19.28,118.73L23.93,114.45L19.26,118.77L24.42,123.32L29.3,119.45C35.56,116.52 38.2,112.52 36.27,107.05C34.1,114.86 28.69,117.78 23.97,114.46L19.28,118.73Z" style="fill:none;fill-rule:nonzero;stroke:rgb(178,178,179);stroke-width:0.5px;"/>
            <path d="M17.85,130.31L24.5,123.36L19.25,118.81L11.93,125.79C14.2,126.23 16.24,127.51 17.85,130.31Z" style="fill:rgb(238,235,221);"/>
            <path d="M17.85,130.31L24.5,123.36L19.25,118.81L11.93,125.79C14.2,126.23 16.24,127.51 17.85,130.31Z" style="fill:none;fill-rule:nonzero;stroke:rgb(178,178,179);stroke-width:0.5px;"/>
            <path d="M18.78,107.94C23.03,105.05 25.95,101.12 27.59,97.56C32.24,104.33 29.44,110.75 22.73,113.28L18.78,107.94Z" style="fill:rgb(238,235,221);"/>
            <path d="M18.78,107.94C23.03,105.05 25.95,101.12 27.59,97.56C32.24,104.33 29.44,110.75 22.73,113.28L18.78,107.94Z" style="fill:none;fill-rule:nonzero;stroke:rgb(178,178,179);stroke-width:0.5px;"/>
            <path d="M22.99,94.43C19.69,93.04 16.36,92.3 12.99,92.37L16.78,101.77C18.77,100.4 20.84,97.91 22.99,94.43Z" style="fill:rgb(238,235,221);"/>
            <path d="M22.99,94.43C19.69,93.04 16.36,92.3 12.99,92.37L16.78,101.77C18.77,100.4 20.84,97.91 22.99,94.43Z" style="fill:none;fill-rule:nonzero;stroke:rgb(178,178,179);stroke-width:0.5px;"/>
            <path d="M16.75,101.83L12.96,92.36C10.5,92.67 8.17,93.27 5.87,94.06L10.31,105.64C12.22,105.11 14.37,103.84 16.75,101.83Z" style="fill:rgb(238,235,221);"/>
            <path d="M16.75,101.83L12.96,92.36C10.5,92.67 8.17,93.27 5.87,94.06L10.31,105.64C12.22,105.11 14.37,103.84 16.75,101.83Z" style="fill:none;fill-rule:nonzero;stroke:rgb(178,178,179);stroke-width:0.5px;"/>
            <clipPath id="_clip17">
                <rect x="0" y="1.38" width="121.25" height="148.62"/>
            </clipPath>
            <g clip-path="url(#_clip17)">
                <path d="M10.25,105.69C7.68,106.79 5.13,107.4 2.6,107.33L-1.14,97.73C0.73,96.34 3.12,95.06 5.9,94.07L10.25,105.69Z" style="fill:rgb(238,235,221);"/>
            </g>
            <clipPath id="_clip18">
                <rect x="0" y="1.38" width="121.25" height="148.62"/>
            </clipPath>
            <g clip-path="url(#_clip18)">
                <path d="M10.25,105.69C7.68,106.79 5.13,107.4 2.6,107.33L-1.14,97.73C0.73,96.34 3.12,95.06 5.9,94.07L10.25,105.69Z" style="fill:none;fill-rule:nonzero;stroke:rgb(178,178,179);stroke-width:0.5px;"/>
            </g>
            <clipPath id="_clip19">
                <rect x="0" y="1.38" width="121.25" height="148.62"/>
            </clipPath>
            <g clip-path="url(#_clip19)">
                <path d="M-8.19,105.69C-6.37,102.36 -4.1,99.63 -1.17,97.79L2.5,107.28C-0.12,107.54 -3.77,106.94 -8.19,105.69Z" style="fill:rgb(238,235,221);"/>
            </g>
            <clipPath id="_clip20">
                <rect x="0" y="1.38" width="121.25" height="148.62"/>
            </clipPath>
            <g clip-path="url(#_clip20)">
                <path d="M-8.19,105.69C-6.37,102.36 -4.1,99.63 -1.17,97.79L2.5,107.28C-0.12,107.54 -3.77,106.94 -8.19,105.69Z" style="fill:none;fill-rule:nonzero;stroke:rgb(178,178,179);stroke-width:0.5px;"/>
            </g>
            <path d="M55.99,116.39L52.91,122.81L51.17,122.06C50.85,117.67 50.35,113.87 49.62,110.83C51.89,112.95 53.49,114.35 55.99,116.39Z" style="fill:rgb(238,235,221);"/>
            <path d="M55.99,116.39L52.91,122.81L51.17,122.06C50.85,117.67 50.35,113.87 49.62,110.83C51.89,112.95 53.49,114.35 55.99,116.39Z" style="fill:none;fill-rule:nonzero;stroke:rgb(178,178,179);stroke-width:0.5px;"/>
            <path d="M38.55,125.31L35.53,130.74L24.54,123.27L28.99,119.63C31.71,121.04 34.12,121.34 36.34,120.89C36.75,122.01 37.43,123.4 38.55,125.31Z" style="fill:rgb(238,235,221);"/>
            <path d="M38.55,125.31L35.53,130.74L24.54,123.27L28.99,119.63C31.71,121.04 34.12,121.34 36.34,120.89C36.75,122.01 37.43,123.4 38.55,125.31Z" style="fill:none;fill-rule:nonzero;stroke:rgb(178,178,179);stroke-width:0.5px;"/>
            <path d="M42.9,130.33L39.05,138.3L33.44,135.81L35.51,130.74L38.56,125.25C38.93,125.85 39.63,126.61 40.56,127.46C41.25,128.02 42.04,129.11 42.9,130.33Z" style="fill:rgb(238,235,221);"/>
            <path d="M42.9,130.33L39.05,138.3L33.44,135.81L35.51,130.74L38.56,125.25C38.93,125.85 39.63,126.61 40.56,127.46C41.25,128.02 42.04,129.11 42.9,130.33Z" style="fill:none;fill-rule:nonzero;stroke:rgb(178,178,179);stroke-width:0.5px;"/>
            <clipPath id="_clip21">
                <rect x="0" y="1.38" width="121.25" height="148.62"/>
            </clipPath>
            <g clip-path="url(#_clip21)">
                <path d="M29.91,160.83C29.67,158.37 29.07,155.87 27.75,153.25L34.49,149.72C35.53,152.03 37.34,155.97 37.46,158.76L29.91,160.83Z" style="fill:rgb(238,235,221);"/>
            </g>
            <clipPath id="_clip22">
                <rect x="0" y="1.38" width="121.25" height="148.62"/>
            </clipPath>
            <g clip-path="url(#_clip22)">
                <path d="M29.91,160.83C29.67,158.37 29.07,155.87 27.75,153.25L34.49,149.72C35.53,152.03 37.34,155.97 37.46,158.76L29.91,160.83Z" style="fill:none;fill-rule:nonzero;stroke:rgb(178,178,179);stroke-width:0.5px;"/>
            </g>
            <clipPath id="_clip23">
                <rect x="0" y="1.38" width="121.25" height="148.62"/>
            </clipPath>
            <g clip-path="url(#_clip23)">
                <path d="M27.53,153.25L27.79,153.19C26.47,150.57 24.87,148.05 22.97,145.52L28.92,141.19C31.09,143.89 33.39,146.65 34.47,149.76L27.53,153.25Z" style="fill:rgb(238,235,221);"/>
            </g>
            <clipPath id="_clip24">
                <rect x="0" y="1.38" width="121.25" height="148.62"/>
            </clipPath>
            <g clip-path="url(#_clip24)">
                <path d="M27.53,153.25L27.79,153.19C26.47,150.57 24.87,148.05 22.97,145.52L28.92,141.19C31.09,143.89 33.39,146.65 34.47,149.76L27.53,153.25Z" style="fill:none;fill-rule:nonzero;stroke:rgb(178,178,179);stroke-width:0.5px;"/>
            </g>
            <path d="M23,145.47L17.96,140.23C18.79,138.55 19.23,135.65 19.07,133.89C22.11,134.74 26.39,137.63 28.94,141.23L23,145.47Z" style="fill:rgb(238,235,221);"/>
            <clipPath id="_clip25">
                <rect x="0" y="1.38" width="121.25" height="148.62"/>
            </clipPath>
            <g clip-path="url(#_clip25)">
                <path d="M23,145.47L17.96,140.23C18.79,138.55 19.23,135.65 19.07,133.89C22.11,134.74 26.39,137.63 28.94,141.23L23,145.47Z" style="fill:none;fill-rule:nonzero;stroke:rgb(178,178,179);stroke-width:0.5px;"/>
            </g>
            <path d="M30.02,127.12L23.51,136C22.02,134.99 20.53,134.27 19.03,133.81C18.73,132.65 18.31,131.44 17.77,130.18L24.59,123.22L30.02,127.12Z" style="fill:rgb(238,235,221);"/>
            <path d="M30.02,127.12L23.51,136C22.02,134.99 20.53,134.27 19.03,133.81C18.73,132.65 18.31,131.44 17.77,130.18L24.59,123.22L30.02,127.12Z" style="fill:none;fill-rule:nonzero;stroke:rgb(178,178,179);stroke-width:0.5px;"/>
            <path d="M35.47,130.72L30.07,127.04L23.5,136C25.83,137.64 28.58,140.43 29.85,142.31L30.96,140.8C32.12,139.2 33.7,135.45 35.47,130.72Z" style="fill:rgb(238,235,221);"/>
            <path d="M35.47,130.72L30.07,127.04L23.5,136C25.83,137.64 28.58,140.43 29.85,142.31L30.96,140.8C32.12,139.2 33.7,135.45 35.47,130.72Z" style="fill:none;fill-rule:nonzero;stroke:rgb(178,178,179);stroke-width:0.5px;"/>
            <path d="M39.11,138.25L33.46,135.85C32.75,137.7 31.97,139.44 30.92,140.81L29.87,142.23C32.44,145.43 33.63,147.24 34.27,149.26L39.11,138.25Z" style="fill:rgb(238,235,221);"/>
            <clipPath id="_clip26">
                <rect x="0" y="1.38" width="121.25" height="148.62"/>
            </clipPath>
            <g clip-path="url(#_clip26)">
                <path d="M39.11,138.25L33.46,135.85C32.75,137.7 31.97,139.44 30.92,140.81L29.87,142.23C32.44,145.43 33.63,147.24 34.27,149.26L39.11,138.25Z" style="fill:none;fill-rule:nonzero;stroke:rgb(178,178,179);stroke-width:0.5px;"/>
            </g>
            <path d="M47.78,134.12L44.3,132.4L42.93,130.44L37.54,141.83L43.15,144.37L47.78,134.12Z" style="fill:rgb(238,235,221);"/>
            <clipPath id="_clip27">
                <rect x="0" y="1.38" width="121.25" height="148.62"/>
            </clipPath>
            <g clip-path="url(#_clip27)">
                <path d="M47.78,134.12L44.3,132.4L42.93,130.44L37.54,141.83L43.15,144.37L47.78,134.12Z" style="fill:none;fill-rule:nonzero;stroke:rgb(178,178,179);stroke-width:0.5px;"/>
            </g>
            <clipPath id="_clip28">
                <rect x="0" y="1.38" width="121.25" height="148.62"/>
            </clipPath>
            <g clip-path="url(#_clip28)">
                <path d="M43.16,144.44L37.57,141.92L34.35,149.24C35.49,152.11 36.8,154.93 37.16,157.15L43.16,144.44Z" style="fill:rgb(238,235,221);"/>
            </g>
            <clipPath id="_clip29">
                <rect x="0" y="1.38" width="121.25" height="148.62"/>
            </clipPath>
            <g clip-path="url(#_clip29)">
                <path d="M43.16,144.44L37.57,141.92L34.35,149.24C35.49,152.11 36.8,154.93 37.16,157.15L43.16,144.44Z" style="fill:none;fill-rule:nonzero;stroke:rgb(178,178,179);stroke-width:0.5px;"/>
            </g>
            <path d="M52.33,122.54L51.19,122.03L47.45,121.6C47.86,124.93 46.61,128.46 44.17,132.24L47.86,134.1L52.99,122.8L52.33,122.54Z" style="fill:rgb(238,235,221);"/>
            <path d="M52.33,122.54L51.19,122.03L47.45,121.6C47.86,124.93 46.61,128.46 44.17,132.24L47.86,134.1L52.99,122.8L52.33,122.54Z" style="fill:none;fill-rule:nonzero;stroke:rgb(178,178,179);stroke-width:0.5px;"/>
            <clipPath id="_clip30">
                <rect x="0" y="1.38" width="121.25" height="148.62"/>
            </clipPath>
            <g clip-path="url(#_clip30)">
                <path d="M43.74,160.92L37.31,157.98L37.27,157.01L40.71,149.54L47.42,152.6L43.74,160.92Z" style="fill:rgb(238,235,221);"/>
            </g>
            <clipPath id="_clip31">
                <rect x="0" y="1.38" width="121.25" height="148.62"/>
            </clipPath>
            <g clip-path="url(#_clip31)">
                <path d="M43.74,160.92L37.31,157.98L37.27,157.01L40.71,149.54L47.42,152.6L43.74,160.92Z" style="fill:none;fill-rule:nonzero;stroke:rgb(178,178,179);stroke-width:0.5px;"/>
            </g>
            <clipPath id="_clip32">
                <rect x="0" y="1.38" width="121.25" height="148.62"/>
            </clipPath>
            <g clip-path="url(#_clip32)">
                <path d="M50.72,145.14L44.16,142.11L40.77,149.56L47.39,152.59L50.72,145.14Z" style="fill:rgb(238,235,221);"/>
            </g>
            <clipPath id="_clip33">
                <rect x="0" y="1.38" width="121.25" height="148.62"/>
            </clipPath>
            <g clip-path="url(#_clip33)">
                <path d="M50.72,145.14L44.16,142.11L40.77,149.56L47.39,152.59L50.72,145.14Z" style="fill:none;fill-rule:nonzero;stroke:rgb(178,178,179);stroke-width:0.5px;"/>
            </g>
            <path d="M54.34,137.17L47.79,134.22L44.2,142.1L50.77,145.09L54.34,137.17Z" style="fill:rgb(238,235,221);"/>
            <clipPath id="_clip34">
                <rect x="0" y="1.38" width="121.25" height="148.62"/>
            </clipPath>
            <g clip-path="url(#_clip34)">
                <path d="M54.34,137.17L47.79,134.22L44.2,142.1L50.77,145.09L54.34,137.17Z" style="fill:none;fill-rule:nonzero;stroke:rgb(178,178,179);stroke-width:0.5px;"/>
            </g>
            <path d="M51.98,125.17L47.8,134.19L54.35,137.24L58.43,128.11L51.98,125.17Z" style="fill:rgb(238,235,221);"/>
            <path d="M51.98,125.17L47.8,134.19L54.35,137.24L58.43,128.11L51.98,125.17Z" style="fill:none;fill-rule:nonzero;stroke:rgb(178,178,179);stroke-width:0.5px;"/>
            <path d="M62.26,119.69C60.16,119.1 58.06,118 55.96,116.4L51.96,125.12L58.41,128.07L62.26,119.69Z" style="fill:rgb(238,235,221);"/>
            <path d="M62.26,119.69C60.16,119.1 58.06,118 55.96,116.4L51.96,125.12L58.41,128.07L62.26,119.69Z" style="fill:none;fill-rule:nonzero;stroke:rgb(178,178,179);stroke-width:0.5px;"/>
            <clipPath id="_clip35">
                <rect x="0" y="1.38" width="121.25" height="148.62"/>
            </clipPath>
            <g clip-path="url(#_clip35)">
                <path d="M55.47,152.75L48.76,149.77L44.96,157.85L51.9,160.77L55.47,152.75Z" style="fill:rgb(238,235,221);"/>
            </g>
            <clipPath id="_clip36">
                <rect x="0" y="1.38" width="121.25" height="148.62"/>
            </clipPath>
            <g clip-path="url(#_clip36)">
                <path d="M55.47,152.75L48.76,149.77L44.96,157.85L51.9,160.77L55.47,152.75Z" style="fill:none;fill-rule:nonzero;stroke:rgb(178,178,179);stroke-width:0.5px;"/>
            </g>
            <clipPath id="_clip37">
                <rect x="0" y="1.38" width="121.25" height="148.62"/>
            </clipPath>
            <g clip-path="url(#_clip37)">
                <path d="M59.71,143.33L52.92,140.32L48.67,149.74L55.49,152.7L59.71,143.33Z" style="fill:rgb(238,235,221);"/>
            </g>
            <clipPath id="_clip38">
                <rect x="0" y="1.38" width="121.25" height="148.62"/>
            </clipPath>
            <g clip-path="url(#_clip38)">
                <path d="M59.71,143.33L52.92,140.32L48.67,149.74L55.49,152.7L59.71,143.33Z" style="fill:none;fill-rule:nonzero;stroke:rgb(178,178,179);stroke-width:0.5px;"/>
            </g>
            <path d="M63.72,134.56L56.86,131.46L52.96,140.34L59.74,143.4L63.72,134.56Z" style="fill:rgb(238,235,221);"/>
            <path d="M63.72,134.56L56.86,131.46L52.96,140.34L59.74,143.4L63.72,134.56Z" style="fill:none;fill-rule:nonzero;stroke:rgb(178,178,179);stroke-width:0.5px;"/>
            <path d="M66.82,127.8L59.82,124.94L56.97,131.46L63.68,134.54L66.82,127.8Z" style="fill:rgb(238,235,221);"/>
            <path d="M66.82,127.8L59.82,124.94L56.97,131.46L63.68,134.54L66.82,127.8Z" style="fill:none;fill-rule:nonzero;stroke:rgb(178,178,179);stroke-width:0.5px;"/>
            <path d="M71.66,116.95L69.67,121.23L68.22,120.07C68.01,118.77 67.49,117.4 66.58,115.96L71.66,116.95Z" style="fill:rgb(238,235,221);"/>
            <path d="M71.66,116.95L69.67,121.23L68.22,120.07C68.01,118.77 67.49,117.4 66.58,115.96L71.66,116.95Z" style="fill:none;fill-rule:nonzero;stroke:rgb(178,178,179);stroke-width:0.5px;"/>
            <path d="M80.37,115.68C75.88,117.06 73.34,117.46 71.55,116.89L68.66,123.68L75.41,126.67L80.37,115.68Z" style="fill:rgb(238,235,221);"/>
            <path d="M80.37,115.68C75.88,117.06 73.34,117.46 71.55,116.89L68.66,123.68L75.41,126.67L80.37,115.68Z" style="fill:none;fill-rule:nonzero;stroke:rgb(178,178,179);stroke-width:0.5px;"/>
            <path d="M75.36,126.7L68.58,123.6L65.14,131.46L71.95,134.38L75.36,126.7Z" style="fill:rgb(238,235,221);"/>
            <path d="M75.36,126.7L68.58,123.6L65.14,131.46L71.95,134.38L75.36,126.7Z" style="fill:none;fill-rule:nonzero;stroke:rgb(178,178,179);stroke-width:0.5px;"/>
            <path d="M67.49,144.37L60.54,141.53L65.05,131.42L72.03,134.42L67.49,144.37Z" style="fill:rgb(238,235,221);"/>
            <clipPath id="_clip39">
                <rect x="0" y="1.38" width="121.25" height="148.62"/>
            </clipPath>
            <g clip-path="url(#_clip39)">
                <path d="M67.49,144.37L60.54,141.53L65.05,131.42L72.03,134.42L67.49,144.37Z" style="fill:none;fill-rule:nonzero;stroke:rgb(178,178,179);stroke-width:0.5px;"/>
            </g>
            <clipPath id="_clip40">
                <rect x="0" y="1.38" width="121.25" height="148.62"/>
            </clipPath>
            <g clip-path="url(#_clip40)">
                <path d="M67.5,144.47L63.54,153.14L56.62,150.22L60.53,141.57L67.5,144.47Z" style="fill:rgb(238,235,221);"/>
            </g>
            <clipPath id="_clip41">
                <rect x="0" y="1.38" width="121.25" height="148.62"/>
            </clipPath>
            <g clip-path="url(#_clip41)">
                <path d="M67.5,144.47L63.54,153.14L56.62,150.22L60.53,141.57L67.5,144.47Z" style="fill:none;fill-rule:nonzero;stroke:rgb(178,178,179);stroke-width:0.5px;"/>
            </g>
            <clipPath id="_clip42">
                <rect x="0" y="1.38" width="121.25" height="148.62"/>
            </clipPath>
            <g clip-path="url(#_clip42)">
                <path d="M63.49,153.12L56.67,150.24L52.65,159.14L59.47,162.16L63.49,153.12Z" style="fill:none;fill-rule:nonzero;stroke:rgb(178,178,179);stroke-width:0.5px;"/>
            </g>
            <path d="M101.03,62.9L90.29,58.02L89.6,63.62C94.4,62.77 98.18,62.54 101.03,62.9Z" style="fill:rgb(238,235,221);"/>
            <path d="M101.03,62.9L90.29,58.02L89.6,63.62C94.4,62.77 98.18,62.54 101.03,62.9Z" style="fill:none;fill-rule:nonzero;stroke:rgb(178,178,179);stroke-width:0.5px;"/>
            <path d="M90.25,58.04L83.37,54.87L80.92,59.65L83.45,64.89L89.57,63.61L90.25,58.04Z" style="fill:rgb(238,235,221);"/>
            <path d="M90.25,58.04L83.37,54.87L80.92,59.65L83.45,64.89L89.57,63.61L90.25,58.04Z" style="fill:none;fill-rule:nonzero;stroke:rgb(178,178,179);stroke-width:0.5px;"/>
            <path d="M83.35,54.86L71.87,49.72L68.56,57.22L75.71,59.85L80.94,59.62L83.35,54.86Z" style="fill:rgb(238,235,221);"/>
            <path d="M83.35,54.86L71.87,49.72L68.56,57.22L75.71,59.85L80.94,59.62L83.35,54.86Z" style="fill:none;fill-rule:nonzero;stroke:rgb(178,178,179);stroke-width:0.5px;"/>
            <path d="M83.37,64.92L80.89,59.57L75.62,59.82L73.12,65.95C72.97,67.29 72.44,68.56 71.65,69.78C75.62,67.94 79.53,66.29 83.37,64.92Z" style="fill:rgb(238,235,221);"/>
            <path d="M83.37,64.92L80.89,59.57L75.62,59.82L73.12,65.95C72.97,67.29 72.44,68.56 71.65,69.78C75.62,67.94 79.53,66.29 83.37,64.92Z" style="fill:none;fill-rule:nonzero;stroke:rgb(178,178,179);stroke-width:0.5px;"/>
            <path d="M73.12,65.95L75.58,59.84L68.54,57.19L64.69,66.39C68.11,65.88 70.89,65.75 73.12,65.95Z" style="fill:rgb(238,235,221);"/>
            <path d="M73.12,65.95L75.58,59.84L68.54,57.19L64.69,66.39C68.11,65.88 70.89,65.75 73.12,65.95Z" style="fill:none;fill-rule:nonzero;stroke:rgb(178,178,179);stroke-width:0.5px;"/>
            <path d="M66.62,127.65L69.64,121.34L68.13,119.94C66.42,120.57 64.44,120.48 62.19,119.67L59.92,124.89L66.62,127.65Z" style="fill:rgb(238,235,221);"/>
            <path d="M66.62,127.65L69.64,121.34L68.13,119.94C66.42,120.57 64.44,120.48 62.19,119.67L59.92,124.89L66.62,127.65Z" style="fill:none;fill-rule:nonzero;stroke:rgb(178,178,179);stroke-width:0.5px;"/>
            <path d="M71.85,49.58L64.32,46.36L61.6,52L69.17,55.73L71.85,49.58Z" style="fill:rgb(238,235,221);"/>
            <path d="M71.85,49.58L64.32,46.36L61.6,52L69.17,55.73L71.85,49.58Z" style="fill:none;fill-rule:nonzero;stroke:rgb(178,178,179);stroke-width:0.5px;"/>
            <path d="M61.57,51.97L64.34,46.29L55.04,42.06C55.89,44.84 56.21,46.87 56.13,49.68L61.57,51.97Z" style="fill:rgb(238,235,221);"/>
            <path d="M61.57,51.97L64.34,46.29L55.04,42.06C55.89,44.84 56.21,46.87 56.13,49.68L61.57,51.97Z" style="fill:none;fill-rule:nonzero;stroke:rgb(178,178,179);stroke-width:0.5px;"/>
            <path d="M56.18,49.71L55.36,56.23C58.17,55.4 60.97,54.54 63.72,53.04C61.42,51.93 58.87,50.82 56.18,49.71Z" style="fill:rgb(238,235,221);"/>
            <path d="M56.18,49.71L55.36,56.23C58.17,55.4 60.97,54.54 63.72,53.04C61.42,51.93 58.87,50.82 56.18,49.71Z" style="fill:none;fill-rule:nonzero;stroke:rgb(178,178,179);stroke-width:0.5px;"/>
            <path d="M64.69,66.34L66.6,61.72L59.47,59.36C59.07,63.18 54.24,68.38 47.92,73.56C52.98,70.62 58.95,67.77 64.69,66.34Z" style="fill:rgb(238,235,221);"/>
            <path d="M64.69,66.34L66.6,61.72L59.47,59.36C59.07,63.18 54.24,68.38 47.92,73.56C52.98,70.62 58.95,67.77 64.69,66.34Z" style="fill:none;fill-rule:nonzero;stroke:rgb(178,178,179);stroke-width:0.5px;"/>
            <path d="M69.24,55.74L66.59,61.78L59.53,59.35C59.72,57.79 59.43,56.45 58.81,55.25C60.54,54.57 62.2,53.85 63.7,53.07L69.24,55.74Z" style="fill:rgb(238,235,221);"/>
            <path d="M69.24,55.74L66.59,61.78L59.53,59.35C59.72,57.79 59.43,56.45 58.81,55.25C60.54,54.57 62.2,53.85 63.7,53.07L69.24,55.74Z" style="fill:none;fill-rule:nonzero;stroke:rgb(178,178,179);stroke-width:0.5px;"/>
            <path d="M52.16,40.72L44.06,37.15L39.2,43.24L45.34,46C47.38,44.09 50.09,41.83 52.16,40.72Z" style="fill:rgb(238,235,221);"/>
            <path d="M52.16,40.72L44.06,37.15L39.2,43.24L45.34,46C47.38,44.09 50.09,41.83 52.16,40.72Z" style="fill:none;fill-rule:nonzero;stroke:rgb(178,178,179);stroke-width:0.5px;"/>
            <path d="M39.22,43.16L45.35,46L41.3,49.92C39.74,46.6 39.1,44.31 39.22,43.16Z" style="fill:rgb(238,235,221);"/>
            <path d="M39.22,43.16L45.35,46L41.3,49.92C39.74,46.6 39.1,44.31 39.22,43.16Z" style="fill:none;fill-rule:nonzero;stroke:rgb(178,178,179);stroke-width:0.5px;"/>
            <path d="M44.04,37.07L39.13,43.19L31.37,39.65L34.25,32.66L44.04,37.07Z" style="fill:rgb(238,235,221);"/>
            <path d="M44.04,37.07L39.13,43.19L31.37,39.65L34.25,32.66L44.04,37.07Z" style="fill:none;fill-rule:nonzero;stroke:rgb(178,178,179);stroke-width:0.5px;"/>
            <path d="M24.24,28.14L21.18,35.15L31.29,39.62L34.15,32.7L24.24,28.14Z" style="fill:rgb(238,235,221);"/>
            <path d="M24.24,28.14L21.18,35.15L31.29,39.62L34.15,32.7L24.24,28.14Z" style="fill:none;fill-rule:nonzero;stroke:rgb(178,178,179);stroke-width:0.5px;"/>
            <path d="M24.14,28.18L21.1,35.11L12.01,30.92L15.12,24.03L24.14,28.18Z" style="fill:rgb(238,235,221);"/>
            <path d="M24.14,28.18L21.1,35.11L12.01,30.92L15.12,24.03L24.14,28.18Z" style="fill:none;fill-rule:nonzero;stroke:rgb(178,178,179);stroke-width:0.5px;"/>
            <path d="M6.05,20.02L3,26.77L11.94,30.89L15.06,24.18L6.05,20.02Z" style="fill:rgb(238,235,221);"/>
            <clipPath id="_clip43">
                <rect x="0" y="1.38" width="121.25" height="148.62"/>
            </clipPath>
            <g clip-path="url(#_clip43)">
                <path d="M6.05,20.02L3,26.77L11.94,30.89L15.06,24.18L6.05,20.02Z" style="fill:none;fill-rule:nonzero;stroke:rgb(178,178,179);stroke-width:0.5px;"/>
            </g>
            <clipPath id="_clip44">
                <rect x="0" y="1.38" width="121.25" height="148.62"/>
            </clipPath>
            <g clip-path="url(#_clip44)">
                <path d="M-1.63,16.47L-4.85,23.41L3.08,26.8L6.05,20.02L-1.63,16.47Z" style="fill:rgb(238,235,221);"/>
            </g>
            <clipPath id="_clip45">
                <rect x="0" y="1.38" width="121.25" height="148.62"/>
            </clipPath>
            <g clip-path="url(#_clip45)">
                <path d="M-1.63,16.47L-4.85,23.41L3.08,26.8L6.05,20.02L-1.63,16.47Z" style="fill:none;fill-rule:nonzero;stroke:rgb(178,178,179);stroke-width:0.5px;"/>
            </g>
            <path d="M33.02,40.39L22.23,35.52L19.2,42.35L29.93,47.13L33.02,40.39Z" style="fill:rgb(238,235,221);"/>
            <path d="M33.02,40.39L22.23,35.52L19.2,42.35L29.93,47.13L33.02,40.39Z" style="fill:none;fill-rule:nonzero;stroke:rgb(178,178,179);stroke-width:0.5px;"/>
            <path d="M12.78,31.37L9.87,38.2L19.22,42.3L22.12,35.52L12.78,31.37Z" style="fill:rgb(238,235,221);"/>
            <path d="M12.78,31.37L9.87,38.2L19.22,42.3L22.12,35.52L12.78,31.37Z" style="fill:none;fill-rule:nonzero;stroke:rgb(178,178,179);stroke-width:0.5px;"/>
            <clipPath id="_clip46">
                <rect x="0" y="1.38" width="121.25" height="148.62"/>
            </clipPath>
            <g clip-path="url(#_clip46)">
                <path d="M1.94,26.37L-0.88,33.23L9.91,38.1L12.78,31.26L1.94,26.37Z" style="fill:rgb(238,235,221);"/>
            </g>
            <clipPath id="_clip47">
                <rect x="0" y="1.38" width="121.25" height="148.62"/>
            </clipPath>
            <g clip-path="url(#_clip47)">
                <path d="M1.94,26.37L-0.88,33.23L9.91,38.1L12.78,31.26L1.94,26.37Z" style="fill:none;fill-rule:nonzero;stroke:rgb(178,178,179);stroke-width:0.5px;"/>
            </g>
            <clipPath id="_clip48">
                <rect x="0" y="1.38" width="121.25" height="148.62"/>
            </clipPath>
            <g clip-path="url(#_clip48)">
                <path d="M-5.42,23.16L-8.29,29.89L-1.06,33.26L1.98,26.27L-5.42,23.16Z" style="fill:rgb(238,235,221);"/>
            </g>
            <clipPath id="_clip49">
                <rect x="0" y="1.38" width="121.25" height="148.62"/>
            </clipPath>
            <g clip-path="url(#_clip49)">
                <path d="M-5.42,23.16L-8.29,29.89L-1.06,33.26L1.98,26.27L-5.42,23.16Z" style="fill:none;fill-rule:nonzero;stroke:rgb(178,178,179);stroke-width:0.5px;"/>
            </g>
            <clipPath id="_clip50">
                <rect x="0" y="1.38" width="121.25" height="148.62"/>
            </clipPath>
            <g clip-path="url(#_clip50)">
                <path d="M-0.08,33.65L-3.27,40.72L-10.5,37.46L-7.44,30.33L-0.08,33.65Z" style="fill:none;fill-rule:nonzero;stroke:rgb(178,178,179);stroke-width:0.5px;"/>
            </g>
            <clipPath id="_clip51">
                <rect x="0" y="1.38" width="121.25" height="148.62"/>
            </clipPath>
            <g clip-path="url(#_clip51)">
                <path d="M9.9,38.06L6.58,45.23L-3.27,40.72L-0.07,33.62L9.9,38.06Z" style="fill:rgb(238,235,221);"/>
            </g>
            <clipPath id="_clip52">
                <rect x="0" y="1.38" width="121.25" height="148.62"/>
            </clipPath>
            <g clip-path="url(#_clip52)">
                <path d="M9.9,38.06L6.58,45.23L-3.27,40.72L-0.07,33.62L9.9,38.06Z" style="fill:none;fill-rule:nonzero;stroke:rgb(178,178,179);stroke-width:0.5px;"/>
            </g>
            <path d="M20.17,42.78L17.07,49.92L6.62,45.21L9.82,38.18L20.17,42.78Z" style="fill:rgb(238,235,221);"/>
            <path d="M20.17,42.78L17.07,49.92L6.62,45.21L9.82,38.18L20.17,42.78Z" style="fill:none;fill-rule:nonzero;stroke:rgb(178,178,179);stroke-width:0.5px;"/>
            <path d="M29.49,46.96L26.34,54.14L17.07,49.92L20.17,42.78L29.49,46.96Z" style="fill:rgb(238,235,221);"/>
            <path d="M29.49,46.96L26.34,54.14L17.07,49.92L20.17,42.78L29.49,46.96Z" style="fill:none;fill-rule:nonzero;stroke:rgb(178,178,179);stroke-width:0.5px;"/>
            <path d="M36.4,50.07L29.6,46.97L26.35,54.11L33.41,57.29C33.69,54.45 34.68,52.04 36.4,50.07Z" style="fill:rgb(238,235,221);"/>
            <path d="M36.4,50.07L29.6,46.97L26.35,54.11L33.41,57.29C33.69,54.45 34.68,52.04 36.4,50.07Z" style="fill:none;fill-rule:nonzero;stroke:rgb(178,178,179);stroke-width:0.5px;"/>
            <clipPath id="_clip53">
                <rect x="0" y="1.38" width="121.25" height="148.62"/>
            </clipPath>
            <g clip-path="url(#_clip53)">
                <path d="M1.71,42.96L-0.66,48.06L-5.95,45.95C-6.72,42.93 -8.52,40.15 -10.49,37.52L1.71,42.96Z" style="fill:rgb(238,235,221);"/>
            </g>
            <clipPath id="_clip54">
                <rect x="0" y="1.38" width="121.25" height="148.62"/>
            </clipPath>
            <g clip-path="url(#_clip54)">
                <path d="M1.71,42.96L-0.66,48.06L-5.95,45.95C-6.72,42.93 -8.52,40.15 -10.49,37.52L1.71,42.96Z" style="fill:none;fill-rule:nonzero;stroke:rgb(178,178,179);stroke-width:0.5px;"/>
            </g>
            <clipPath id="_clip55">
                <rect x="0" y="1.38" width="121.25" height="148.62"/>
            </clipPath>
            <g clip-path="url(#_clip55)">
                <path d="M9.83,46.7L7.82,51.07L7.6,51.65L-0.63,48.01L1.7,42.99L9.83,46.7Z" style="fill:rgb(238,235,221);"/>
            </g>
            <clipPath id="_clip56">
                <rect x="0" y="1.38" width="121.25" height="148.62"/>
            </clipPath>
            <g clip-path="url(#_clip56)">
                <path d="M9.83,46.7L7.82,51.07L7.6,51.65L-0.63,48.01L1.7,42.99L9.83,46.7Z" style="fill:none;fill-rule:nonzero;stroke:rgb(178,178,179);stroke-width:0.5px;"/>
            </g>
            <path d="M19.04,50.82L17.23,54.56C15.58,54.19 14.93,54.3 13.65,54.5L7.53,51.66L9.87,46.65L19.04,50.82Z" style="fill:rgb(238,235,221);"/>
            <path d="M19.04,50.82L17.23,54.56C15.58,54.19 14.93,54.3 13.65,54.5L7.53,51.66L9.87,46.65L19.04,50.82Z" style="fill:none;fill-rule:nonzero;stroke:rgb(178,178,179);stroke-width:0.5px;"/>
            <path d="M26.31,54.1L24.46,58.31L23.78,61.23C21.84,58.33 19.13,55.45 17.23,54.61L19.05,50.74L26.31,54.1Z" style="fill:rgb(238,235,221);"/>
            <path d="M26.31,54.1L24.46,58.31L23.78,61.23C21.84,58.33 19.13,55.45 17.23,54.61L19.05,50.74L26.31,54.1Z" style="fill:none;fill-rule:nonzero;stroke:rgb(178,178,179);stroke-width:0.5px;"/>
            <path d="M33.26,67.39C32.89,64.39 32.79,60.98 33.43,57.35L26.33,54.11L24.68,57.83C27.84,59.36 31.56,63.5 33.26,67.39Z" style="fill:rgb(238,235,221);"/>
            <path d="M33.26,67.39C32.89,64.39 32.79,60.98 33.43,57.35L26.33,54.11L24.68,57.83C27.84,59.36 31.56,63.5 33.26,67.39Z" style="fill:none;fill-rule:nonzero;stroke:rgb(178,178,179);stroke-width:0.5px;"/>
            <path d="M40.24,47.38C38.91,48.04 37.61,48.89 36.36,50.04L30.06,47.2L33.06,40.42L39.13,43.16C39.2,44.42 39.56,45.83 40.24,47.38Z" style="fill:rgb(238,235,221);"/>
            <path d="M40.24,47.38C38.91,48.04 37.61,48.89 36.36,50.04L30.06,47.2L33.06,40.42L39.13,43.16C39.2,44.42 39.56,45.83 40.24,47.38Z" style="fill:none;fill-rule:nonzero;stroke:rgb(178,178,179);stroke-width:0.5px;"/>
            <path d="M10.85,87.53L9.81,81.48C19.1,77.84 23.52,81.52 24.15,89.07C19,87.67 14.31,86.84 10.85,87.53Z" style="fill:rgb(238,235,221);"/>
            <path d="M10.85,87.53L9.81,81.48C19.1,77.84 23.52,81.52 24.15,89.07C19,87.67 14.31,86.84 10.85,87.53Z" style="fill:none;fill-rule:nonzero;stroke:rgb(178,178,179);stroke-width:0.5px;"/>
            <path d="M9.78,81.46L4.66,82.26C4.79,84.25 4.99,86.28 5.26,88.35C7.13,87.8 9.06,87.54 10.85,87.39L9.78,81.46Z" style="fill:rgb(238,235,221);"/>
            <clipPath id="_clip57">
                <rect x="0" y="1.38" width="121.25" height="148.62"/>
            </clipPath>
            <g clip-path="url(#_clip57)">
                <path d="M9.78,81.46L4.66,82.26C4.79,84.25 4.99,86.28 5.26,88.35C7.13,87.8 9.06,87.54 10.85,87.39L9.78,81.46Z" style="fill:none;fill-rule:nonzero;stroke:rgb(178,178,179);stroke-width:0.5px;"/>
            </g>
            <path d="M11.3,72.44L5.6,73.32C4.93,76.83 4.63,80.15 4.69,82.3C6.61,82 8.28,81.66 9.91,81.41C10.39,76.12 13.95,73.28 19.65,73.92C21.38,74.54 23.45,75.83 25.53,77.52C22.11,71.9 17.94,70.22 11.3,72.44Z" style="fill:rgb(238,235,221);"/>
            <clipPath id="_clip58">
                <rect x="0" y="1.38" width="121.25" height="148.62"/>
            </clipPath>
            <g clip-path="url(#_clip58)">
                <path d="M11.3,72.44L5.6,73.32C4.93,76.83 4.63,80.15 4.69,82.3C6.61,82 8.28,81.66 9.91,81.41C10.39,76.12 13.95,73.28 19.65,73.92C21.38,74.54 23.45,75.83 25.53,77.52C22.11,71.9 17.94,70.22 11.3,72.44Z" style="fill:none;fill-rule:nonzero;stroke:rgb(178,178,179);stroke-width:0.5px;"/>
            </g>
            <path d="M15.97,66.4L13.88,61.79L13.83,60.84L9.25,58.76C7.53,64.63 6.47,69.36 5.64,73.25L11.25,72.45C11.71,69.62 12.56,67.24 15.97,66.4Z" style="fill:rgb(238,235,221);"/>
            <clipPath id="_clip59">
                <rect x="0" y="1.38" width="121.25" height="148.62"/>
            </clipPath>
            <g clip-path="url(#_clip59)">
                <path d="M15.97,66.4L13.88,61.79L13.83,60.84L9.25,58.76C7.53,64.63 6.47,69.36 5.64,73.25L11.25,72.45C11.71,69.62 12.56,67.24 15.97,66.4Z" style="fill:none;fill-rule:nonzero;stroke:rgb(178,178,179);stroke-width:0.5px;"/>
            </g>
            <path d="M13.92,60.85L3.68,56.2L5.96,50.92L13.6,54.5C14.08,56.59 14.29,58.7 13.92,60.85Z" style="fill:rgb(238,235,221);"/>
            <clipPath id="_clip60">
                <rect x="0" y="1.38" width="121.25" height="148.62"/>
            </clipPath>
            <g clip-path="url(#_clip60)">
                <path d="M13.92,60.85L3.68,56.2L5.96,50.92L13.6,54.5C14.08,56.59 14.29,58.7 13.92,60.85Z" style="fill:none;fill-rule:nonzero;stroke:rgb(178,178,179);stroke-width:0.5px;"/>
            </g>
            <path d="M3.7,56.21L0.32,66.14C2.42,67.03 4.5,67.96 6.57,68.93L9.22,58.8L3.7,56.21Z" style="fill:rgb(238,235,221);"/>
            <clipPath id="_clip61">
                <rect x="0" y="1.38" width="121.25" height="148.62"/>
            </clipPath>
            <g clip-path="url(#_clip61)">
                <path d="M3.7,56.21L0.32,66.14C2.42,67.03 4.5,67.96 6.57,68.93L9.22,58.8L3.7,56.21Z" style="fill:none;fill-rule:nonzero;stroke:rgb(178,178,179);stroke-width:0.5px;"/>
            </g>
            <clipPath id="_clip62">
                <rect x="0" y="1.38" width="121.25" height="148.62"/>
            </clipPath>
            <g clip-path="url(#_clip62)">
                <path d="M5.93,50.9C1.85,49.06 -2.06,47.45 -5.85,46C-5.26,48.29 -4.77,50.58 -4.45,52.84L3.57,56.42L5.93,50.9Z" style="fill:rgb(238,235,221);"/>
            </g>
            <clipPath id="_clip63">
                <rect x="0" y="1.38" width="121.25" height="148.62"/>
            </clipPath>
            <g clip-path="url(#_clip63)">
                <path d="M5.93,50.9C1.85,49.06 -2.06,47.45 -5.85,46C-5.26,48.29 -4.77,50.58 -4.45,52.84L3.57,56.42L5.93,50.9Z" style="fill:none;fill-rule:nonzero;stroke:rgb(178,178,179);stroke-width:0.5px;"/>
            </g>
            <clipPath id="_clip64">
                <rect x="0" y="1.38" width="121.25" height="148.62"/>
            </clipPath>
            <g clip-path="url(#_clip64)">
                <path d="M0.32,66.14L-4.4,65.04C-3.99,61.68 -4.08,57.47 -4.4,52.87L3.55,56.53L0.32,66.14Z" style="fill:rgb(238,235,221);"/>
            </g>
            <clipPath id="_clip65">
                <rect x="0" y="1.38" width="121.25" height="148.62"/>
            </clipPath>
            <g clip-path="url(#_clip65)">
                <path d="M0.32,66.14L-4.4,65.04C-3.99,61.68 -4.08,57.47 -4.4,52.87L3.55,56.53L0.32,66.14Z" style="fill:none;fill-rule:nonzero;stroke:rgb(178,178,179);stroke-width:0.5px;"/>
            </g>
            <clipPath id="_clip66">
                <rect x="0" y="1.38" width="121.25" height="148.62"/>
            </clipPath>
            <g clip-path="url(#_clip66)">
                <path d="M-4.35,65.09L-5.26,69.31C-4.83,70.21 -4.55,71.05 -4.35,71.85L5.3,74.86L6.53,68.87C2.38,66.84 -1.35,65.42 -4.35,65.09Z" style="fill:rgb(238,235,221);"/>
            </g>
            <clipPath id="_clip67">
                <rect x="0" y="1.38" width="121.25" height="148.62"/>
            </clipPath>
            <g clip-path="url(#_clip67)">
                <path d="M-4.35,65.09L-5.26,69.31C-4.83,70.21 -4.55,71.05 -4.35,71.85L5.3,74.86L6.53,68.87C2.38,66.84 -1.35,65.42 -4.35,65.09Z" style="fill:none;fill-rule:nonzero;stroke:rgb(178,178,179);stroke-width:0.5px;"/>
            </g>
            <clipPath id="_clip68">
                <rect x="0" y="1.38" width="121.25" height="148.62"/>
            </clipPath>
            <g clip-path="url(#_clip68)">
                <path d="M5.35,74.83L-4.44,71.82C-3.89,75.07 -4.68,77.07 -5.63,78.65L-3.83,82.13L4.72,79.19L5.35,74.83Z" style="fill:rgb(238,235,221);"/>
            </g>
            <clipPath id="_clip69">
                <rect x="0" y="1.38" width="121.25" height="148.62"/>
            </clipPath>
            <g clip-path="url(#_clip69)">
                <path d="M5.35,74.83L-4.44,71.82C-3.89,75.07 -4.68,77.07 -5.63,78.65L-3.83,82.13L4.72,79.19L5.35,74.83Z" style="fill:none;fill-rule:nonzero;stroke:rgb(178,178,179);stroke-width:0.5px;"/>
            </g>
            <clipPath id="_clip70">
                <rect x="0" y="1.38" width="121.25" height="148.62"/>
            </clipPath>
            <g clip-path="url(#_clip70)">
                <path d="M4.78,79.12L-3.79,82.1L0.74,90.09L5.21,88.33C4.71,84.34 4.54,81.18 4.78,79.12Z" style="fill:rgb(238,235,221);"/>
            </g>
            <clipPath id="_clip71">
                <rect x="0" y="1.38" width="121.25" height="148.62"/>
            </clipPath>
            <g clip-path="url(#_clip71)">
                <path d="M4.78,79.12L-3.79,82.1L0.74,90.09L5.21,88.33C4.71,84.34 4.54,81.18 4.78,79.12Z" style="fill:none;fill-rule:nonzero;stroke:rgb(178,178,179);stroke-width:0.5px;"/>
            </g>
            <clipPath id="_clip72">
                <rect x="0" y="1.38" width="121.25" height="148.62"/>
            </clipPath>
            <g clip-path="url(#_clip72)">
                <path d="M0.74,90.06C-1.19,91.18 -3.1,92.48 -4.94,93.82C-6.3,92.29 -7.39,90.62 -8.57,89.09C-6.37,87.73 -4.31,86.49 -2.12,85.13L0.74,90.06Z" style="fill:rgb(238,235,221);"/>
            </g>
            <clipPath id="_clip73">
                <rect x="0" y="1.38" width="121.25" height="148.62"/>
            </clipPath>
            <g clip-path="url(#_clip73)">
                <path d="M0.74,90.06C-1.19,91.18 -3.1,92.48 -4.94,93.82C-6.3,92.29 -7.39,90.62 -8.57,89.09C-6.37,87.73 -4.31,86.49 -2.12,85.13L0.74,90.06Z" style="fill:none;fill-rule:nonzero;stroke:rgb(178,178,179);stroke-width:0.5px;"/>
            </g>
            <path d="M102.98,65.65C100.01,68.81 96.52,71.39 92.68,73.58L97.59,77.71L102.98,65.65Z" style="fill:rgb(238,235,221);"/>
            <path d="M102.98,65.65C100.01,68.81 96.52,71.39 92.68,73.58L97.59,77.71L102.98,65.65Z" style="fill:none;fill-rule:nonzero;stroke:rgb(178,178,179);stroke-width:0.5px;"/>
            <path d="M97.55,77.65L94.34,84.77L88.54,82.13L86.46,76.9L92.75,73.69L97.55,77.65Z" style="fill:rgb(238,235,221);"/>
            <path d="M97.55,77.65L94.34,84.77L88.54,82.13L86.46,76.9L92.75,73.69L97.55,77.65Z" style="fill:none;fill-rule:nonzero;stroke:rgb(178,178,179);stroke-width:0.5px;"/>
            <path d="M91.32,91.52L83.33,87.42L82.94,86.13L88.52,82.09L94.37,84.82L91.32,91.52Z" style="fill:rgb(238,235,221);"/>
            <path d="M91.32,91.52L83.33,87.42L82.94,86.13L88.52,82.09L94.37,84.82L91.32,91.52Z" style="fill:none;fill-rule:nonzero;stroke:rgb(178,178,179);stroke-width:0.5px;"/>
            <path d="M86.47,77C83.08,78.48 79.76,79.71 76.51,80.7C79.71,82.12 81.76,83.92 82.91,86.05L88.54,82.04L86.47,77Z" style="fill:rgb(238,235,221);"/>
            <path d="M86.47,77C83.08,78.48 79.76,79.71 76.51,80.7C79.71,82.12 81.76,83.92 82.91,86.05L88.54,82.04L86.47,77Z" style="fill:none;fill-rule:nonzero;stroke:rgb(178,178,179);stroke-width:0.5px;"/>
            <path d="M83.31,87.47C82.9,85.46 81.56,83.86 79.67,82.51C74.44,86.84 69.91,89.45 69.37,89.46L80.26,94.37L83.31,87.47Z" style="fill:rgb(238,235,221);"/>
            <path d="M83.31,87.47C82.9,85.46 81.56,83.86 79.67,82.51C74.44,86.84 69.91,89.45 69.37,89.46L80.26,94.37L83.31,87.47Z" style="fill:none;fill-rule:nonzero;stroke:rgb(178,178,179);stroke-width:0.5px;"/>
            <path d="M74.26,91.7L71.94,96.59C68.65,94.25 63.94,93.17 58.09,93.04C61.88,92.24 65.67,91.22 69.43,89.46L74.26,91.7Z" style="fill:rgb(238,235,221);"/>
            <path d="M74.26,91.7L71.94,96.59C68.65,94.25 63.94,93.17 58.09,93.04C61.88,92.24 65.67,91.22 69.43,89.46L74.26,91.7Z" style="fill:none;fill-rule:nonzero;stroke:rgb(178,178,179);stroke-width:0.5px;"/>
            <path d="M83.32,87.44L80.24,94.34L88.41,97.96L91.35,91.53L83.32,87.44Z" style="fill:rgb(238,235,221);"/>
            <path d="M83.32,87.44L80.24,94.34L88.41,97.96L91.35,91.53L83.32,87.44Z" style="fill:none;fill-rule:nonzero;stroke:rgb(178,178,179);stroke-width:0.5px;"/>
            <path d="M76.53,106.32L71.98,102.09C75.67,101.36 76.12,100.74 76.4,100.77L78.79,101.06L76.53,106.32Z" style="fill:rgb(238,235,221);"/>
            <path d="M76.53,106.32L71.98,102.09C75.67,101.36 76.12,100.74 76.4,100.77L78.79,101.06L76.53,106.32Z" style="fill:none;fill-rule:nonzero;stroke:rgb(178,178,179);stroke-width:0.5px;"/>
            <path d="M78.75,101.06L76.34,100.83C75.31,99.14 73.91,97.7 71.98,96.63L74.29,91.65L81.64,94.97L78.75,101.06Z" style="fill:rgb(238,235,221);"/>
            <path d="M78.75,101.06L76.34,100.83C75.31,99.14 73.91,97.7 71.98,96.63L74.29,91.65L81.64,94.97L78.75,101.06Z" style="fill:none;fill-rule:nonzero;stroke:rgb(178,178,179);stroke-width:0.5px;"/>
            <path d="M88.46,97.93L81.6,94.89L78.1,102.65L84.9,105.69L88.46,97.93Z" style="fill:rgb(238,235,221);"/>
            <path d="M88.46,97.93L81.6,94.89L78.1,102.65L84.9,105.69L88.46,97.93Z" style="fill:none;fill-rule:nonzero;stroke:rgb(178,178,179);stroke-width:0.5px;"/>
            <path d="M84.96,105.69L78.13,102.67L76.53,106.21C78.23,107.95 79.9,110.16 81.55,113.06L84.96,105.69Z" style="fill:rgb(238,235,221);"/>
            <path d="M84.96,105.69L78.13,102.67L76.53,106.21C78.23,107.95 79.9,110.16 81.55,113.06L84.96,105.69Z" style="fill:none;fill-rule:nonzero;stroke:rgb(178,178,179);stroke-width:0.5px;"/>
            <path d="M12.25,131.67C11.21,134.77 9.12,135.97 5.99,135.27L5.15,141.67C12.96,142.12 15.4,135.91 12.25,131.67Z" style="fill:rgb(238,235,221);"/>
            <clipPath id="_clip74">
                <rect x="0" y="1.38" width="121.25" height="148.62"/>
            </clipPath>
            <g clip-path="url(#_clip74)">
                <path d="M12.25,131.67C11.21,134.77 9.12,135.97 5.99,135.27L5.15,141.67C12.96,142.12 15.4,135.91 12.25,131.67Z" style="fill:none;fill-rule:nonzero;stroke:rgb(178,178,179);stroke-width:0.5px;"/>
            </g>
            <path d="M19.11,134.88C18.4,129.62 16,125.78 9.48,125.24L13.78,135.07L19.11,134.88Z" style="fill:rgb(173,69,131);"/>
            <path d="M19.11,134.88C18.4,129.62 16,125.78 9.48,125.24L13.78,135.07L19.11,134.88Z" style="fill:none;fill-rule:nonzero;stroke:rgb(178,178,179);stroke-width:0.5px;"/>
            <path d="M51,58.91C49.92,58.89 47.8,58.32 42.61,56.08C42.6,60.78 41.9,65.88 40.97,70.18C44.11,65.51 47.64,60.87 51,58.91Z" style="fill:rgb(173,69,131);"/>
            <path d="M51,58.91C49.92,58.89 47.8,58.32 42.61,56.08C42.6,60.78 41.9,65.88 40.97,70.18C44.11,65.51 47.64,60.87 51,58.91Z" style="fill:none;fill-rule:nonzero;stroke:rgb(178,178,179);stroke-width:0.5px;"/>
            <path d="M42.59,56.18L33.39,56.66C33.22,58.79 32.87,60.96 32.89,63.09L42.13,62.97C42.38,60.8 42.54,58.54 42.59,56.18Z" style="fill:rgb(173,69,131);"/>
            <path d="M42.59,56.18L33.39,56.66C33.22,58.79 32.87,60.96 32.89,63.09L42.13,62.97C42.38,60.8 42.54,58.54 42.59,56.18Z" style="fill:none;fill-rule:nonzero;stroke:rgb(178,178,179);stroke-width:0.5px;"/>
            <clipPath id="_clip75">
                <rect x="0" y="1.38" width="121.25" height="148.62"/>
            </clipPath>
            <g clip-path="url(#_clip75)">
                <path d="M7.49,112.65L6.29,106.94C3.87,107.28 1.4,107.4 -1.16,107.08L-1.75,112.82C2.39,113.51 5.1,113.34 7.49,112.65Z" style="fill:rgb(173,69,131);"/>
            </g>
            <clipPath id="_clip76">
                <rect x="0" y="1.38" width="121.25" height="148.62"/>
            </clipPath>
            <g clip-path="url(#_clip76)">
                <path d="M7.49,112.65L6.29,106.94C3.87,107.28 1.4,107.4 -1.16,107.08L-1.75,112.82C2.39,113.51 5.1,113.34 7.49,112.65Z" style="fill:none;fill-rule:nonzero;stroke:rgb(178,178,179);stroke-width:0.5px;"/>
            </g>
            <path d="M15.98,109.48L13.34,104.23C11.1,105.39 8.74,106.25 6.3,106.89L7.34,112.71C10.2,112.22 13.16,111.17 15.98,109.48Z" style="fill:rgb(173,69,131);"/>
            <path d="M15.98,109.48L13.34,104.23C11.1,105.39 8.74,106.25 6.3,106.89L7.34,112.71C10.2,112.22 13.16,111.17 15.98,109.48Z" style="fill:none;fill-rule:nonzero;stroke:rgb(178,178,179);stroke-width:0.5px;"/>
            <path d="M22.61,104.52L18.78,99.96C17.19,101.55 15.33,102.96 13.31,104.2L16.01,109.43C18.42,108.1 20.65,106.5 22.61,104.52Z" style="fill:rgb(173,69,131);"/>
            <path d="M22.61,104.52L18.78,99.96C17.19,101.55 15.33,102.96 13.31,104.2L16.01,109.43C18.42,108.1 20.65,106.5 22.61,104.52Z" style="fill:none;fill-rule:nonzero;stroke:rgb(178,178,179);stroke-width:0.5px;"/>
            <path d="M27.56,97.4C26.08,96.25 24.55,95.22 22.96,94.3C21.6,96.52 20.01,98.5 18.78,99.98L22.66,104.55C24.43,102.62 26.52,99.92 27.56,97.4Z" style="fill:rgb(173,69,131);"/>
            <path d="M27.56,97.4C26.08,96.25 24.55,95.22 22.96,94.3C21.6,96.52 20.01,98.5 18.78,99.98L22.66,104.55C24.43,102.62 26.52,99.92 27.56,97.4Z" style="fill:none;fill-rule:nonzero;stroke:rgb(178,178,179);stroke-width:0.5px;"/>
            <clipPath id="_clip77">
                <rect x="0" y="1.38" width="121.25" height="148.62"/>
            </clipPath>
            <g clip-path="url(#_clip77)">
                <path d="M-11.26,100.28C-9,97.33 -5.36,93.77 -2.09,91.66L0.7,96.39C-2.02,97.85 -4.63,100.16 -7.1,103.51L-11.26,100.28Z" style="fill:rgb(173,69,131);"/>
            </g>
            <clipPath id="_clip78">
                <rect x="0" y="1.38" width="121.25" height="148.62"/>
            </clipPath>
            <g clip-path="url(#_clip78)">
                <path d="M-11.26,100.28C-9,97.33 -5.36,93.77 -2.09,91.66L0.7,96.39C-2.02,97.85 -4.63,100.16 -7.1,103.51L-11.26,100.28Z" style="fill:none;fill-rule:nonzero;stroke:rgb(178,178,179);stroke-width:0.5px;"/>
            </g>
            <path d="M24.09,88.98C19.17,87.51 14.55,86.86 10.82,87.33L11.5,92.39C15.2,92.04 19,92.71 22.91,94.29L24.09,88.98Z" style="fill:rgb(173,69,131);"/>
            <path d="M24.09,88.98C19.17,87.51 14.55,86.86 10.82,87.33L11.5,92.39C15.2,92.04 19,92.71 22.91,94.29L24.09,88.98Z" style="fill:none;fill-rule:nonzero;stroke:rgb(178,178,179);stroke-width:0.5px;"/>
            <clipPath id="_clip79">
                <rect x="0" y="1.38" width="121.25" height="148.62"/>
            </clipPath>
            <g clip-path="url(#_clip79)">
                <path d="M-2.16,91.66C1.54,89.11 5.88,87.66 10.86,87.31L11.5,92.39C7.02,93.19 3.62,94.64 0.59,96.31L-2.16,91.66Z" style="fill:rgb(173,69,131);"/>
            </g>
            <clipPath id="_clip80">
                <rect x="0" y="1.38" width="121.25" height="148.62"/>
            </clipPath>
            <g clip-path="url(#_clip80)">
                <path d="M-2.16,91.66C1.54,89.11 5.88,87.66 10.86,87.31L11.5,92.39C7.02,93.19 3.62,94.64 0.59,96.31L-2.16,91.66Z" style="fill:none;fill-rule:nonzero;stroke:rgb(178,178,179);stroke-width:0.5px;"/>
            </g>
            <path d="M30.08,91.76C28.11,90.68 26.16,89.75 24.18,89L22.91,94.4C24.62,95.14 25.99,96.22 27.49,97.44L30.08,91.76Z" style="fill:rgb(173,69,131);"/>
            <path d="M30.08,91.76C28.11,90.68 26.16,89.75 24.18,89L22.91,94.4C24.62,95.14 25.99,96.22 27.49,97.44L30.08,91.76Z" style="fill:none;fill-rule:nonzero;stroke:rgb(178,178,179);stroke-width:0.5px;"/>
            <path d="M34.2,82.2L34.06,75.39C29.32,75.48 25.34,78.19 21.83,82.4C22.38,83.04 22.86,83.85 23.31,84.73L34.2,82.2Z" style="fill:rgb(173,69,131);"/>
            <path d="M34.2,82.2L34.06,75.39C29.32,75.48 25.34,78.19 21.83,82.4C22.38,83.04 22.86,83.85 23.31,84.73L34.2,82.2Z" style="fill:none;fill-rule:nonzero;stroke:rgb(178,178,179);stroke-width:0.5px;"/>
            <path d="M42.57,56.14L33.36,56.65C34.25,51.46 36.63,48.92 40.09,47.36C40.98,48.71 41.8,51.48 42.57,56.14Z" style="fill:rgb(173,69,131);"/>
            <path d="M42.57,56.14L33.36,56.65C34.25,51.46 36.63,48.92 40.09,47.36C40.98,48.71 41.8,51.48 42.57,56.14Z" style="fill:none;fill-rule:nonzero;stroke:rgb(178,178,179);stroke-width:0.5px;"/>
            <path d="M35.28,109.48L29.17,107.26C29.84,105.87 29.97,104.32 29.73,102.68L35.79,101.15C36.77,104.04 36.51,106.76 35.28,109.48Z" style="fill:rgb(173,69,131);"/>
            <path d="M35.28,109.48L29.17,107.26C29.84,105.87 29.97,104.32 29.73,102.68L35.79,101.15C36.77,104.04 36.51,106.76 35.28,109.48Z" style="fill:none;fill-rule:nonzero;stroke:rgb(178,178,179);stroke-width:0.5px;"/>
            <path d="M55.38,86.83C59.13,87.07 62.06,88.6 64.16,91.43C61.34,92.22 58.47,92.87 55.5,93.26L55.38,86.83Z" style="fill:rgb(173,69,131);"/>
            <path d="M55.38,86.83C59.13,87.07 62.06,88.6 64.16,91.43C61.34,92.22 58.47,92.87 55.5,93.26L55.38,86.83Z" style="fill:none;fill-rule:nonzero;stroke:rgb(178,178,179);stroke-width:0.5px;"/>
            <path d="M55.41,86.85C52.98,86.45 50.52,86.22 48.03,86.09L47.74,93.76C50.34,93.67 52.97,93.58 55.5,93.28L55.41,86.85Z" style="fill:rgb(173,69,131);"/>
            <path d="M55.41,86.85C52.98,86.45 50.52,86.22 48.03,86.09L47.74,93.76C50.34,93.67 52.97,93.58 55.5,93.28L55.41,86.85Z" style="fill:none;fill-rule:nonzero;stroke:rgb(178,178,179);stroke-width:0.5px;"/>
            <path d="M30.18,91.84C32.64,94.73 34.49,97.47 35.61,100.15L41.06,96.93C37.57,93.56 34.45,91.92 30.18,91.84Z" style="fill:rgb(173,69,131);"/>
            <path d="M30.18,91.84C32.64,94.73 34.49,97.47 35.61,100.15L41.06,96.93C37.57,93.56 34.45,91.92 30.18,91.84Z" style="fill:none;fill-rule:nonzero;stroke:rgb(178,178,179);stroke-width:0.5px;"/>
            <path d="M49.87,99.17L48.77,93.71C46.99,93.74 40.84,92.94 33.57,92.14C36.71,93.26 40.3,95.48 45.94,102.14L49.87,99.17Z" style="fill:rgb(173,69,131);"/>
            <path d="M49.87,99.17L48.77,93.71C46.99,93.74 40.84,92.94 33.57,92.14C36.71,93.26 40.3,95.48 45.94,102.14L49.87,99.17Z" style="fill:none;fill-rule:nonzero;stroke:rgb(178,178,179);stroke-width:0.5px;"/>
            <path d="M56.03,50.35C56.13,47.27 55.47,40.65 53.56,39.94C51.08,40.83 48.56,43.24 46.33,44.87L49.91,50.09L56.03,50.35Z" style="fill:rgb(173,69,131);"/>
            <path d="M56.03,50.35C56.13,47.27 55.47,40.65 53.56,39.94C51.08,40.83 48.56,43.24 46.33,44.87L49.91,50.09L56.03,50.35Z" style="fill:none;fill-rule:nonzero;stroke:rgb(178,178,179);stroke-width:0.5px;"/>
            <path d="M58.76,55.08C56.27,55.68 54.42,56.56 52.86,57.58C52.2,58.01 51.6,58.46 51.02,58.93L56.81,64.63C58.51,62.23 60.6,59.44 58.76,55.08Z" style="fill:rgb(173,69,131);"/>
            <path d="M58.76,55.08C56.27,55.68 54.42,56.56 52.86,57.58C52.2,58.01 51.6,58.46 51.02,58.93L56.81,64.63C58.51,62.23 60.6,59.44 58.76,55.08Z" style="fill:none;fill-rule:nonzero;stroke:rgb(178,178,179);stroke-width:0.5px;"/>
            <path d="M55.91,50.36L49.91,50.05L46.5,57.6C48.04,58.28 49.64,58.8 50.97,58.93C52.28,57.9 53.66,56.95 55.21,56.22C55.52,54.3 55.77,52.36 55.91,50.36Z" style="fill:rgb(173,69,131);"/>
            <path d="M55.91,50.36L49.91,50.05L46.5,57.6C48.04,58.28 49.64,58.8 50.97,58.93C52.28,57.9 53.66,56.95 55.21,56.22C55.52,54.3 55.77,52.36 55.91,50.36Z" style="fill:none;fill-rule:nonzero;stroke:rgb(178,178,179);stroke-width:0.5px;"/>
            <path d="M56.83,64.67C55.04,66.98 52.87,69.19 50.43,71.11C48.65,69.08 46.7,66.74 44.92,64.71C48.27,60.74 49.77,59.73 51.14,58.91L56.83,64.67Z" style="fill:rgb(173,69,131);"/>
            <path d="M56.83,64.67C55.04,66.98 52.87,69.19 50.43,71.11C48.65,69.08 46.7,66.74 44.92,64.71C48.27,60.74 49.77,59.73 51.14,58.91L56.83,64.67Z" style="fill:none;fill-rule:nonzero;stroke:rgb(178,178,179);stroke-width:0.5px;"/>
            <path d="M49.87,50.07L46.51,57.67L42.54,56.05C42.18,54 41.75,51.92 41.24,49.81L46.29,44.92L49.87,50.07Z" style="fill:rgb(173,69,131);"/>
            <path d="M49.87,50.07L46.51,57.67L42.54,56.05C42.18,54 41.75,51.92 41.24,49.81L46.29,44.92L49.87,50.07Z" style="fill:none;fill-rule:nonzero;stroke:rgb(178,178,179);stroke-width:0.5px;"/>
            <path d="M42.16,62.98L32.89,63.08C33.07,66.21 33.44,69.2 33.81,72.32L40.83,70.57C41.4,68 41.82,65.48 42.16,62.98Z" style="fill:rgb(173,69,131);"/>
            <path d="M42.16,62.98L32.89,63.08C33.07,66.21 33.44,69.2 33.81,72.32L40.83,70.57C41.4,68 41.82,65.48 42.16,62.98Z" style="fill:none;fill-rule:nonzero;stroke:rgb(178,178,179);stroke-width:0.5px;"/>
            <path d="M50.45,71.09L44.94,64.69C43.4,66.66 41.95,68.63 40.84,70.58L42.68,77.13C46.4,74.28 49.63,71.94 50.45,71.09Z" style="fill:rgb(173,69,131);"/>
            <path d="M50.45,71.09L44.94,64.69C43.4,66.66 41.95,68.63 40.84,70.58L42.68,77.13C46.4,74.28 49.63,71.94 50.45,71.09Z" style="fill:none;fill-rule:nonzero;stroke:rgb(178,178,179);stroke-width:0.5px;"/>
            <path d="M42.68,77.05L40.84,70.56L33.8,72.3C34.16,76.84 34.31,81.28 34.14,85.58C36.84,82.58 39.63,79.68 42.68,77.05Z" style="fill:rgb(173,69,131);"/>
            <path d="M42.68,77.05L40.84,70.56L33.8,72.3C34.16,76.84 34.31,81.28 34.14,85.58C36.84,82.58 39.63,79.68 42.68,77.05Z" style="fill:none;fill-rule:nonzero;stroke:rgb(178,178,179);stroke-width:0.5px;"/>
            <path d="M35.31,109.43L29.22,107.25C28,110.01 25.77,111.91 22.76,113.15C26.4,117.79 32.84,115.96 35.31,109.43Z" style="fill:rgb(173,69,131);"/>
            <path d="M35.31,109.43L29.22,107.25C28,110.01 25.77,111.91 22.76,113.15C26.4,117.79 32.84,115.96 35.31,109.43Z" style="fill:none;fill-rule:nonzero;stroke:rgb(178,178,179);stroke-width:0.5px;"/>
            <path d="M104.18,63.75C100.13,62.33 96.3,62.27 92.63,63.16L92.21,68.22L95.86,71.55C101,67.64 103.77,65.04 104.18,63.75Z" style="fill:rgb(173,69,131);"/>
            <path d="M104.18,63.75C100.13,62.33 96.3,62.27 92.63,63.16L92.21,68.22L95.86,71.55C101,67.64 103.77,65.04 104.18,63.75Z" style="fill:none;fill-rule:nonzero;stroke:rgb(178,178,179);stroke-width:0.5px;"/>
            <path d="M92.71,63.1C89.42,63.49 86.22,64.21 82.8,65L83.29,71.47L92.18,68.32L92.71,63.1Z" style="fill:rgb(173,69,131);"/>
            <path d="M92.71,63.1C89.42,63.49 86.22,64.21 82.8,65L83.29,71.47L92.18,68.32L92.71,63.1Z" style="fill:none;fill-rule:nonzero;stroke:rgb(178,178,179);stroke-width:0.5px;"/>
            <path d="M95.8,71.57C93.15,73.2 90.55,74.77 87.62,76.14L83.38,71.52L92.24,68.24L95.8,71.57Z" style="fill:rgb(173,69,131);"/>
            <path d="M95.8,71.57C93.15,73.2 90.55,74.77 87.62,76.14L83.38,71.52L92.24,68.24L95.8,71.57Z" style="fill:none;fill-rule:nonzero;stroke:rgb(178,178,179);stroke-width:0.5px;"/>
            <path d="M87.6,76.2C84.07,77.98 80.4,79.46 76.52,80.55L76.08,74.27L83.34,71.46L87.6,76.2Z" style="fill:rgb(173,69,131);"/>
            <path d="M87.6,76.2C84.07,77.98 80.4,79.46 76.52,80.55L76.08,74.27L83.34,71.46L87.6,76.2Z" style="fill:none;fill-rule:nonzero;stroke:rgb(178,178,179);stroke-width:0.5px;"/>
            <path d="M82.71,64.98C78.91,66.38 75.21,67.91 71.75,69.73L76.07,74.2L83.36,71.52L82.71,64.98Z" style="fill:rgb(173,69,131);"/>
            <path d="M82.71,64.98C78.91,66.38 75.21,67.91 71.75,69.73L76.07,74.2L83.36,71.52L82.71,64.98Z" style="fill:none;fill-rule:nonzero;stroke:rgb(178,178,179);stroke-width:0.5px;"/>
            <path d="M79.65,82.41C75.29,79.52 70.75,78.76 65.56,79.46L64.43,82.33L71.51,88.31C74.44,86.24 77.48,84.27 79.65,82.41Z" style="fill:rgb(173,69,131);"/>
            <path d="M79.65,82.41C75.29,79.52 70.75,78.76 65.56,79.46L64.43,82.33L71.51,88.31C74.44,86.24 77.48,84.27 79.65,82.41Z" style="fill:none;fill-rule:nonzero;stroke:rgb(178,178,179);stroke-width:0.5px;"/>
            <path d="M73.16,65.82C72.57,69.23 70.44,71.72 65.95,74.99L62.68,72.01L63.85,66.51C66.98,65.68 69.66,65.7 73.16,65.82Z" style="fill:rgb(173,69,131);"/>
            <path d="M73.16,65.82C72.57,69.23 70.44,71.72 65.95,74.99L62.68,72.01L63.85,66.51C66.98,65.68 69.66,65.7 73.16,65.82Z" style="fill:none;fill-rule:nonzero;stroke:rgb(178,178,179);stroke-width:0.5px;"/>
            <path d="M76.51,80.63L76.03,74.19L71.62,69.68C70.5,71.06 69.36,72.52 67.85,73.58L69.88,79.14C71.96,79.31 74.23,79.71 76.51,80.63Z" style="fill:rgb(173,69,131);"/>
            <path d="M76.51,80.63L76.03,74.19L71.62,69.68C70.5,71.06 69.36,72.52 67.85,73.58L69.88,79.14C71.96,79.31 74.23,79.71 76.51,80.63Z" style="fill:none;fill-rule:nonzero;stroke:rgb(178,178,179);stroke-width:0.5px;"/>
            <path d="M27.45,97.41L30.07,91.78C33.31,95.42 35.18,98.44 35.83,101.1L29.83,102.69C29.2,100.57 28.46,98.68 27.45,97.41Z" style="fill:rgb(173,69,131);"/>
            <path d="M27.45,97.41L30.07,91.78C33.31,95.42 35.18,98.44 35.83,101.1L29.83,102.69C29.2,100.57 28.46,98.68 27.45,97.41Z" style="fill:none;fill-rule:nonzero;stroke:rgb(178,178,179);stroke-width:0.5px;"/>
            <path d="M57.38,81.49C61,78.68 64.77,75.99 67.87,73.55L69.9,79.21C65.43,79.07 61.25,79.93 57.38,81.49Z" style="fill:rgb(173,69,131);"/>
            <path d="M57.38,81.49C61,78.68 64.77,75.99 67.87,73.55L69.9,79.21C65.43,79.07 61.25,79.93 57.38,81.49Z" style="fill:none;fill-rule:nonzero;stroke:rgb(178,178,179);stroke-width:0.5px;"/>
            <path d="M71.48,88.33L64.47,82.27L61.28,88.57C62.27,89.25 63.23,90.23 64.17,91.4C66.74,90.53 69.13,89.48 71.48,88.33Z" style="fill:rgb(173,69,131);"/>
            <path d="M71.48,88.33L64.47,82.27L61.28,88.57C62.27,89.25 63.23,90.23 64.17,91.4C66.74,90.53 69.13,89.48 71.48,88.33Z" style="fill:none;fill-rule:nonzero;stroke:rgb(178,178,179);stroke-width:0.5px;"/>
            <path d="M65.51,79.47C62.89,79.73 60.35,80.39 57.48,81.39C56.88,83.26 56.15,85.07 55.34,86.85C57.19,87.01 59.19,87.68 61.24,88.52C63.4,84.62 64.87,81.51 65.51,79.47Z" style="fill:rgb(173,69,131);"/>
            <path d="M65.51,79.47C62.89,79.73 60.35,80.39 57.48,81.39C56.88,83.26 56.15,85.07 55.34,86.85C57.19,87.01 59.19,87.68 61.24,88.52C63.4,84.62 64.87,81.51 65.51,79.47Z" style="fill:none;fill-rule:nonzero;stroke:rgb(178,178,179);stroke-width:0.5px;"/>
            <path d="M63.82,66.51C60.88,67.42 58.23,68.24 55.42,69.47C55.18,71.01 54.8,72.71 54.15,74.4C57.11,73.79 60.21,72.97 62.7,71.89L63.82,66.51Z" style="fill:rgb(173,69,131);"/>
            <path d="M63.82,66.51C60.88,67.42 58.23,68.24 55.42,69.47C55.18,71.01 54.8,72.71 54.15,74.4C57.11,73.79 60.21,72.97 62.7,71.89L63.82,66.51Z" style="fill:none;fill-rule:nonzero;stroke:rgb(178,178,179);stroke-width:0.5px;"/>
            <path d="M65.91,75L62.61,71.95C60.03,72.95 56.98,73.77 54.15,74.4C53.47,75.72 52.6,76.95 51.64,78.14C53.62,79.21 55.68,79.97 57.57,81.36C60.4,79.26 63.21,77.16 65.91,75Z" style="fill:rgb(173,69,131);"/>
            <path d="M65.91,75L62.61,71.95C60.03,72.95 56.98,73.77 54.15,74.4C53.47,75.72 52.6,76.95 51.64,78.14C53.62,79.21 55.68,79.97 57.57,81.36C60.4,79.26 63.21,77.16 65.91,75Z" style="fill:none;fill-rule:nonzero;stroke:rgb(178,178,179);stroke-width:0.5px;"/>
            <path d="M55.41,69.47C51.33,71.36 47.27,73.92 43.22,76.67L47.71,82.24C52.85,77.36 54.88,74.49 55.41,69.47Z" style="fill:rgb(173,69,131);"/>
            <path d="M55.41,69.47C51.33,71.36 47.27,73.92 43.22,76.67L47.71,82.24C52.85,77.36 54.88,74.49 55.41,69.47Z" style="fill:none;fill-rule:nonzero;stroke:rgb(178,178,179);stroke-width:0.5px;"/>
            <path d="M55.41,86.85C49.68,85.92 44.59,85.92 42.99,86.14C45.76,84.3 49.41,81.04 51.64,78.15C53.77,79.09 55.77,80.13 57.5,81.4L55.41,86.85Z" style="fill:rgb(173,69,131);"/>
            <path d="M55.41,86.85C49.68,85.92 44.59,85.92 42.99,86.14C45.76,84.3 49.41,81.04 51.64,78.15C53.77,79.09 55.77,80.13 57.5,81.4L55.41,86.85Z" style="fill:none;fill-rule:nonzero;stroke:rgb(178,178,179);stroke-width:0.5px;"/>
            <path d="M43.18,76.68C40.8,78.66 38.59,80.69 36.63,82.86L40.77,86.67C42.81,86.37 45.11,84.75 47.69,82.28L43.18,76.68Z" style="fill:rgb(173,69,131);"/>
            <path d="M43.18,76.68C40.8,78.66 38.59,80.69 36.63,82.86L40.77,86.67C42.81,86.37 45.11,84.75 47.69,82.28L43.18,76.68Z" style="fill:none;fill-rule:nonzero;stroke:rgb(178,178,179);stroke-width:0.5px;"/>
            <path d="M47.74,93.75C44.87,93.57 42.21,93.26 39.32,92.7L40.81,86.75C43.97,85.93 46.07,85.94 47.99,86.12L47.74,93.75Z" style="fill:rgb(173,69,131);"/>
            <path d="M47.74,93.75C44.87,93.57 42.21,93.26 39.32,92.7L40.81,86.75C43.97,85.93 46.07,85.94 47.99,86.12L47.74,93.75Z" style="fill:none;fill-rule:nonzero;stroke:rgb(178,178,179);stroke-width:0.5px;"/>
            <path d="M36.6,82.85C34.08,85.53 31.89,88.48 30.09,91.77L39.34,92.68L40.84,86.72L36.6,82.85Z" style="fill:rgb(173,69,131);"/>
            <path d="M36.6,82.85C34.08,85.53 31.89,88.48 30.09,91.77L39.34,92.68L40.84,86.72L36.6,82.85Z" style="fill:none;fill-rule:nonzero;stroke:rgb(178,178,179);stroke-width:0.5px;"/>
            <path d="M57.41,92.98L56.97,101.05L49.85,99.2L48.76,93.71C52.12,93.54 55.04,93.3 57.41,92.98Z" style="fill:rgb(173,69,131);"/>
            <path d="M57.41,92.98L56.97,101.05L49.85,99.2L48.76,93.71C52.12,93.54 55.04,93.3 57.41,92.98Z" style="fill:none;fill-rule:nonzero;stroke:rgb(178,178,179);stroke-width:0.5px;"/>
            <path d="M49.88,99.21C52.37,100.77 54.74,102.58 57.01,104.62L49.54,110.56C48.67,107.97 47.42,104.91 45.9,102.12L49.88,99.21Z" style="fill:rgb(173,69,131);"/>
            <path d="M49.88,99.21C52.37,100.77 54.74,102.58 57.01,104.62L49.54,110.56C48.67,107.97 47.42,104.91 45.9,102.12L49.88,99.21Z" style="fill:none;fill-rule:nonzero;stroke:rgb(178,178,179);stroke-width:0.5px;"/>
            <path d="M66.88,102.39C62.65,102.47 56.61,101.12 49.83,99.19C55.26,102.65 59.16,106.38 62.21,110.2C64.37,108.05 65.87,105.35 66.88,102.39Z" style="fill:rgb(173,69,131);"/>
            <path d="M66.88,102.39C62.65,102.47 56.61,101.12 49.83,99.19C55.26,102.65 59.16,106.38 62.21,110.2C64.37,108.05 65.87,105.35 66.88,102.39Z" style="fill:none;fill-rule:nonzero;stroke:rgb(178,178,179);stroke-width:0.5px;"/>
            <path d="M66.06,93.91C62.95,93.25 60.16,92.9 57.38,92.96L56.97,100.97C59.66,101.64 62.36,102.12 65.07,102.32L66.06,93.91Z" style="fill:rgb(173,69,131);"/>
            <path d="M66.06,93.91C62.95,93.25 60.16,92.9 57.38,92.96L56.97,100.97C59.66,101.64 62.36,102.12 65.07,102.32L66.06,93.91Z" style="fill:none;fill-rule:nonzero;stroke:rgb(178,178,179);stroke-width:0.5px;"/>
            <path d="M76.33,100.68C74.32,97.64 70.82,95.31 66.09,93.89L65.05,102.36C69.23,102.6 72.96,102.05 76.33,100.68Z" style="fill:rgb(173,69,131);"/>
            <path d="M76.33,100.68C74.32,97.64 70.82,95.31 66.09,93.89L65.05,102.36C69.23,102.6 72.96,102.05 76.33,100.68Z" style="fill:none;fill-rule:nonzero;stroke:rgb(178,178,179);stroke-width:0.5px;"/>
            <path d="M61.8,109.73L55.26,115.69C53.4,114.23 51.45,112.59 49.61,110.66L56.98,104.61C58.67,106.04 60.29,107.71 61.8,109.73Z" style="fill:rgb(173,69,131);"/>
            <path d="M61.8,109.73L55.26,115.69C53.4,114.23 51.45,112.59 49.61,110.66L56.98,104.61C58.67,106.04 60.29,107.71 61.8,109.73Z" style="fill:none;fill-rule:nonzero;stroke:rgb(178,178,179);stroke-width:0.5px;"/>
            <path d="M76.5,106.19L71.93,101.97C70.19,102.22 68.49,102.36 66.85,102.37C66.27,103.98 65.62,105.55 64.72,107.02L71.4,109.68C73.27,108.48 75.01,107.36 76.5,106.19Z" style="fill:rgb(173,69,131);"/>
            <path d="M76.5,106.19L71.93,101.97C70.19,102.22 68.49,102.36 66.85,102.37C66.27,103.98 65.62,105.55 64.72,107.02L71.4,109.68C73.27,108.48 75.01,107.36 76.5,106.19Z" style="fill:none;fill-rule:nonzero;stroke:rgb(178,178,179);stroke-width:0.5px;"/>
            <path d="M64.73,107.06C63.99,108.15 63.16,109.2 62.26,110.22C63.73,111.97 65.15,113.81 66.51,115.8C68.79,116.23 71.23,116.8 73.39,117.08C72.65,114.86 72.11,111.92 71.3,109.66L64.73,107.06Z" style="fill:rgb(173,69,131);"/>
            <path d="M64.73,107.06C63.99,108.15 63.16,109.2 62.26,110.22C63.73,111.97 65.15,113.81 66.51,115.8C68.79,116.23 71.23,116.8 73.39,117.08C72.65,114.86 72.11,111.92 71.3,109.66L64.73,107.06Z" style="fill:none;fill-rule:nonzero;stroke:rgb(178,178,179);stroke-width:0.5px;"/>
            <path d="M82.39,114.67C80.74,111.41 78.78,108.34 76.51,106.23C74.88,107.47 73.16,108.62 71.32,109.68L73.32,117.12C76.62,116.65 79.71,116.1 82.39,114.67Z" style="fill:rgb(173,69,131);"/>
            <path d="M82.39,114.67C80.74,111.41 78.78,108.34 76.51,106.23C74.88,107.47 73.16,108.62 71.32,109.68L73.32,117.12C76.62,116.65 79.71,116.1 82.39,114.67Z" style="fill:none;fill-rule:nonzero;stroke:rgb(178,178,179);stroke-width:0.5px;"/>
            <path d="M61.79,109.76L55.25,115.72C59.39,119.18 63.68,120.66 68.16,119.96C67.89,117.78 66.2,114.67 61.79,109.76Z" style="fill:rgb(173,69,131);"/>
            <path d="M61.79,109.76L55.25,115.72C59.39,119.18 63.68,120.66 68.16,119.96C67.89,117.78 66.2,114.67 61.79,109.76Z" style="fill:none;fill-rule:nonzero;stroke:rgb(178,178,179);stroke-width:0.5px;"/>
            <path d="M35.61,100.07L36.42,104.17C41.24,106.82 44.24,105.8 45.99,102.27C44.41,100.37 42.78,98.6 41.09,96.93L35.61,100.07Z" style="fill:rgb(173,69,131);"/>
            <path d="M35.61,100.07L36.42,104.17C41.24,106.82 44.24,105.8 45.99,102.27C44.41,100.37 42.78,98.6 41.09,96.93L35.61,100.07Z" style="fill:none;fill-rule:nonzero;stroke:rgb(178,178,179);stroke-width:0.5px;"/>
            <path d="M36.01,113.69L40.95,117.5C46.08,110.03 42.51,107.05 36.39,104.23L36.29,107.09C37.01,109.49 37.03,111.71 36.01,113.69Z" style="fill:rgb(173,69,131);"/>
            <path d="M36.01,113.69L40.95,117.5C46.08,110.03 42.51,107.05 36.39,104.23L36.29,107.09C37.01,109.49 37.03,111.71 36.01,113.69Z" style="fill:none;fill-rule:nonzero;stroke:rgb(178,178,179);stroke-width:0.5px;"/>
            <path d="M40.95,117.5C38.08,121.09 34.21,122.17 28.86,119.56C32.53,117.81 34.86,115.81 36.01,113.69L40.95,117.5Z" style="fill:rgb(173,69,131);"/>
            <path d="M40.95,117.5C38.08,121.09 34.21,122.17 28.86,119.56C32.53,117.81 34.86,115.81 36.01,113.69L40.95,117.5Z" style="fill:none;fill-rule:nonzero;stroke:rgb(178,178,179);stroke-width:0.5px;"/>
            <path d="M50.07,112.99L42.93,114.05C44.37,109.96 42.42,107.23 38.58,105.26C42.06,106.26 44.53,105.26 45.97,102.27C47.87,105.86 49.24,109.4 50.07,112.99Z" style="fill:rgb(173,69,131);"/>
            <path d="M50.07,112.99L42.93,114.05C44.37,109.96 42.42,107.23 38.58,105.26C42.06,106.26 44.53,105.26 45.97,102.27C47.87,105.86 49.24,109.4 50.07,112.99Z" style="fill:none;fill-rule:nonzero;stroke:rgb(178,178,179);stroke-width:0.5px;"/>
            <path d="M43.3,114.18C45.99,116.24 46.9,118.69 47.42,121.5L51.12,121.91C50.88,118.9 50.53,115.84 50.07,112.92L43.3,114.18Z" style="fill:rgb(173,69,131);"/>
            <path d="M43.3,114.18C45.99,116.24 46.9,118.69 47.42,121.5L51.12,121.91C50.88,118.9 50.53,115.84 50.07,112.92L43.3,114.18Z" style="fill:none;fill-rule:nonzero;stroke:rgb(178,178,179);stroke-width:0.5px;"/>
            <path d="M42.93,113.9C48.64,118.67 48.84,124.94 44.05,132.16C42.76,129.7 41.22,127.87 39.67,126.45C37.91,124.83 37.05,122.6 36.19,120.71C39.09,120.07 41.3,117.7 42.93,113.9Z" style="fill:rgb(173,69,131);"/>
            <path d="M42.93,113.9C48.64,118.67 48.84,124.94 44.05,132.16C42.76,129.7 41.22,127.87 39.67,126.45C37.91,124.83 37.05,122.6 36.19,120.71C39.09,120.07 41.3,117.7 42.93,113.9Z" style="fill:none;fill-rule:nonzero;stroke:rgb(178,178,179);stroke-width:0.5px;"/>
            <path d="M34.19,82.1L23.29,84.65C23.69,86.01 24.01,87.43 24.14,88.96L30.11,91.69C31.51,89.36 32.81,87.3 34.23,85.61L34.19,82.1Z" style="fill:rgb(173,69,131);"/>
            <path d="M34.19,82.1L23.29,84.65C23.69,86.01 24.01,87.43 24.14,88.96L30.11,91.69C31.51,89.36 32.81,87.3 34.23,85.61L34.19,82.1Z" style="fill:none;fill-rule:nonzero;stroke:rgb(178,178,179);stroke-width:0.5px;"/>
            <path d="M24.62,57.79C22.67,62.31 23.82,65.74 25.77,69.41L33.15,67.22C31.79,63.66 27.44,59.09 24.62,57.79Z" style="fill:rgb(173,69,131);"/>
            <path d="M24.62,57.79C22.67,62.31 23.82,65.74 25.77,69.41L33.15,67.22C31.79,63.66 27.44,59.09 24.62,57.79Z" style="fill:none;fill-rule:nonzero;stroke:rgb(178,178,179);stroke-width:0.5px;"/>
            <path d="M33.96,75.34C33.77,72.87 33.49,70.05 33.21,67.19L25.73,69.36L29.31,76.42C30.77,75.82 32.34,75.5 33.96,75.34Z" style="fill:rgb(173,69,131);"/>
            <path d="M33.96,75.34C33.77,72.87 33.49,70.05 33.21,67.19L25.73,69.36L29.31,76.42C30.77,75.82 32.34,75.5 33.96,75.34Z" style="fill:none;fill-rule:nonzero;stroke:rgb(178,178,179);stroke-width:0.5px;"/>
            <path d="M13.56,54.4C13.85,56.27 14.26,58.07 13.94,59.98C13.83,60.62 13.77,61.22 13.88,61.76L22.24,59.1C19.37,55.41 16.82,53.47 13.56,54.4Z" style="fill:rgb(173,69,131);"/>
            <path d="M13.56,54.4C13.85,56.27 14.26,58.07 13.94,59.98C13.83,60.62 13.77,61.22 13.88,61.76L22.24,59.1C19.37,55.41 16.82,53.47 13.56,54.4Z" style="fill:none;fill-rule:nonzero;stroke:rgb(178,178,179);stroke-width:0.5px;"/>
            <path d="M25.11,68.38C21.57,66.36 18.54,65.68 16.02,66.36L13.9,61.76L22.13,59.12L23.72,61.04C23.34,62.59 23.82,65.04 25.11,68.38Z" style="fill:rgb(173,69,131);"/>
            <path d="M25.11,68.38C21.57,66.36 18.54,65.68 16.02,66.36L13.9,61.76L22.13,59.12L23.72,61.04C23.34,62.59 23.82,65.04 25.11,68.38Z" style="fill:none;fill-rule:nonzero;stroke:rgb(178,178,179);stroke-width:0.5px;"/>
            <path d="M15.98,66.31C12.99,66.92 11.76,68.9 11.22,72.33C14.48,71.31 17.81,70.83 20.99,72.53L23.52,67.53C20.99,66.31 18.47,65.85 15.98,66.31Z" style="fill:rgb(173,69,131);"/>
            <path d="M15.98,66.31C12.99,66.92 11.76,68.9 11.22,72.33C14.48,71.31 17.81,70.83 20.99,72.53L23.52,67.53C20.99,66.31 18.47,65.85 15.98,66.31Z" style="fill:none;fill-rule:nonzero;stroke:rgb(178,178,179);stroke-width:0.5px;"/>
            <path d="M29.23,76.4C28.12,76.93 27.1,77.57 26.1,78.24C24.38,75.59 22.73,73.74 20.99,72.54L23.52,67.59L25.25,68.4L29.23,76.4Z" style="fill:rgb(173,69,131);"/>
            <path d="M29.23,76.4C28.12,76.93 27.1,77.57 26.1,78.24C24.38,75.59 22.73,73.74 20.99,72.54L23.52,67.59L25.25,68.4L29.23,76.4Z" style="fill:none;fill-rule:nonzero;stroke:rgb(178,178,179);stroke-width:0.5px;"/>
            <path d="M26.06,78.18C24.04,76.33 21.98,74.61 19.65,73.84L17.29,79.94C18.86,80.17 20.54,81.1 21.82,82.34C23.24,80.82 24.58,79.42 26.06,78.18Z" style="fill:rgb(173,69,131);"/>
            <path d="M26.06,78.18C24.04,76.33 21.98,74.61 19.65,73.84L17.29,79.94C18.86,80.17 20.54,81.1 21.82,82.34C23.24,80.82 24.58,79.42 26.06,78.18Z" style="fill:none;fill-rule:nonzero;stroke:rgb(178,178,179);stroke-width:0.5px;"/>
            <path d="M19.64,73.84C13.55,72.98 10.67,76.02 9.72,81.42C12.16,80.45 14.68,79.92 17.29,79.91L19.64,73.84Z" style="fill:rgb(173,69,131);"/>
            <path d="M19.64,73.84C13.55,72.98 10.67,76.02 9.72,81.42C12.16,80.45 14.68,79.92 17.29,79.91L19.64,73.84Z" style="fill:none;fill-rule:nonzero;stroke:rgb(178,178,179);stroke-width:0.5px;"/>
            <clipPath id="_clip81">
                <rect x="0" y="1.38" width="121.25" height="148.62"/>
            </clipPath>
            <g clip-path="url(#_clip81)">
                <path d="M77.98,147L68.23,142.55L64.29,151.53L74.01,155.82L77.98,147Z" style="fill:rgb(173,69,131);"/>
            </g>
            <clipPath id="_clip82">
                <rect x="0" y="1.38" width="121.25" height="148.62"/>
            </clipPath>
            <g clip-path="url(#_clip82)">
                <path d="M77.98,147L68.23,142.55L64.29,151.53L74.01,155.82L77.98,147Z" style="fill:none;fill-rule:nonzero;stroke:rgb(178,178,179);stroke-width:0.5px;"/>
            </g>
            <path d="M81.68,138.8L71.98,134.6L68.29,142.52L77.99,147L81.68,138.8Z" style="fill:rgb(173,69,131);"/>
            <clipPath id="_clip83">
                <rect x="0" y="1.38" width="121.25" height="148.62"/>
            </clipPath>
            <g clip-path="url(#_clip83)">
                <path d="M81.68,138.8L71.98,134.6L68.29,142.52L77.99,147L81.68,138.8Z" style="fill:none;fill-rule:nonzero;stroke:rgb(178,178,179);stroke-width:0.5px;"/>
            </g>
            <path d="M84.9,131.67L75.06,127.4L71.98,134.48L81.7,138.76L84.9,131.67Z" style="fill:rgb(173,69,131);"/>
            <path d="M84.9,131.67L75.06,127.4L71.98,134.48L81.7,138.76L84.9,131.67Z" style="fill:none;fill-rule:nonzero;stroke:rgb(178,178,179);stroke-width:0.5px;"/>
            <path d="M88.26,124.21L78.42,119.83L75.13,127.37L84.89,131.69L88.26,124.21Z" style="fill:rgb(173,69,131);"/>
            <path d="M88.26,124.21L78.42,119.83L75.13,127.37L84.89,131.69L88.26,124.21Z" style="fill:none;fill-rule:nonzero;stroke:rgb(178,178,179);stroke-width:0.5px;"/>
            <path d="M91.79,116.38L81.95,112L81.51,112.97L82.4,114.71L80.23,115.56L78.36,119.83L88.26,124.21L91.79,116.38Z" style="fill:rgb(173,69,131);"/>
            <path d="M91.79,116.38L81.95,112L81.51,112.97L82.4,114.71L80.23,115.56L78.36,119.83L88.26,124.21L91.79,116.38Z" style="fill:none;fill-rule:nonzero;stroke:rgb(178,178,179);stroke-width:0.5px;"/>
            <path d="M95.48,108.23L85.56,104.06L81.98,112.01L91.81,116.36L95.48,108.23Z" style="fill:rgb(173,69,131);"/>
            <path d="M95.48,108.23L85.56,104.06L81.98,112.01L91.81,116.36L95.48,108.23Z" style="fill:none;fill-rule:nonzero;stroke:rgb(178,178,179);stroke-width:0.5px;"/>
            <path d="M99.32,99.71L89.48,95.37L85.58,104.02L95.47,108.24L99.32,99.71Z" style="fill:rgb(173,69,131);"/>
            <path d="M99.32,99.71L89.48,95.37L85.58,104.02L95.47,108.24L99.32,99.71Z" style="fill:none;fill-rule:nonzero;stroke:rgb(178,178,179);stroke-width:0.5px;"/>
            <path d="M102.74,92.13L92.94,87.61L89.52,95.19L99.33,99.68L102.74,92.13Z" style="fill:rgb(173,69,131);"/>
            <path d="M102.74,92.13L92.94,87.61L89.52,95.19L99.33,99.68L102.74,92.13Z" style="fill:none;fill-rule:nonzero;stroke:rgb(178,178,179);stroke-width:0.5px;"/>
            <path d="M105.92,85.09L96.29,80.4L96.31,80.45L92.95,87.57L102.72,92.16L105.92,85.09Z" style="fill:rgb(173,69,131);"/>
            <path d="M105.92,85.09L96.29,80.4L96.31,80.45L92.95,87.57L102.72,92.16L105.92,85.09Z" style="fill:none;fill-rule:nonzero;stroke:rgb(178,178,179);stroke-width:0.5px;"/>
            <path d="M109.1,78.04L99.45,73.39L96.29,80.4L105.9,85.13L109.1,78.04Z" style="fill:rgb(173,69,131);"/>
            <path d="M109.1,78.04L99.45,73.39L96.29,80.4L105.9,85.13L109.1,78.04Z" style="fill:none;fill-rule:nonzero;stroke:rgb(178,178,179);stroke-width:0.5px;"/>
            <path d="M113.46,68.36L104.03,64.11C103.93,64.38 103.74,64.51 103.07,65.46L99.41,73.47L109.11,77.99L113.46,68.36Z" style="fill:rgb(173,69,131);"/>
            <path d="M113.46,68.36L104.03,64.11C103.93,64.38 103.74,64.51 103.07,65.46L99.41,73.47L109.11,77.99L113.46,68.36Z" style="fill:none;fill-rule:nonzero;stroke:rgb(178,178,179);stroke-width:0.5px;"/>
            <clipPath id="_clip84">
                <rect x="0" y="1.38" width="121.25" height="148.62"/>
            </clipPath>
            <g clip-path="url(#_clip84)">
                <path d="M6.04,8.13L-3.04,4.02L-7.43,13.79L1.67,17.83L6.04,8.13Z" style="fill:rgb(173,69,131);"/>
            </g>
            <clipPath id="_clip85">
                <rect x="0" y="1.38" width="121.25" height="148.62"/>
            </clipPath>
            <g clip-path="url(#_clip85)">
                <path d="M6.04,8.13L-3.04,4.02L-7.43,13.79L1.67,17.83L6.04,8.13Z" style="fill:none;fill-rule:nonzero;stroke:rgb(178,178,179);stroke-width:0.5px;"/>
            </g>
            <path d="M12.11,10.85L7.69,20.62L1.73,17.85L6.03,8.11L12.11,10.85Z" style="fill:rgb(173,69,131);"/>
            <clipPath id="_clip86">
                <rect x="0" y="1.38" width="121.25" height="148.62"/>
            </clipPath>
            <g clip-path="url(#_clip86)">
                <path d="M12.11,10.85L7.69,20.62L1.73,17.85L6.03,8.11L12.11,10.85Z" style="fill:none;fill-rule:nonzero;stroke:rgb(178,178,179);stroke-width:0.5px;"/>
            </g>
            <path d="M19.54,14.2L15.23,24.01L7.67,20.68L12.12,10.86L19.54,14.2Z" style="fill:rgb(173,69,131);"/>
            <path d="M19.54,14.2L15.23,24.01L7.67,20.68L12.12,10.86L19.54,14.2Z" style="fill:none;fill-rule:nonzero;stroke:rgb(178,178,179);stroke-width:0.5px;"/>
            <path d="M26.79,17.48L22.48,27.21L15.23,24.01L19.55,14.21L26.79,17.48Z" style="fill:rgb(173,69,131);"/>
            <path d="M26.79,17.48L22.48,27.21L15.23,24.01L19.55,14.21L26.79,17.48Z" style="fill:none;fill-rule:nonzero;stroke:rgb(178,178,179);stroke-width:0.5px;"/>
            <path d="M34.65,21.02L26.86,17.51L22.45,27.27L30.23,30.78L34.65,21.02Z" style="fill:rgb(173,69,131);"/>
            <path d="M34.65,21.02L26.86,17.51L22.45,27.27L30.23,30.78L34.65,21.02Z" style="fill:none;fill-rule:nonzero;stroke:rgb(178,178,179);stroke-width:0.5px;"/>
            <path d="M41.26,24.01L34.65,21.02L30.2,30.84L36.97,33.86L41.26,24.01Z" style="fill:rgb(173,69,131);"/>
            <path d="M41.26,24.01L34.65,21.02L30.2,30.84L36.97,33.86L41.26,24.01Z" style="fill:none;fill-rule:nonzero;stroke:rgb(178,178,179);stroke-width:0.5px;"/>
            <path d="M49.71,27.82L45.23,37.59L37,33.87L41.23,23.99L49.71,27.82Z" style="fill:rgb(173,69,131);"/>
            <path d="M49.71,27.82L45.23,37.59L37,33.87L41.23,23.99L49.71,27.82Z" style="fill:none;fill-rule:nonzero;stroke:rgb(178,178,179);stroke-width:0.5px;"/>
            <path d="M57.42,31.29L49.77,27.84L45.23,37.58L52.04,40.59C52.53,40.41 52.82,40.23 53.52,40.04L57.42,31.29Z" style="fill:rgb(173,69,131);"/>
            <path d="M57.42,31.29L49.77,27.84L45.23,37.58L52.04,40.59C52.53,40.41 52.82,40.23 53.52,40.04L57.42,31.29Z" style="fill:none;fill-rule:nonzero;stroke:rgb(178,178,179);stroke-width:0.5px;"/>
            <path d="M64.87,34.66L60.49,44.48L54.94,41.93C54.74,41.09 54.29,40.46 53.62,40.07L57.41,31.31L64.87,34.66Z" style="fill:rgb(173,69,131);"/>
            <path d="M64.87,34.66L60.49,44.48L54.94,41.93C54.74,41.09 54.29,40.46 53.62,40.07L57.41,31.31L64.87,34.66Z" style="fill:none;fill-rule:nonzero;stroke:rgb(178,178,179);stroke-width:0.5px;"/>
            <path d="M72.3,38.01L67.77,47.7L60.63,44.48L64.92,34.67L72.3,38.01Z" style="fill:rgb(173,69,131);"/>
            <path d="M72.3,38.01L67.77,47.7L60.63,44.48L64.92,34.67L72.3,38.01Z" style="fill:none;fill-rule:nonzero;stroke:rgb(178,178,179);stroke-width:0.5px;"/>
            <path d="M79.75,41.37L72.32,38.01L67.85,47.74L75.46,51.17L79.75,41.37Z" style="fill:rgb(173,69,131);"/>
            <path d="M79.75,41.37L72.32,38.01L67.85,47.74L75.46,51.17L79.75,41.37Z" style="fill:none;fill-rule:nonzero;stroke:rgb(178,178,179);stroke-width:0.5px;"/>
            <path d="M86.86,44.58L82.41,54.36L75.5,51.19L79.78,41.38L86.86,44.58Z" style="fill:rgb(173,69,131);"/>
            <path d="M86.86,44.58L82.41,54.36L75.5,51.19L79.78,41.38L86.86,44.58Z" style="fill:none;fill-rule:nonzero;stroke:rgb(178,178,179);stroke-width:0.5px;"/>
            <path d="M94.12,47.85L89.68,57.69L82.43,54.32L86.87,44.57L94.12,47.85Z" style="fill:rgb(173,69,131);"/>
            <path d="M94.12,47.85L89.68,57.69L82.43,54.32L86.87,44.57L94.12,47.85Z" style="fill:none;fill-rule:nonzero;stroke:rgb(178,178,179);stroke-width:0.5px;"/>
            <path d="M101.25,51.07L96.58,60.85L89.82,57.7L94.12,47.85L101.25,51.07Z" style="fill:rgb(173,69,131);"/>
            <path d="M101.25,51.07L96.58,60.85L89.82,57.7L94.12,47.85L101.25,51.07Z" style="fill:none;fill-rule:nonzero;stroke:rgb(178,178,179);stroke-width:0.5px;"/>
            <path d="M103.81,63.61L108.08,54.15L117.88,58.57L113.46,68.36L104.05,64.07L104.18,63.79L103.81,63.61Z" style="fill:rgb(173,69,131);"/>
            <clipPath id="_clip87">
                <rect x="0" y="1.38" width="121.25" height="148.62"/>
            </clipPath>
            <g clip-path="url(#_clip87)">
                <path d="M103.81,63.61L108.08,54.15L117.88,58.57L113.46,68.36L104.05,64.07L104.18,63.79L103.81,63.61Z" style="fill:none;fill-rule:nonzero;stroke:rgb(178,178,179);stroke-width:0.5px;"/>
            </g>
            <path d="M108.08,54.15L101.25,51.07L96.66,60.89L101.47,62.97C102.23,63.12 102.96,63.39 103.75,63.63L108.08,54.15Z" style="fill:rgb(173,69,131);"/>
            <path d="M108.08,54.15L101.25,51.07L96.66,60.89L101.47,62.97C102.23,63.12 102.96,63.39 103.75,63.63L108.08,54.15Z" style="fill:none;fill-rule:nonzero;stroke:rgb(178,178,179);stroke-width:0.5px;"/>
            <clipPath id="_clip88">
                <rect x="0" y="1.38" width="121.25" height="148.62"/>
            </clipPath>
            <g clip-path="url(#_clip88)">
                <path d="M18.68,159.29C17.91,156.5 16.26,153.27 14.83,150.18C11.91,151.42 8.06,152.78 4.69,153.04L18.68,159.29Z" style="fill:none;fill-rule:nonzero;stroke:rgb(178,178,179);stroke-width:0.5px;"/>
            </g>
            <clipPath id="_clip89">
                <rect x="0" y="1.38" width="121.25" height="148.62"/>
            </clipPath>
            <g clip-path="url(#_clip89)">
                <path d="M27.65,153.05C25.89,149.45 23.88,146.41 21.62,143.93C20.47,145.48 19.22,146.99 17.59,148.33C19.12,151.15 20.63,154.03 22.09,157.01C24.06,155.79 25.95,154.5 27.65,153.05Z" style="fill:rgb(173,69,131);"/>
            </g>
            <clipPath id="_clip90">
                <rect x="0" y="1.38" width="121.25" height="148.62"/>
            </clipPath>
            <g clip-path="url(#_clip90)">
                <path d="M27.65,153.05C25.89,149.45 23.88,146.41 21.62,143.93C20.47,145.48 19.22,146.99 17.59,148.33C19.12,151.15 20.63,154.03 22.09,157.01C24.06,155.79 25.95,154.5 27.65,153.05Z" style="fill:none;fill-rule:nonzero;stroke:rgb(178,178,179);stroke-width:0.5px;"/>
            </g>
            <clipPath id="_clip91">
                <rect x="0" y="1.38" width="121.25" height="148.62"/>
            </clipPath>
            <g clip-path="url(#_clip91)">
                <path d="M1.59,141.22C-2.05,139.72 -5.07,137.48 -7.28,134.36L-11.91,137.93C-9.66,141.18 -5.78,143.95 0.06,146.13L1.59,141.22Z" style="fill:rgb(173,69,131);"/>
            </g>
            <clipPath id="_clip92">
                <rect x="0" y="1.38" width="121.25" height="148.62"/>
            </clipPath>
            <g clip-path="url(#_clip92)">
                <path d="M1.59,141.22C-2.05,139.72 -5.07,137.48 -7.28,134.36L-11.91,137.93C-9.66,141.18 -5.78,143.95 0.06,146.13L1.59,141.22Z" style="fill:none;fill-rule:nonzero;stroke:rgb(178,178,179);stroke-width:0.5px;"/>
            </g>
            <path d="M12.6,145.55L10.02,140.84C7.28,141.9 4.43,141.9 1.5,141.18L0.1,146.16C5.85,147.59 10.22,147.61 12.6,145.55Z" style="fill:rgb(173,69,131);"/>
            <clipPath id="_clip93">
                <rect x="0" y="1.38" width="121.25" height="148.62"/>
            </clipPath>
            <g clip-path="url(#_clip93)">
                <path d="M12.6,145.55L10.02,140.84C7.28,141.9 4.43,141.9 1.5,141.18L0.1,146.16C5.85,147.59 10.22,147.61 12.6,145.55Z" style="fill:none;fill-rule:nonzero;stroke:rgb(178,178,179);stroke-width:0.5px;"/>
            </g>
            <path d="M19.06,134.86L13.82,135.08C13.49,137.48 12.28,139.59 10.06,140.85L12.56,145.63C16.78,143.15 18.85,139.44 19.06,134.86Z" style="fill:rgb(173,69,131);"/>
            <clipPath id="_clip94">
                <rect x="0" y="1.38" width="121.25" height="148.62"/>
            </clipPath>
            <g clip-path="url(#_clip94)">
                <path d="M19.06,134.86L13.82,135.08C13.49,137.48 12.28,139.59 10.06,140.85L12.56,145.63C16.78,143.15 18.85,139.44 19.06,134.86Z" style="fill:none;fill-rule:nonzero;stroke:rgb(178,178,179);stroke-width:0.5px;"/>
            </g>
            <path d="M12.17,131.49L9.39,125.21C4.84,124.57 -0.21,131.92 5.13,134.5C8.25,136.01 10.83,135.38 12.17,131.49Z" style="fill:rgb(173,69,131);"/>
            <clipPath id="_clip95">
                <rect x="0" y="1.38" width="121.25" height="148.62"/>
            </clipPath>
            <g clip-path="url(#_clip95)">
                <path d="M12.17,131.49L9.39,125.21C4.84,124.57 -0.21,131.92 5.13,134.5C8.25,136.01 10.83,135.38 12.17,131.49Z" style="fill:none;fill-rule:nonzero;stroke:rgb(178,178,179);stroke-width:0.5px;"/>
            </g>
        </g>
    </g>
</svg>
