<svg id="Vrstva_1" data-name="Vrstva 1" xmlns="http://www.w3.org/2000/svg" viewBox="0 0 495.39 495.39"><title>dlazka</title><path d="M470.27,321.56a2.48,2.48,0,0,1-1.78-4.22c6.58-6.76,8-41.6,8-69.64s-1.39-62.89-8-69.64a2.49,2.49,0,1,1,3.56-3.48c4,4.13,9.38,16.21,9.38,73.12s-5.35,69-9.38,73.11A2.48,2.48,0,0,1,470.27,321.56Z"/><path d="M127.49,296.27a2.5,2.5,0,0,1-2.31-1.57c-11.65-29.43-11.65-64.57,0-94a2.49,2.49,0,1,1,4.63,1.83c-11,27.86-11,62.47,0,90.33a2.5,2.5,0,0,1-2.32,3.41Z"/><path d="M293.78,130a2.44,2.44,0,0,1-.91-.17c-27.87-11-62.48-11-90.34,0a2.49,2.49,0,0,1-1.83-4.63c29.43-11.65,64.57-11.65,94,0a2.49,2.49,0,0,1-.92,4.8Z"/><path d="M367.9,296.27a2.49,2.49,0,0,1-2.31-3.41c11-27.86,11-62.47,0-90.33a2.48,2.48,0,1,1,4.62-1.83c11.65,29.43,11.65,64.57,0,94A2.49,2.49,0,0,1,367.9,296.27Z"/><path d="M247.7,379a128.19,128.19,0,0,1-47-8.74,2.48,2.48,0,1,1,1.83-4.62c27.86,11,62.47,11,90.33,0a2.49,2.49,0,0,1,1.84,4.62A128.27,128.27,0,0,1,247.7,379Z"/><path d="M247.7,474.38a160.27,160.27,0,0,1-24.29-1.51c-32.78-4.55-42.27-10.69-47.23-16.09-3.73-4.06-5.11-8.31-3.88-11.95,1.15-3.4,4.37-5.74,9.07-6.58a50.58,50.58,0,0,1,8.35-.49c6.78-.06,13.8-.12,16.37-5,3.68-6.93.26-25.51-5.17-39.46a77,77,0,0,0-7.42-14.43c-1.57-2.47-2.69-4.25-3.07-6.18a6.29,6.29,0,0,1,2-6.06c2.3-2,5.93-2.44,10-1.14a2.49,2.49,0,0,1-1.53,4.74c-2.69-.87-4.41-.51-5.13.13a1.33,1.33,0,0,0-.4,1.38,17.53,17.53,0,0,0,2.38,4.47,82.68,82.68,0,0,1,7.85,15.28c4.11,10.56,10.43,33.26,4.93,43.61-4,7.46-13.25,7.53-20.72,7.59a48.37,48.37,0,0,0-7.52.42c-2.83.5-4.68,1.67-5.23,3.27-.61,1.82.42,4.37,2.84,7,4.1,4.47,12.84,10.16,44.24,14.52a153.31,153.31,0,0,0,23.61,1.47,153.16,153.16,0,0,0,23.6-1.47c31.4-4.36,40.14-10.05,44.25-14.52,2.41-2.63,3.44-5.18,2.83-7-.54-1.6-2.4-2.77-5.23-3.27a48.3,48.3,0,0,0-7.52-.42c-7.46-.06-16.76-.13-20.72-7.59-5.49-10.36.82-33.05,4.93-43.61a82.35,82.35,0,0,1,7.85-15.28,18,18,0,0,0,2.39-4.47,1.37,1.37,0,0,0-.4-1.38c-.72-.64-2.44-1-5.13-.13a2.49,2.49,0,0,1-1.54-4.74c4-1.3,7.67-.89,10,1.14a6.29,6.29,0,0,1,2,6.06c-.37,1.93-1.5,3.71-3.06,6.18a76.44,76.44,0,0,0-7.42,14.43c-5.43,14-8.85,32.53-5.17,39.46,2.57,4.84,9.58,4.9,16.36,5a50.77,50.77,0,0,1,8.36.49c4.7.84,7.92,3.18,9.06,6.58,1.23,3.64-.14,7.89-3.88,11.95-4.95,5.4-14.44,11.54-47.22,16.09A160.38,160.38,0,0,1,247.7,474.38Z"/><path d="M247.7,481.43c-56.91,0-69-5.35-73.12-9.38a2.49,2.49,0,0,1,3.48-3.56c6.75,6.58,41.6,8,69.64,8s62.88-1.39,69.64-8a2.49,2.49,0,1,1,3.47,3.56C316.68,476.08,304.61,481.43,247.7,481.43Z"/><path d="M198,130.61a8.18,8.18,0,0,1-5.54-1.89,6.29,6.29,0,0,1-2-6.06c.38-1.92,1.5-3.71,3.07-6.17a77.7,77.7,0,0,0,7.42-14.43c5.43-14,8.85-32.54,5.17-39.47-2.57-4.84-9.59-4.9-16.37-5a52.86,52.86,0,0,1-8.35-.49c-4.7-.85-7.92-3.18-9.07-6.58-1.23-3.65.15-7.89,3.88-12,5-5.4,14.45-11.53,47.23-16.08A158.58,158.58,0,0,1,247.7,21,158.58,158.58,0,0,1,272,22.53c32.78,4.55,42.27,10.68,47.22,16.08,3.74,4.06,5.11,8.31,3.89,12C322,54,318.73,56.3,314,57.15a53.07,53.07,0,0,1-8.36.49c-6.78,0-13.79.11-16.36,5-3.68,6.93-.26,25.51,5.17,39.47a77.09,77.09,0,0,0,7.42,14.43c1.56,2.47,2.69,4.25,3.06,6.17a6.29,6.29,0,0,1-2,6.06c-2.29,2-5.92,2.45-10,1.14a2.49,2.49,0,1,1,1.54-4.73c2.68.87,4.41.5,5.13-.14a1.37,1.37,0,0,0,.4-1.38,18,18,0,0,0-2.39-4.46,82.51,82.51,0,0,1-7.85-15.29c-4.11-10.55-10.42-33.25-4.93-43.6,4-7.46,13.26-7.54,20.72-7.6a48.41,48.41,0,0,0,7.52-.41c2.83-.51,4.69-1.67,5.23-3.28.61-1.81-.42-4.37-2.83-7-4.11-4.47-12.85-10.16-44.25-14.52A151.87,151.87,0,0,0,247.7,26a151.92,151.92,0,0,0-23.61,1.47c-31.4,4.36-40.14,10-44.24,14.52-2.42,2.62-3.45,5.18-2.84,7,.55,1.61,2.4,2.77,5.23,3.28a48.48,48.48,0,0,0,7.52.41c7.47.06,16.76.14,20.72,7.6,5.5,10.35-.82,33.05-4.93,43.6a82.51,82.51,0,0,1-7.85,15.29,17.51,17.51,0,0,0-2.38,4.46,1.33,1.33,0,0,0,.4,1.38c.72.64,2.44,1,5.13.14a2.49,2.49,0,1,1,1.53,4.73A14.48,14.48,0,0,1,198,130.61Z"/><path d="M176.32,27.61a2.46,2.46,0,0,1-1.78-.75,2.49,2.49,0,0,1,0-3.52c4.13-4,16.21-9.38,73.12-9.38s69,5.36,73.11,9.38a2.49,2.49,0,0,1-3.47,3.57c-6.76-6.59-41.6-8-69.64-8s-62.89,1.38-69.64,8A2.51,2.51,0,0,1,176.32,27.61Z"/><path d="M47.87,323.53c-3,0-6.16-1.47-9.26-4.32-5.4-4.95-11.53-14.44-16.08-47.22A158.58,158.58,0,0,1,21,247.7a158.58,158.58,0,0,1,1.52-24.29c4.55-32.78,10.68-42.27,16.08-47.23,4.06-3.73,8.31-5.11,12-3.88,3.4,1.15,5.73,4.37,6.58,9.07a52.86,52.86,0,0,1,.49,8.35c0,6.78.11,13.8,5,16.37,6.93,3.68,25.51.26,39.47-5.17a77.37,77.37,0,0,0,14.43-7.42c2.47-1.57,4.25-2.69,6.17-3.07a6.29,6.29,0,0,1,6.06,2c2,2.3,2.45,5.93,1.14,10a2.49,2.49,0,1,1-4.73-1.53c.87-2.69.5-4.41-.14-5.13a1.33,1.33,0,0,0-1.38-.4,17.51,17.51,0,0,0-4.46,2.38,82.51,82.51,0,0,1-15.29,7.85c-10.55,4.11-33.25,10.42-43.6,4.93-7.46-4-7.54-13.25-7.6-20.72a48.48,48.48,0,0,0-.41-7.52c-.51-2.83-1.67-4.68-3.28-5.23-1.82-.61-4.37.42-7,2.84-4.47,4.1-10.16,12.84-14.52,44.24A151.92,151.92,0,0,0,26,247.7a151.87,151.87,0,0,0,1.47,23.6c4.36,31.4,10,40.14,14.52,44.25,2.63,2.41,5.18,3.44,7,2.83,1.61-.54,2.77-2.4,3.28-5.23a48.41,48.41,0,0,0,.41-7.52c.06-7.47.14-16.76,7.6-20.72,10.35-5.49,33.05.82,43.6,4.93a82.51,82.51,0,0,1,15.29,7.85,17.63,17.63,0,0,0,4.46,2.39,1.37,1.37,0,0,0,1.38-.4c.64-.72,1-2.45.14-5.13a2.49,2.49,0,1,1,4.73-1.54c1.31,4,.89,7.67-1.14,10a6.29,6.29,0,0,1-6.06,2c-1.92-.37-3.7-1.5-6.17-3.06a76.76,76.76,0,0,0-14.43-7.42c-14-5.43-32.54-8.85-39.47-5.17-4.84,2.57-4.9,9.58-5,16.36a53.07,53.07,0,0,1-.49,8.36c-.85,4.7-3.18,7.92-6.58,9.07A8.52,8.52,0,0,1,47.87,323.53Z"/><path d="M25.12,321.56a2.49,2.49,0,0,1-1.78-.75c-4-4.13-9.38-16.2-9.38-73.11s5.35-69,9.38-73.12a2.49,2.49,0,0,1,3.57,3.48c-6.59,6.75-8,41.6-8,69.64s1.38,62.88,8,69.64a2.5,2.5,0,0,1-.05,3.52A2.47,2.47,0,0,1,25.12,321.56Z"/><path d="M91.62,387.27a2.48,2.48,0,0,1-2.29-3.44,16.87,16.87,0,0,1,27.41-5.09,2.49,2.49,0,1,1-3.61,3.43,12,12,0,0,0-10.47-3.25l-.13,0a12,12,0,0,0-8.61,6.79A2.47,2.47,0,0,1,91.62,387.27Z"/><path d="M94.59,403.29a2.49,2.49,0,0,1-2.44-2l-3-16a2.49,2.49,0,1,1,4.89-.91l3,16a2.49,2.49,0,0,1-2,2.9A2.4,2.4,0,0,1,94.59,403.29Z"/><path d="M91.63,387.27a2.5,2.5,0,0,1-2.3-1.51c-2.68-6.32-4.23-22.75,4.33-32.14,7.06-7.75,18.79-9.08,34.86-3.94a2.49,2.49,0,0,1-1.52,4.74c-14-4.49-24-3.63-29.66,2.55-7.2,7.9-5.39,22.21-3.42,26.84a2.51,2.51,0,0,1-1.32,3.27A2.58,2.58,0,0,1,91.63,387.27Z"/><path d="M67.53,393.6a17.44,17.44,0,0,1-2.36-.16c-9.71-1.23-21.41-10.26-31.32-24.15-12.58-17.63-16.32-34.78-11.09-51a2.49,2.49,0,1,1,4.73,1.53c-4.71,14.61-1.21,30.28,10.41,46.56,9,12.59,19.67,21.06,27.9,22.11,5.73.73,12.58-2.58,15-11.62,1.06-4,.84-8.53.62-13.3a63.16,63.16,0,0,1,.21-12.14c1.61-10.9,8.5-18,18.91-19.42,7.09-1,17.11.51,23.51,6.08a18,18,0,0,1,6.25,13.94,2.49,2.49,0,0,1-5,0,12.89,12.89,0,0,0-4.54-10.18c-5.22-4.55-13.58-5.74-19.56-4.91-10.48,1.45-13.76,9.08-14.66,15.21a58.39,58.39,0,0,0-.17,11.19c.23,4.93.47,10-.78,14.79C83.54,385.87,77.12,393.6,67.53,393.6Z"/><path d="M57.26,364.32a23.7,23.7,0,0,1-11.7-3c-9.5-5.39-17.42-18.8-13.37-33.06A2.48,2.48,0,0,1,37,329.58C33.74,341,40.05,352.44,48,357s17.52,2.17,21.47-2.84c2.56-3.24,3.17-8,3.82-13a54.81,54.81,0,0,1,1.93-10c3.37-10.21,11.78-15.23,25-15,6.52.14,16,1.63,24.24,7.94,9.08,7,14.47,18.09,16,33.06a2.49,2.49,0,0,1-4.95.51c-1.39-13.39-7.85-35.95-35.42-36.53-10.94-.23-17.54,3.55-20.17,11.55a49.7,49.7,0,0,0-1.73,9.09c-.7,5.48-1.43,11.14-4.84,15.46C69.72,361.83,63.61,364.32,57.26,364.32Z"/><path d="M154,343.84a2.48,2.48,0,0,1-1.73-.71c-14.19-13.79-35.86-31.2-58.57-35.79-10.31-2.09-16.1-.71-17.21,4.1a23.9,23.9,0,0,0-.21,5.75c.16,4.73.36,10.61-3.74,16.1a21.49,21.49,0,0,1-15.49,8.45c-5.56.42-14.28-1.17-24.26-11.07a2.49,2.49,0,1,1,3.5-3.53c6.85,6.79,13.89,10.12,20.39,9.64a16.47,16.47,0,0,0,11.87-6.46c3.06-4.09,2.9-8.6,2.75-13a27.94,27.94,0,0,1,.34-7c1.26-5.47,6.27-11.27,23-7.87,18.91,3.82,40,16.66,61.05,37.11a2.49,2.49,0,0,1-1.74,4.27Z"/><path d="M59.15,285.72a2.49,2.49,0,0,1-2.42-1.9,152.87,152.87,0,0,1-3.18-17.13,2.49,2.49,0,0,1,4.94-.62,146,146,0,0,0,3.08,16.57,2.5,2.5,0,0,1-1.83,3A2.44,2.44,0,0,1,59.15,285.72Z"/><path d="M39.18,296.59a2.5,2.5,0,0,1-2.4-1.81,173.45,173.45,0,0,1-4.93-23.31,2.48,2.48,0,1,1,4.92-.69,170.08,170.08,0,0,0,4.8,22.64,2.48,2.48,0,0,1-1.71,3.07A2.33,2.33,0,0,1,39.18,296.59Z"/><path d="M33.38,265.55a2.5,2.5,0,0,1-2.48-2.26c-.46-5.18-.68-10.42-.65-15.61a2.49,2.49,0,1,1,5,0c0,5,.19,10.12.64,15.13a2.49,2.49,0,0,1-2.25,2.7Z"/><path d="M55.31,261.92a2.49,2.49,0,0,1-2.48-2.3c-.3-4-.44-8-.42-11.94a2.46,2.46,0,0,1,2.5-2.47,2.49,2.49,0,0,1,2.47,2.5c0,3.83.12,7.71.42,11.53a2.49,2.49,0,0,1-2.29,2.67Z"/><path d="M33.38,265.55a2.49,2.49,0,0,1-.4-4.94L54.91,257a2.49,2.49,0,0,1,.81,4.91l-21.93,3.63A2.83,2.83,0,0,1,33.38,265.55Z"/><path d="M34.31,273.61a2.49,2.49,0,0,1-.53-4.92L55.49,264a2.49,2.49,0,1,1,1.06,4.86l-21.71,4.75A2.44,2.44,0,0,1,34.31,273.61Z"/><path d="M39.18,296.59A2.49,2.49,0,0,1,38,291.91L58,281a2.49,2.49,0,1,1,2.38,4.38l-20,10.86A2.46,2.46,0,0,1,39.18,296.59Z"/><path d="M110.61,406.26a2.49,2.49,0,0,1-1-4.79,12,12,0,0,0,6.8-8.61s0-.08,0-.12a12,12,0,0,0-3.25-10.48,2.49,2.49,0,1,1,3.43-3.6,16.87,16.87,0,0,1-5.09,27.41A2.44,2.44,0,0,1,110.61,406.26Z"/><path d="M110.61,406.26a3.42,3.42,0,0,1-.45,0l-16-3a2.49,2.49,0,1,1,.91-4.89l16,3a2.49,2.49,0,0,1-.45,4.94Z"/><path d="M122.2,408.18a34.47,34.47,0,0,1-12.56-2.12,2.49,2.49,0,0,1,1.94-4.58c4.64,2,19,3.78,26.85-3.43,6.18-5.63,7-15.61,2.55-29.66a2.49,2.49,0,1,1,4.74-1.51c5.13,16.06,3.8,27.79-3.94,34.85C136.47,406.57,128.91,408.18,122.2,408.18Z"/><path d="M162.66,474.93c-11.83,0-24.07-4.48-36.56-13.38-13.88-9.91-22.91-21.62-24.15-31.33-1.39-10.89,7-18.21,15.3-20.39,4.76-1.25,9.86-1,14.79-.78a58.32,58.32,0,0,0,11.18-.16c6.14-.91,13.76-4.19,15.22-14.67.83-6-.37-14.34-4.91-19.56a13,13,0,0,0-10.18-4.54,2.49,2.49,0,1,1,0-5,18,18,0,0,1,13.93,6.24c5.57,6.41,7.07,16.43,6.09,23.52-1.45,10.4-8.53,17.29-19.42,18.9a63.27,63.27,0,0,1-12.15.21c-4.76-.22-9.26-.43-13.3.62-9,2.37-12.34,9.22-11.61,15,1,8.22,9.52,18.92,22.1,27.9,16.28,11.61,31.95,15.11,46.57,10.4a2.49,2.49,0,1,1,1.52,4.74A46.89,46.89,0,0,1,162.66,474.93Z"/><path d="M159.44,464.29a29.91,29.91,0,0,1-25.33-14.45c-5.31-9.37-3.48-21.86,4.1-27.84,4.32-3.41,10-4.13,15.46-4.84a50,50,0,0,0,9.09-1.73c8-2.63,11.77-9.23,11.54-20.16-.57-27.58-23.13-34-36.53-35.43a2.49,2.49,0,0,1,.51-4.95c15,1.56,26.09,6.95,33.06,16,6.31,8.23,7.8,17.73,7.94,24.24.28,13.23-4.76,21.64-15,25a55.1,55.1,0,0,1-10,1.94c-5,.64-9.77,1.25-13,3.81-5,4-7.36,13.53-2.85,21.47s16,14.27,27.37,11a2.49,2.49,0,0,1,1.36,4.79A28.37,28.37,0,0,1,159.44,464.29Z"/><path d="M229,441.86a1.72,1.72,0,0,1-.32,0,151.05,151.05,0,0,1-17.13-3.18,2.49,2.49,0,0,1,1.19-4.83,145.18,145.18,0,0,0,16.57,3.07,2.49,2.49,0,0,1-.31,5Z"/><path d="M224.27,463.57a2.11,2.11,0,0,1-.35,0,173.68,173.68,0,0,1-23.3-4.94,2.49,2.49,0,1,1,1.36-4.79,168.71,168.71,0,0,0,22.63,4.8,2.49,2.49,0,0,1-.34,4.95Z"/><path d="M246.82,465.15c-4.89,0-9.84-.22-14.71-.66a2.49,2.49,0,0,1,.44-5c5,.45,10.11.67,15.13.64h0a2.49,2.49,0,0,1,0,5Z"/><path d="M246.92,443c-3.71,0-7.45-.15-11.15-.43a2.49,2.49,0,1,1,.38-5c3.83.29,7.71.43,11.53.41a2.49,2.49,0,1,1,0,5Z"/><path d="M232.33,464.5l-.41,0a2.49,2.49,0,0,1-2-2.86l3.63-21.94a2.49,2.49,0,1,1,4.91.82l-3.63,21.93A2.5,2.5,0,0,1,232.33,464.5Z"/><path d="M224.27,463.57a2.44,2.44,0,0,1-.53-.05,2.49,2.49,0,0,1-1.9-3l4.74-21.71a2.49,2.49,0,0,1,4.87,1.06l-4.75,21.72A2.48,2.48,0,0,1,224.27,463.57Z"/><path d="M201.29,458.7a2.38,2.38,0,0,1-1.18-.3,2.48,2.48,0,0,1-1-3.37l10.87-20a2.49,2.49,0,0,1,4.37,2.37l-10.87,20A2.47,2.47,0,0,1,201.29,458.7Z"/><path d="M104.66,121.65a14.6,14.6,0,0,1-3-.3,17,17,0,0,1-12.36-9.79,2.49,2.49,0,1,1,4.59-1.91,12,12,0,0,0,8.61,6.8l.13,0a12,12,0,0,0,10.47-3.25,2.49,2.49,0,1,1,3.61,3.43A17.13,17.13,0,0,1,104.66,121.65Z"/><path d="M91.63,113.1a3.57,3.57,0,0,1-.46,0,2.49,2.49,0,0,1-2-2.9l3-16a2.49,2.49,0,1,1,4.89.91l-3,16A2.49,2.49,0,0,1,91.63,113.1Z"/><path d="M111.42,148.78c-7.56,0-13.51-2.34-17.76-7-8.56-9.39-7-25.83-4.33-32.14a2.49,2.49,0,0,1,4.59,1.94c-2,4.64-3.78,18.94,3.42,26.85,5.63,6.18,15.61,7,29.66,2.55a2.49,2.49,0,1,1,1.52,4.74A57.07,57.07,0,0,1,111.42,148.78Z"/><path d="M25.12,178.81a2.48,2.48,0,0,1-2.36-1.73c-5.23-16.19-1.49-33.35,11.09-51,9.91-13.88,21.61-22.91,31.32-24.15,10.9-1.39,18.21,7,20.39,15.3,1.25,4.76,1,9.86.78,14.78a58.39,58.39,0,0,0,.17,11.19c.9,6.14,4.18,13.76,14.66,15.22,6,.83,14.34-.37,19.56-4.91a12.92,12.92,0,0,0,4.54-10.18,2.49,2.49,0,0,1,5,0A17.94,17.94,0,0,1,124,157.28c-6.4,5.57-16.42,7.07-23.51,6.09-10.41-1.45-17.3-8.53-18.91-19.42a63.27,63.27,0,0,1-.21-12.15c.22-4.76.44-9.27-.62-13.3-2.37-9-9.22-12.35-15-11.61-8.23,1-18.92,9.52-27.9,22.1-11.62,16.28-15.12,31.95-10.41,46.57a2.49,2.49,0,0,1-1.6,3.13A2.58,2.58,0,0,1,25.12,178.81Z"/><path d="M99.2,179.29c-12.63,0-20.69-5-24-15a55.08,55.08,0,0,1-1.93-10c-.65-5-1.26-9.77-3.82-13-4-5-13.52-7.36-21.47-2.85s-14.27,16-11,27.37a2.48,2.48,0,1,1-4.78,1.36c-4-14.25,3.87-27.67,13.37-33.06s21.86-3.48,27.83,4.1c3.41,4.32,4.14,10,4.84,15.45a50,50,0,0,0,1.73,9.1c2.63,8,9.23,11.78,20.17,11.54,27.57-.57,34-23.13,35.42-36.53a2.49,2.49,0,0,1,4.95.51c-1.56,15-6.95,26.09-16,33.06-8.22,6.31-17.72,7.8-24.24,7.94Z"/><path d="M85.76,194c-9.72,0-13.08-4.55-14.08-8.88a28,28,0,0,1-.34-7c.15-4.36.31-8.86-2.75-13a16.51,16.51,0,0,0-11.87-6.46c-6.49-.48-13.54,2.85-20.39,9.65a2.49,2.49,0,0,1-3.5-3.54c10-9.9,18.71-11.48,24.26-11.07a21.53,21.53,0,0,1,15.49,8.45c4.1,5.49,3.9,11.38,3.74,16.1a23.9,23.9,0,0,0,.21,5.75c1.11,4.82,6.9,6.2,17.21,4.11,22.71-4.6,44.38-22,58.57-35.8a2.49,2.49,0,0,1,3.47,3.57c-21,20.45-42.14,33.28-61,37.11A45.71,45.71,0,0,1,85.76,194Z"/><path d="M56,231.5a1.62,1.62,0,0,1-.31,0,2.49,2.49,0,0,1-2.16-2.78,153.3,153.3,0,0,1,3.18-17.13,2.49,2.49,0,0,1,4.84,1.19,145.22,145.22,0,0,0-3.08,16.57A2.49,2.49,0,0,1,56,231.5Z"/><path d="M34.31,226.76l-.35,0a2.48,2.48,0,0,1-2.11-2.81,173.64,173.64,0,0,1,4.93-23.3A2.49,2.49,0,1,1,41.57,202a169.94,169.94,0,0,0-4.8,22.63A2.49,2.49,0,0,1,34.31,226.76Z"/><path d="M32.73,250.19a2.49,2.49,0,0,1-2.48-2.48c0-5.18.19-10.43.65-15.6a2.49,2.49,0,1,1,5,.44c-.45,5-.66,10.11-.64,15.13a2.49,2.49,0,0,1-2.47,2.51Z"/><path d="M54.9,250.19a2.49,2.49,0,0,1-2.49-2.48c0-4,.12-8,.42-11.94a2.49,2.49,0,0,1,5,.38c-.3,3.82-.44,7.7-.42,11.53a2.49,2.49,0,0,1-2.47,2.51Z"/><path d="M55.32,238.45a2.83,2.83,0,0,1-.41,0L33,234.79a2.49,2.49,0,1,1,.81-4.91l21.93,3.63a2.49,2.49,0,0,1-.4,4.94Z"/><path d="M56,231.5a3.27,3.27,0,0,1-.53-.05L33.78,226.7a2.49,2.49,0,1,1,1.06-4.86l21.71,4.74A2.49,2.49,0,0,1,56,231.5Z"/><path d="M59.15,214.65a2.45,2.45,0,0,1-1.19-.3L38,203.48a2.49,2.49,0,1,1,2.38-4.37l20,10.87a2.49,2.49,0,0,1-1.19,4.67Z"/><path d="M114.94,117.42a2.49,2.49,0,0,1-1.72-4.29,12,12,0,0,0,3.25-10.47s0-.08,0-.13a12,12,0,0,0-6.8-8.61,2.49,2.49,0,1,1,1.91-4.59,16.87,16.87,0,0,1,5.09,27.41A2.46,2.46,0,0,1,114.94,117.42Z"/><path d="M94.59,97.09a2.49,2.49,0,0,1-.45-4.94l16-3a2.49,2.49,0,1,1,.9,4.89l-16,3A2.4,2.4,0,0,1,94.59,97.09Z"/><path d="M143.35,130.25A2.49,2.49,0,0,1,141,127c4.48-14,3.63-24-2.55-29.66-7.91-7.2-22.21-5.39-26.85-3.42a2.49,2.49,0,0,1-1.94-4.59c6.31-2.68,22.75-4.23,32.14,4.33,7.74,7.06,9.07,18.79,3.94,34.86A2.5,2.5,0,0,1,143.35,130.25Z"/><path d="M143.35,130.25a2.49,2.49,0,1,1,0-5,12.92,12.92,0,0,0,10.18-4.54c4.54-5.22,5.74-13.58,4.91-19.56-1.46-10.48-9.08-13.76-15.22-14.66A58.39,58.39,0,0,0,132,86.34c-4.92.23-10,.47-14.78-.78-8.34-2.18-16.69-9.49-15.3-20.39,1.24-9.71,10.27-21.41,24.15-31.32,17.63-12.58,34.79-16.32,51-11.09a2.48,2.48,0,1,1-1.52,4.73C160.94,22.78,145.27,26.28,129,37.9c-12.58,9-21.05,19.67-22.1,27.9-.73,5.74,2.57,12.58,11.61,15,4,1,8.54.84,13.3.62a63.27,63.27,0,0,1,12.15.21c10.89,1.61,18,8.5,19.42,18.91,1,7.09-.52,17.11-6.09,23.51A17.94,17.94,0,0,1,143.35,130.25Z"/><path d="M138,140.51a2.49,2.49,0,0,1-.25-5c13.4-1.39,36-7.85,36.53-35.42.23-10.94-3.54-17.53-11.54-20.17a50,50,0,0,0-9.09-1.73c-5.48-.7-11.14-1.43-15.46-4.84-7.58-6-9.41-18.46-4.1-27.83s18.81-17.42,33.06-13.37A2.48,2.48,0,0,1,165.81,37c-11.38-3.23-22.85,3.08-27.37,11s-2.16,17.52,2.85,21.47c3.24,2.56,8,3.17,13,3.82a55.08,55.08,0,0,1,10,1.93c10.2,3.37,15.24,11.78,15,25-.14,6.52-1.63,16-7.94,24.24-7,9.08-18.09,14.47-33.06,16Z"/><path d="M154,156.53a2.48,2.48,0,0,1-1.78-4.22c13.79-14.19,31.2-35.86,35.8-58.57,2.09-10.31.71-16.1-4.11-17.21a23.9,23.9,0,0,0-5.75-.21c-4.73.16-10.61.36-16.1-3.74a21.53,21.53,0,0,1-8.45-15.49c-.41-5.56,1.17-14.28,11.07-24.26a2.49,2.49,0,0,1,3.54,3.5c-6.8,6.85-10.13,13.9-9.65,20.39a16.51,16.51,0,0,0,6.46,11.87c4.1,3.06,8.6,2.9,13,2.75a28,28,0,0,1,7,.34c5.46,1.26,11.26,6.27,7.87,23-3.83,18.91-16.66,40-37.11,61.05A2.5,2.5,0,0,1,154,156.53Z"/><path d="M201.29,41.67a2.49,2.49,0,0,1-.67-4.89,174.91,174.91,0,0,1,23.3-4.94,2.49,2.49,0,0,1,.69,4.93A169.61,169.61,0,0,0,202,41.57,2.35,2.35,0,0,1,201.29,41.67Z"/><path d="M232.33,35.87a2.49,2.49,0,0,1-.22-5c5.17-.46,10.42-.68,15.6-.65a2.49,2.49,0,1,1,0,5c-5,0-10.11.19-15.13.64Z"/><path d="M236,57.8a2.49,2.49,0,0,1-.19-5c4-.3,8-.44,11.94-.42a2.49,2.49,0,1,1,0,5h0c-3.82,0-7.7.12-11.53.42Z"/><path d="M236,57.8a2.48,2.48,0,0,1-2.45-2.08l-3.63-21.93a2.49,2.49,0,1,1,4.91-.81l3.63,21.93a2.5,2.5,0,0,1-2,2.86Z"/><path d="M229,58.51a2.49,2.49,0,0,1-2.43-2l-4.74-21.71a2.49,2.49,0,1,1,4.86-1.06l4.75,21.71a2.5,2.5,0,0,1-2.44,3Z"/><path d="M212.17,61.64a2.48,2.48,0,0,1-2.19-1.3l-10.87-20A2.49,2.49,0,1,1,203.48,38l10.87,20a2.49,2.49,0,0,1-2.18,3.68Z"/><path d="M447.53,323.53a8.22,8.22,0,0,1-2.7-.44c-3.4-1.14-5.74-4.36-6.58-9.06a50.77,50.77,0,0,1-.49-8.36c-.06-6.78-.12-13.79-5-16.36-6.93-3.68-25.51-.26-39.46,5.17a76.44,76.44,0,0,0-14.43,7.42c-2.47,1.56-4.25,2.69-6.18,3.06a6.29,6.29,0,0,1-6.06-2c-2-2.29-2.45-5.92-1.14-10a2.49,2.49,0,0,1,4.74,1.54c-.87,2.68-.51,4.41.13,5.13a1.37,1.37,0,0,0,1.38.4,18,18,0,0,0,4.47-2.39,82.35,82.35,0,0,1,15.28-7.85c10.56-4.11,33.25-10.42,43.61-4.93,7.46,4,7.53,13.26,7.59,20.72a48.3,48.3,0,0,0,.42,7.52c.5,2.83,1.67,4.69,3.27,5.23,1.82.61,4.37-.42,7-2.83,4.47-4.11,10.16-12.84,14.52-44.25a153.06,153.06,0,0,0,1.47-23.6,153.21,153.21,0,0,0-1.47-23.61c-4.36-31.4-10.05-40.14-14.52-44.24-2.63-2.42-5.18-3.45-7-2.84-1.6.55-2.77,2.4-3.27,5.23a48.37,48.37,0,0,0-.42,7.52c-.06,7.47-.13,16.76-7.59,20.72-10.36,5.49-33.05-.82-43.61-4.93a82.68,82.68,0,0,1-15.28-7.85,17.53,17.53,0,0,0-4.47-2.38,1.33,1.33,0,0,0-1.38.4c-.64.72-1,2.44-.13,5.13a2.49,2.49,0,0,1-4.74,1.53c-1.31-4-.89-7.66,1.14-10a6.29,6.29,0,0,1,6.06-2c1.93.38,3.71,1.5,6.18,3.07a77,77,0,0,0,14.43,7.42c14,5.43,32.53,8.85,39.46,5.17,4.84-2.57,4.9-9.59,5-16.37a50.58,50.58,0,0,1,.49-8.35c.84-4.7,3.18-7.92,6.58-9.07,3.64-1.23,7.89.15,11.95,3.88,5.4,5,11.54,14.45,16.09,47.23a160.06,160.06,0,0,1,1.51,24.29A160.27,160.27,0,0,1,472.87,272c-4.55,32.78-10.69,42.27-16.09,47.22C453.69,322.06,450.49,323.53,447.53,323.53Z"/><path d="M403.77,387.27a2.48,2.48,0,0,1-2.3-1.53,12,12,0,0,0-8.61-6.79l-.12,0a12,12,0,0,0-10.48,3.25,2.49,2.49,0,1,1-3.6-3.43,16.87,16.87,0,0,1,27.41,5.09,2.49,2.49,0,0,1-1.35,3.25A2.44,2.44,0,0,1,403.77,387.27Z"/><path d="M400.8,403.29a2.53,2.53,0,0,1-2.45-3l3-16a2.49,2.49,0,0,1,4.9.91l-3,16A2.48,2.48,0,0,1,400.8,403.29Z"/><path d="M403.77,387.27a2.48,2.48,0,0,1-2.29-3.46c2-4.63,3.78-18.94-3.43-26.84-5.63-6.18-15.61-7-29.66-2.55a2.49,2.49,0,1,1-1.51-4.74c16.06-5.14,27.79-3.81,34.85,3.94,8.56,9.39,7,25.82,4.33,32.14A2.47,2.47,0,0,1,403.77,387.27Z"/><path d="M427.86,393.6c-9.59,0-16-7.73-18-15.45-1.25-4.76-1-9.86-.78-14.79a58.42,58.42,0,0,0-.16-11.19C408,346,404.7,338.41,394.22,337c-6-.84-14.34.36-19.56,4.91a12.93,12.93,0,0,0-4.54,10.18,2.49,2.49,0,0,1-5,0,18,18,0,0,1,6.24-13.94c6.41-5.57,16.43-7.07,23.52-6.08,10.4,1.45,17.29,8.52,18.9,19.42a63.16,63.16,0,0,1,.21,12.14c-.22,4.77-.43,9.27.62,13.3,2.37,9,9.22,12.35,15,11.62,8.22-1.05,18.92-9.52,27.9-22.11,11.61-16.28,15.11-31.94,10.4-46.56a2.49,2.49,0,0,1,4.74-1.53c5.22,16.2,1.49,33.35-11.09,51-9.91,13.89-21.62,22.92-31.32,24.15A17.58,17.58,0,0,1,427.86,393.6Z"/><path d="M438.13,364.32c-6.34,0-12.46-2.48-16.13-7.13-3.4-4.32-4.13-10-4.84-15.46a49.7,49.7,0,0,0-1.73-9.09c-2.63-8-9.24-11.79-20.16-11.55-27.58.58-34,23.14-35.43,36.53a2.49,2.49,0,1,1-4.95-.51c1.56-15,6.95-26.09,16-33.06,8.23-6.31,17.73-7.8,24.24-7.94,13.24-.27,21.64,4.76,25,15a54.83,54.83,0,0,1,1.94,10c.64,5,1.25,9.78,3.81,13,4,5,13.53,7.36,21.47,2.85s14.27-16,11-27.37a2.49,2.49,0,0,1,4.79-1.36c4,14.26-3.87,27.67-13.37,33.06A23.74,23.74,0,0,1,438.13,364.32Z"/><path d="M341.35,343.84a2.43,2.43,0,0,1-1.78-.76,2.47,2.47,0,0,1,.05-3.51c21-20.45,42.13-33.28,61-37.11,16.78-3.4,21.8,2.4,23,7.87a27,27,0,0,1,.34,7c-.15,4.36-.3,8.87,2.75,13a16.51,16.51,0,0,0,11.88,6.46c6.47.48,13.53-2.85,20.38-9.64a2.49,2.49,0,1,1,3.51,3.53c-10,9.9-18.71,11.49-24.26,11.07a21.51,21.51,0,0,1-15.5-8.45c-4.09-5.49-3.89-11.37-3.73-16.1a24.38,24.38,0,0,0-.22-5.75c-1.1-4.81-6.89-6.19-17.21-4.1-22.7,4.59-44.38,22-58.57,35.79A2.46,2.46,0,0,1,341.35,343.84Z"/><path d="M436.25,285.72a2.46,2.46,0,0,1-.6-.07,2.49,2.49,0,0,1-1.82-3,146,146,0,0,0,3.07-16.57,2.49,2.49,0,0,1,4.94.62,150.64,150.64,0,0,1-3.18,17.13A2.48,2.48,0,0,1,436.25,285.72Z"/><path d="M456.22,296.59a2.24,2.24,0,0,1-.68-.1,2.49,2.49,0,0,1-1.72-3.07,168.52,168.52,0,0,0,4.8-22.64,2.49,2.49,0,1,1,4.93.69,175.06,175.06,0,0,1-4.94,23.31A2.5,2.5,0,0,1,456.22,296.59Z"/><path d="M462,265.55h-.22a2.49,2.49,0,0,1-2.26-2.7c.45-5,.67-10.1.64-15.13a2.49,2.49,0,0,1,2.47-2.5h0a2.49,2.49,0,0,1,2.49,2.47c0,5.19-.2,10.43-.66,15.61A2.49,2.49,0,0,1,462,265.55Z"/><path d="M440.08,261.92h-.19a2.48,2.48,0,0,1-2.29-2.67c.29-3.82.43-7.7.41-11.53a2.49,2.49,0,0,1,2.48-2.5h0a2.49,2.49,0,0,1,2.49,2.47c0,4-.13,8-.43,11.94A2.49,2.49,0,0,1,440.08,261.92Z"/><path d="M462,265.55l-.41,0-21.93-3.63a2.49,2.49,0,1,1,.82-4.91l21.93,3.63a2.49,2.49,0,0,1-.41,4.94Z"/><path d="M461.09,273.61a2.47,2.47,0,0,1-.54-.05l-21.71-4.75A2.49,2.49,0,0,1,439.9,264l21.72,4.74a2.49,2.49,0,0,1-.53,4.92Z"/><path d="M456.22,296.59a2.43,2.43,0,0,1-1.19-.31l-20-10.86a2.49,2.49,0,0,1,2.37-4.38l20,10.87a2.49,2.49,0,0,1-1.19,4.68Z"/><path d="M384.78,406.26a2.48,2.48,0,0,1-.95-.19,16.87,16.87,0,0,1-5.09-27.41,2.49,2.49,0,1,1,3.43,3.6,12,12,0,0,0-3.25,10.48l0,.12a12,12,0,0,0,6.79,8.61,2.49,2.49,0,0,1-1,4.79Z"/><path d="M384.78,406.26a2.49,2.49,0,0,1-.45-4.94l16-3a2.49,2.49,0,1,1,.91,4.89l-16,3A3.57,3.57,0,0,1,384.78,406.26Z"/><path d="M373.19,408.18c-6.71,0-14.27-1.61-19.57-6.45-7.75-7.06-9.08-18.79-3.94-34.85a2.49,2.49,0,1,1,4.74,1.51c-4.49,14.05-3.63,24,2.55,29.66,7.9,7.21,22.21,5.4,26.84,3.43a2.49,2.49,0,1,1,1.95,4.58A34.57,34.57,0,0,1,373.19,408.18Z"/><path d="M332.74,474.92a46.89,46.89,0,0,1-14.43-2.28,2.49,2.49,0,0,1,1.53-4.74c14.62,4.72,30.28,1.21,46.56-10.4,12.59-9,21.06-19.68,22.11-27.9.73-5.74-2.58-12.59-11.62-15-4-1.05-8.53-.84-13.3-.62a63.16,63.16,0,0,1-12.14-.21c-10.9-1.61-18-8.5-19.42-18.9-1-7.09.51-17.11,6.08-23.52a18,18,0,0,1,13.94-6.24,2.49,2.49,0,0,1,0,5,12.93,12.93,0,0,0-10.18,4.54c-4.55,5.22-5.74,13.59-4.91,19.56,1.45,10.48,9.08,13.76,15.21,14.67a58.42,58.42,0,0,0,11.19.16c4.93-.23,10-.47,14.79.78,8.34,2.18,16.68,9.5,15.29,20.39-1.23,9.71-10.26,21.42-24.15,31.33C356.81,470.45,344.57,474.92,332.74,474.92Z"/><path d="M336,464.29a28.37,28.37,0,0,1-7.73-1.08,2.49,2.49,0,0,1,1.36-4.79c11.39,3.23,22.86-3.07,27.37-11s2.17-17.51-2.84-21.47c-3.24-2.56-8-3.17-13-3.81a54.83,54.83,0,0,1-10-1.94c-10.21-3.36-15.24-11.77-15-25,.14-6.51,1.63-16,7.95-24.24,7-9.08,18.09-14.47,33.05-16a2.49,2.49,0,1,1,.51,4.95c-13.39,1.4-35.95,7.85-36.53,35.43-.23,10.93,3.55,17.53,11.55,20.16a49.7,49.7,0,0,0,9.09,1.73c5.48.71,11.14,1.43,15.46,4.84,7.57,6,9.41,18.47,4.09,27.84A29.9,29.9,0,0,1,336,464.29Z"/><path d="M328.9,463.3a2.48,2.48,0,0,1-1.76-4.24c6.79-6.85,10.12-13.89,9.64-20.38a16.5,16.5,0,0,0-6.46-11.88c-4.09-3.05-8.6-2.9-13-2.75a27,27,0,0,1-7-.34c-5.47-1.25-11.27-6.27-7.87-23,3.83-18.91,16.66-40,37.11-61.05a2.49,2.49,0,0,1,3.56,3.47c-13.79,14.19-31.2,35.87-35.79,58.57-2.09,10.32-.71,16.11,4.1,17.21a24.38,24.38,0,0,0,5.75.22c4.73-.17,10.61-.36,16.1,3.73a21.51,21.51,0,0,1,8.45,15.5c.42,5.56-1.17,14.28-11.07,24.26A2.49,2.49,0,0,1,328.9,463.3Z"/><path d="M266.38,441.86a2.49,2.49,0,0,1-.31-5,145.58,145.58,0,0,0,16.57-3.07,2.49,2.49,0,1,1,1.18,4.83,150.64,150.64,0,0,1-17.13,3.18A1.62,1.62,0,0,1,266.38,441.86Z"/><path d="M271.12,463.57a2.49,2.49,0,0,1-.34-4.95,168.85,168.85,0,0,0,22.64-4.8,2.49,2.49,0,0,1,1.36,4.79,175.39,175.39,0,0,1-23.31,4.94A2.06,2.06,0,0,1,271.12,463.57Z"/><path d="M248.57,465.15h-.89a2.49,2.49,0,0,1,0-5c5,0,10.12-.19,15.13-.64a2.49,2.49,0,0,1,.45,5C258.41,464.93,253.46,465.15,248.57,465.15Z"/><path d="M248.48,443h-.8a2.49,2.49,0,0,1,0-5c3.83,0,7.71-.12,11.53-.41a2.49,2.49,0,0,1,.38,5C255.93,442.84,252.18,443,248.48,443Z"/><path d="M263.06,464.5a2.49,2.49,0,0,1-2.45-2.08L257,440.49a2.49,2.49,0,1,1,4.91-.82l3.63,21.94a2.49,2.49,0,0,1-2,2.86A2.83,2.83,0,0,1,263.06,464.5Z"/><path d="M271.12,463.57a2.5,2.5,0,0,1-2.43-1.95L264,439.9a2.49,2.49,0,0,1,4.86-1.06l4.75,21.71a2.5,2.5,0,0,1-1.9,3A2.47,2.47,0,0,1,271.12,463.57Z"/><path d="M294.1,458.7a2.48,2.48,0,0,1-2.19-1.29l-10.87-20a2.49,2.49,0,0,1,4.38-2.37l10.86,20a2.48,2.48,0,0,1-1,3.37A2.45,2.45,0,0,1,294.1,458.7Z"/><path d="M390.73,121.65a17.11,17.11,0,0,1-12.07-5,2.49,2.49,0,1,1,3.6-3.43,12,12,0,0,0,10.48,3.25l.12,0a12,12,0,0,0,8.61-6.8,2.49,2.49,0,0,1,4.6,1.91,17,17,0,0,1-12.36,9.79A14.77,14.77,0,0,1,390.73,121.65Z"/><path d="M403.77,113.1a2.49,2.49,0,0,1-2.45-2l-3-16a2.49,2.49,0,0,1,4.89-.91l3,16a2.5,2.5,0,0,1-2,2.9A3.42,3.42,0,0,1,403.77,113.1Z"/><path d="M384,148.78a57,57,0,0,1-17.09-3.06,2.49,2.49,0,1,1,1.51-4.74c14.05,4.48,24,3.63,29.66-2.55,7.21-7.91,5.4-22.21,3.43-26.85a2.49,2.49,0,1,1,4.58-1.94c2.68,6.31,4.23,22.75-4.33,32.14C397.48,146.44,391.53,148.78,384,148.78Z"/><path d="M470.27,178.81a2.49,2.49,0,0,1-2.37-3.25c4.71-14.62,1.21-30.29-10.4-46.57-9-12.58-19.68-21.05-27.9-22.1-5.74-.73-12.59,2.58-15,11.61-1.05,4-.84,8.54-.62,13.3a63.27,63.27,0,0,1-.21,12.15c-1.61,10.89-8.5,18-18.9,19.42-7.09,1-17.11-.52-23.52-6.09a18,18,0,0,1-6.24-13.93,2.49,2.49,0,1,1,5,0,13,13,0,0,0,4.54,10.18c5.22,4.54,13.59,5.74,19.56,4.91,10.48-1.46,13.76-9.08,14.67-15.22a58.42,58.42,0,0,0,.16-11.19c-.23-4.92-.47-10,.78-14.78,2.18-8.34,9.49-16.68,20.4-15.3,9.7,1.24,21.41,10.27,31.32,24.15,12.58,17.63,16.31,34.79,11.09,51A2.49,2.49,0,0,1,470.27,178.81Z"/><path d="M396.19,179.29h-1c-6.51-.14-16-1.63-24.24-7.94-9.08-7-14.47-18.09-16-33.06a2.49,2.49,0,0,1,4.95-.51c1.4,13.4,7.85,36,35.43,36.53,10.94.24,17.53-3.54,20.16-11.54a50,50,0,0,0,1.73-9.1c.71-5.47,1.44-11.13,4.84-15.45,6-7.58,18.47-9.41,27.84-4.1s17.41,18.81,13.37,33.06a2.49,2.49,0,0,1-4.79-1.36c3.23-11.38-3.07-22.85-11-27.37s-17.51-2.16-21.47,2.85c-2.56,3.24-3.17,8-3.81,13a55.1,55.1,0,0,1-1.94,10C416.89,174.26,408.82,179.29,396.19,179.29Z"/><path d="M409.63,194a45.79,45.79,0,0,1-9-1c-18.91-3.83-40-16.66-61-37.11a2.49,2.49,0,0,1,3.46-3.57c14.19,13.79,35.87,31.2,58.57,35.8,10.32,2.09,16.11.71,17.21-4.11a24.38,24.38,0,0,0,.22-5.75c-.16-4.72-.36-10.61,3.73-16.1a21.55,21.55,0,0,1,15.5-8.45c5.55-.41,14.28,1.17,24.26,11.07a2.49,2.49,0,0,1-3.51,3.54c-6.85-6.8-13.9-10.13-20.38-9.65a16.55,16.55,0,0,0-11.88,6.46c-3.05,4.1-2.9,8.6-2.75,13a27.12,27.12,0,0,1-.34,7C422.72,189.4,419.35,194,409.63,194Z"/><path d="M439.37,231.5a2.49,2.49,0,0,1-2.47-2.17,145.18,145.18,0,0,0-3.07-16.57,2.49,2.49,0,1,1,4.83-1.19,151.05,151.05,0,0,1,3.18,17.13,2.48,2.48,0,0,1-2.16,2.78A1.62,1.62,0,0,1,439.37,231.5Z"/><path d="M461.08,226.76a2.49,2.49,0,0,1-2.46-2.15,168.38,168.38,0,0,0-4.8-22.63,2.49,2.49,0,1,1,4.79-1.36,175.25,175.25,0,0,1,4.94,23.3,2.49,2.49,0,0,1-2.12,2.81A2.07,2.07,0,0,1,461.08,226.76Z"/><path d="M462.66,250.19h0a2.49,2.49,0,0,1-2.47-2.51c0-5-.19-10.11-.64-15.13a2.49,2.49,0,0,1,5-.44c.46,5.17.68,10.42.66,15.6A2.49,2.49,0,0,1,462.66,250.19Z"/><path d="M440.5,250.19h0a2.49,2.49,0,0,1-2.48-2.51c0-3.82-.12-7.7-.41-11.53a2.49,2.49,0,1,1,5-.38c.3,4,.45,8,.43,11.94A2.49,2.49,0,0,1,440.5,250.19Z"/><path d="M440.08,238.45a2.49,2.49,0,0,1-.41-4.94l21.93-3.63a2.49,2.49,0,1,1,.82,4.91l-21.93,3.63Z"/><path d="M439.37,231.5a2.49,2.49,0,0,1-.53-4.92l21.71-4.74a2.49,2.49,0,1,1,1.07,4.86l-21.72,4.75A3.07,3.07,0,0,1,439.37,231.5Z"/><path d="M436.25,214.65a2.49,2.49,0,0,1-1.19-4.67l20-10.87a2.49,2.49,0,0,1,2.38,4.37l-20,10.87A2.38,2.38,0,0,1,436.25,214.65Z"/><path d="M380.46,117.42a2.49,2.49,0,0,1-1.72-.68,16.87,16.87,0,0,1,5.09-27.41,2.49,2.49,0,1,1,1.91,4.59,12,12,0,0,0-6.79,8.61l0,.13a12,12,0,0,0,3.25,10.47,2.49,2.49,0,0,1-1.71,4.29Z"/><path d="M400.8,97.09a2.49,2.49,0,0,1-.46,0l-16-3a2.49,2.49,0,0,1,.91-4.89l16,3a2.49,2.49,0,0,1-.45,4.94Z"/><path d="M352.05,130.25a2.47,2.47,0,0,1-2.37-1.73c-5.14-16.07-3.81-27.8,3.94-34.86,9.39-8.56,25.82-7,32.14-4.33a2.49,2.49,0,0,1-1.95,4.59c-4.63-2-18.94-3.78-26.84,3.42-6.18,5.63-7,15.61-2.55,29.66a2.5,2.5,0,0,1-1.62,3.13A2.45,2.45,0,0,1,352.05,130.25Z"/><path d="M352.05,130.25A18,18,0,0,1,338.11,124c-5.57-6.4-7.07-16.42-6.08-23.51,1.45-10.41,8.52-17.3,19.42-18.91a63.16,63.16,0,0,1,12.14-.21c4.77.22,9.27.43,13.3-.62,9-2.37,12.35-9.21,11.62-15-1.05-8.23-9.52-18.92-22.11-27.9-16.28-11.62-31.95-15.12-46.56-10.41a2.49,2.49,0,0,1-1.53-4.73c16.2-5.23,33.35-1.49,51,11.09,13.89,9.91,22.92,21.61,24.15,31.32,1.39,10.9-6.95,18.21-15.29,20.39-4.77,1.25-9.86,1-14.79.78a58.39,58.39,0,0,0-11.19.17c-6.13.9-13.76,4.18-15.21,14.66-.83,6,.36,14.34,4.91,19.56a12.93,12.93,0,0,0,10.18,4.54,2.49,2.49,0,0,1,0,5Z"/><path d="M357.37,140.51h-.26c-15-1.56-26.09-6.95-33.05-16-6.32-8.22-7.81-17.72-7.95-24.24-.27-13.22,4.76-21.63,15-25a54.81,54.81,0,0,1,10-1.93c5-.65,9.78-1.26,13-3.82,5-4,7.35-13.52,2.84-21.47s-16-14.26-27.37-11a2.48,2.48,0,1,1-1.36-4.78c14.25-4,27.67,3.87,33.06,13.37s3.48,21.86-4.09,27.83c-4.32,3.41-10,4.14-15.46,4.84A49.7,49.7,0,0,0,332.64,80c-8,2.64-11.78,9.23-11.55,20.17.58,27.57,23.14,34,36.53,35.42a2.49,2.49,0,0,1-.25,5Z"/><path d="M341.35,156.53a2.46,2.46,0,0,1-1.78-.75c-20.45-21-33.28-42.14-37.11-61-3.4-16.78,2.4-21.79,7.87-23a27.94,27.94,0,0,1,7-.34c4.36.15,8.87.31,13-2.75a16.47,16.47,0,0,0,6.46-11.87c.48-6.49-2.85-13.54-9.64-20.39a2.49,2.49,0,1,1,3.53-3.5c9.9,10,11.49,18.7,11.07,24.26a21.49,21.49,0,0,1-8.45,15.49c-5.49,4.1-11.37,3.9-16.1,3.74a23.9,23.9,0,0,0-5.75.21c-4.81,1.11-6.19,6.9-4.1,17.21,4.59,22.71,22,44.38,35.79,58.57a2.48,2.48,0,0,1-.05,3.52A2.45,2.45,0,0,1,341.35,156.53Z"/><path d="M283.23,61.64a2.44,2.44,0,0,1-.59-.07,146,146,0,0,0-16.57-3.08,2.49,2.49,0,0,1,.62-4.94,153.3,153.3,0,0,1,17.13,3.18,2.49,2.49,0,0,1-.59,4.91Z"/><path d="M294.1,41.67a2.29,2.29,0,0,1-.68-.1,170.08,170.08,0,0,0-22.64-4.8,2.48,2.48,0,1,1,.69-4.92,173.45,173.45,0,0,1,23.31,4.93,2.49,2.49,0,0,1-.68,4.89Z"/><path d="M263.07,35.87h-.23c-5-.45-10.11-.67-15.13-.64h0a2.49,2.49,0,0,1,0-5c5.18,0,10.43.19,15.61.65a2.5,2.5,0,0,1,2.25,2.71A2.48,2.48,0,0,1,263.07,35.87Z"/><path d="M259.44,57.8h-.2c-3.82-.3-7.7-.44-11.53-.42h0a2.49,2.49,0,0,1,0-5c4,0,8,.12,11.94.42a2.49,2.49,0,0,1-.18,5Z"/><path d="M259.44,57.8a2.73,2.73,0,0,1-.41,0,2.48,2.48,0,0,1-2-2.86L260.61,33a2.49,2.49,0,1,1,4.91.81l-3.63,21.93A2.49,2.49,0,0,1,259.44,57.8Z"/><path d="M266.38,58.51a2.46,2.46,0,0,1-.53-.06,2.49,2.49,0,0,1-1.9-3l4.74-21.71a2.49,2.49,0,0,1,4.87,1.06l-4.75,21.71A2.48,2.48,0,0,1,266.38,58.51Z"/><path d="M283.23,61.64a2.56,2.56,0,0,1-1.19-.3A2.5,2.5,0,0,1,281,58l10.87-20a2.49,2.49,0,1,1,4.37,2.38l-10.86,20A2.5,2.5,0,0,1,283.23,61.64Z"/><path d="M247.84,368.19h-.29a120.75,120.75,0,0,1-44.21-8.46,120.5,120.5,0,0,1-40.85-197.24,120.51,120.51,0,0,1,85.06-35.29h.3a120.5,120.5,0,0,1,0,241Zm-.15-5h.14A115.52,115.52,0,0,0,363.22,247.7h0A115.52,115.52,0,0,0,247.84,132.18h-.28a115.52,115.52,0,0,0-107.27,158,115.52,115.52,0,0,0,107.26,73Z"/><path d="M349.27,495.39H146.13a2.52,2.52,0,0,1-1.76-.72L.73,351A2.48,2.48,0,0,1,0,349.27V146.13a2.48,2.48,0,0,1,.73-1.76L144.37.73A2.48,2.48,0,0,1,146.13,0H349.27A2.48,2.48,0,0,1,351,.73L494.67,144.37a2.52,2.52,0,0,1,.72,1.76V349.27a2.52,2.52,0,0,1-.72,1.76L351,494.67A2.52,2.52,0,0,1,349.27,495.39Zm-202.11-5H348.24L490.42,348.23V147.16L348.24,5H147.16L5,147.16V348.23Z"/><path d="M166.49,463.3a2.49,2.49,0,0,1-1.77-.73c-9.9-10-11.48-18.7-11.07-24.26a21.55,21.55,0,0,1,8.45-15.5c5.49-4.09,11.37-3.9,16.1-3.73a24.38,24.38,0,0,0,5.75-.22c4.82-1.1,6.2-6.89,4.11-17.21-4.6-22.7-22-44.38-35.8-58.57a2.49,2.49,0,0,1,3.57-3.47c20.45,21,33.28,42.14,37.11,61.05,3.39,16.78-2.41,21.8-7.87,23a27.12,27.12,0,0,1-7,.34c-4.36-.15-8.86-.3-13,2.75a16.53,16.53,0,0,0-6.46,11.88c-.48,6.49,2.85,13.53,9.65,20.38a2.49,2.49,0,0,1-1.77,4.24Z"/><path d="M212.16,61.64a2.49,2.49,0,0,1-.59-4.91,153.72,153.72,0,0,1,17.13-3.18,2.49,2.49,0,0,1,.63,4.94,145.63,145.63,0,0,0-16.57,3.08A2.46,2.46,0,0,1,212.16,61.64Z"/></svg>