<svg xmlns="http://www.w3.org/2000/svg" viewBox="0 0 495.39 495.4"><path d="M225.87,315.51a2.45,2.45,0,0,1-.75-.12,71.35,71.35,0,0,1-48.94-67.14,2.47,2.47,0,0,1,2.47-2.46h0a2.48,2.48,0,0,1,2.47,2.48,66.43,66.43,0,0,0,45.49,62.42,2.47,2.47,0,0,1-.75,4.82Z"/><path d="M115.81,250.73H88a2.47,2.47,0,1,1,0-4.94h27.77a2.47,2.47,0,0,1,0,4.94Z"/><path d="M493,249.6H465.24a2.47,2.47,0,0,1,0-4.94H493a2.47,2.47,0,0,1,0,4.94Z"/><path d="M162.7,250.73H115.81a2.47,2.47,0,1,1,0-4.94H162.7a2.47,2.47,0,0,1,0,4.94Z"/><path d="M2.48,250.73A2.47,2.47,0,0,1,0,248.26v-1.13a2.48,2.48,0,0,1,5,0v1.13A2.47,2.47,0,0,1,2.48,250.73Z"/><path d="M379.59,495.4H115.81a2.47,2.47,0,1,1,0-4.94H379.59a2.47,2.47,0,0,1,0,4.94Z"/><path d="M493.88,250.17H465a2.52,2.52,0,0,1-1.81-.79,2.68,2.68,0,0,1-.71-1.89,28.08,28.08,0,0,0-7.72-19.19c-4.85-5-12.13-8.15-18.56-8h-.13c-6.43-.16-13.7,2.95-18.56,8a28.08,28.08,0,0,0-7.72,19.19,2.68,2.68,0,0,1-.71,1.89,2.52,2.52,0,0,1-1.81.79H378.42a2.61,2.61,0,0,1,0-5.22h26.41A34.07,34.07,0,0,1,414,224.62c5.77-6,14.47-9.69,22.2-9.51,7.71-.19,16.42,3.54,22.19,9.51A34,34,0,0,1,467.46,245h26.42c1.39,0,1.51,1.17,1.51,2.61S495.27,250.17,493.88,250.17Z"/><path d="M72.26,275.85a2.47,2.47,0,0,1-1.06-4.7c9.17-4.34,14.51-15,14.36-22.84a2.48,2.48,0,1,1,5-.09c.2,10.88-7.19,22.66-17.19,27.39A2.48,2.48,0,0,1,72.26,275.85Z"/><path d="M492.92,306.69a2.48,2.48,0,0,1-2.48-2.47v-56a2.48,2.48,0,0,1,4.95,0v56A2.47,2.47,0,0,1,492.92,306.69Z"/><path d="M332.7,249.6h-.05a2.47,2.47,0,0,1-2.43-2.52c.4-20.06-9.18-42.75-24.4-57.81s-38-24.41-58.06-23.89a2.47,2.47,0,1,1-.13-4.93c21.37-.56,45.58,9.38,61.68,25.31s26.28,40.07,25.86,61.42A2.47,2.47,0,0,1,332.7,249.6Z"/><path d="M492.92,250.73H465.15a2.47,2.47,0,1,1,0-4.94h27.77a2.47,2.47,0,0,1,0,4.94Z"/><path d="M436.79,279h-1.08a32.14,32.14,0,0,1-21.42-9c-5.76-5.63-9.45-14.18-9.41-21.79a2.48,2.48,0,0,1,2.48-2.46h0a2.47,2.47,0,0,1,2.46,2.49,26.4,26.4,0,0,0,26.36,25.78h.13a26.38,26.38,0,0,0,26.35-25.78,2.48,2.48,0,0,1,2.46-2.49h0a2.47,2.47,0,0,1,2.47,2.46c.05,7.61-3.64,16.16-9.4,21.79A32.19,32.19,0,0,1,436.79,279Z"/><path d="M31.38,250.17a2.48,2.48,0,0,1-2.48-2.47v-.57a2.48,2.48,0,0,1,5,0v.57A2.48,2.48,0,0,1,31.38,250.17Z"/><path d="M115.81,249.6H86.91a2.47,2.47,0,1,1,0-4.94h28.9a2.47,2.47,0,0,1,0,4.94Z"/><path d="M86.91,250.17a2.48,2.48,0,0,1-2.48-2.47v-.57a2.48,2.48,0,0,1,4.95,0v.57A2.47,2.47,0,0,1,86.91,250.17Z"/><path d="M316.74,249.6h0a2.46,2.46,0,0,1-2.47-2.48,66.39,66.39,0,0,0-45.5-62.41,2.47,2.47,0,1,1,1.51-4.7,71.35,71.35,0,0,1,48.94,67.13A2.48,2.48,0,0,1,316.74,249.6Z"/><path d="M115.81,381.72a2.48,2.48,0,0,1-2.48-2.47v-75a2.48,2.48,0,0,1,5,0v75A2.47,2.47,0,0,1,115.81,381.72Z"/><path d="M31.38,249.6H2.48a2.47,2.47,0,1,1,0-4.94h28.9a2.47,2.47,0,1,1,0,4.94Z"/><path d="M115.81,495.4a2.48,2.48,0,0,1-2.48-2.47V379.25a2.48,2.48,0,0,1,5,0V492.93A2.47,2.47,0,0,1,115.81,495.4Z"/><path d="M492.92,306.69H379.59a2.47,2.47,0,1,1,0-4.94H492.92a2.47,2.47,0,0,1,0,4.94Z"/><path d="M2.48,249.6A2.47,2.47,0,0,1,0,247.13V191.18a2.48,2.48,0,0,1,5,0v55.95A2.47,2.47,0,0,1,2.48,249.6Z"/><path d="M2.48,306.69A2.48,2.48,0,0,1,0,304.22v-56a2.48,2.48,0,0,1,5,0v56A2.48,2.48,0,0,1,2.48,306.69Z"/><path d="M246.05,335c-20.94,0-44.3-9.83-60-25.34-16.12-16-26.27-40.07-25.86-61.42a2.5,2.5,0,0,1,2.53-2.42,2.48,2.48,0,0,1,2.42,2.52c-.39,20.06,9.19,42.76,24.4,57.82s38,24.4,58.06,23.88a2.47,2.47,0,1,1,.13,4.94Z"/><path d="M115.81,306.69a2.48,2.48,0,0,1-2.48-2.47v-113a2.48,2.48,0,0,1,5,0v113A2.47,2.47,0,0,1,115.81,306.69Z"/><path d="M115.81,193.65a2.48,2.48,0,0,1-2.48-2.47v-75a2.48,2.48,0,0,1,5,0v75A2.47,2.47,0,0,1,115.81,193.65Z"/><path d="M379.59,401.72H115.81a2.47,2.47,0,1,1,0-4.94H379.59a2.47,2.47,0,0,1,0,4.94Z"/><path d="M492.92,249.6a2.47,2.47,0,0,1-2.48-2.47V191.18a2.48,2.48,0,0,1,4.95,0v55.95A2.46,2.46,0,0,1,492.92,249.6Z"/><path d="M269.52,331.52a2.47,2.47,0,0,1-.6-4.86c16.94-4.25,33.58-15.53,44.54-30.17,10.35-13.85,16.41-32.07,16.2-48.76.21-16.75-5.85-35-16.2-48.82-11-14.65-27.6-25.93-44.54-30.17a2.47,2.47,0,1,1,1.21-4.79c18,4.51,35.68,16.48,47.3,32,11,14.68,17.4,34,17.18,51.77.22,17.67-6.2,37-17.18,51.71-11.62,15.53-29.3,27.49-47.3,32A2.54,2.54,0,0,1,269.52,331.52Z"/><path d="M225.87,168.81a2.47,2.47,0,0,1-.64-4.85,86.79,86.79,0,0,1,22.44-3,2.47,2.47,0,1,1,0,4.94h0a81.74,81.74,0,0,0-21.16,2.78A2.34,2.34,0,0,1,225.87,168.81Z"/><path d="M178.65,249.6a2.47,2.47,0,0,1-2.47-2.46A71.35,71.35,0,0,1,225.12,180a2.47,2.47,0,1,1,1.5,4.7,66.4,66.4,0,0,0-45.49,62.41,2.47,2.47,0,0,1-2.47,2.48Z"/><path d="M225.87,331.52a2.46,2.46,0,0,1-.6-.07c-18-4.52-35.69-16.48-47.3-32-11-14.68-17.4-34-17.18-51.77C160.57,230,167,210.64,178,196c11.61-15.53,29.29-27.5,47.3-32a2.47,2.47,0,1,1,1.2,4.79c-16.93,4.24-33.58,15.52-44.53,30.17-10.36,13.84-16.41,32.07-16.2,48.76-.21,16.75,5.84,35,16.2,48.82,10.95,14.64,27.6,25.92,44.53,30.17a2.47,2.47,0,0,1-.6,4.86Z"/><path d="M225.87,331.52a2.46,2.46,0,0,1-2.47-2.47V166.34a2.48,2.48,0,0,1,4.95,0V329.05A2.47,2.47,0,0,1,225.87,331.52Z"/><path d="M269.53,168.81a2.41,2.41,0,0,1-.65-.08A81.6,81.6,0,0,0,247.73,166h0a2.47,2.47,0,1,1,0-4.94,86.79,86.79,0,0,1,22.44,3,2.47,2.47,0,0,1-.64,4.85Z"/><path d="M407.1,249.6H269.5a2.47,2.47,0,0,1,0-4.94H407.1a2.47,2.47,0,0,1,0,4.94Z"/><path d="M492.92,193.65H379.59a2.47,2.47,0,1,1,0-4.94H492.92a2.47,2.47,0,0,1,0,4.94Z"/><path d="M58.31,277.88c-10.5,0-21.61-7-26.15-16.55a2.48,2.48,0,0,1,4.48-2.11c4.25,9,14.74,14,22.4,13.71h.17a25.26,25.26,0,0,0,11.41-2.74,2.47,2.47,0,1,1,2.26,4.39,30.11,30.11,0,0,1-13.67,3.29h0Z"/><path d="M379.59,381.72a2.48,2.48,0,0,1-2.48-2.47v-75a2.48,2.48,0,0,1,4.95,0v75A2.48,2.48,0,0,1,379.59,381.72Z"/><path d="M115.81,193.65H2.48a2.47,2.47,0,1,1,0-4.94H115.81a2.47,2.47,0,0,1,0,4.94Z"/><path d="M247.73,334.38h0a2.47,2.47,0,1,1,0-4.93h0a82.09,82.09,0,0,0,21.15-2.78,2.47,2.47,0,1,1,1.29,4.77A87.21,87.21,0,0,1,247.73,334.38Z"/><path d="M162.7,249.6a2.47,2.47,0,0,1-2.48-2.42c-.41-21.35,9.74-45.45,25.86-61.42s40.32-25.87,61.68-25.31a2.46,2.46,0,0,1,2.41,2.53,2.49,2.49,0,0,1-2.54,2.4c-20.06-.51-42.87,8.85-58.06,23.89s-24.79,37.75-24.4,57.81a2.47,2.47,0,0,1-2.42,2.52Z"/><path d="M379.59,98.62H115.81a2.47,2.47,0,1,1,0-4.94H379.59a2.47,2.47,0,1,1,0,4.94Z"/><path d="M269.53,249.6H225.87a2.47,2.47,0,0,1,0-4.94h43.66a2.47,2.47,0,1,1,0,4.94Z"/><path d="M249.35,335l-1.72,0a2.47,2.47,0,1,1,.13-4.94c20.09.54,42.88-8.85,58.06-23.88s24.8-37.76,24.4-57.82a2.48,2.48,0,0,1,4.95-.1c.42,21.35-9.73,45.46-25.86,61.42C293.64,325.14,270.29,335,249.35,335Z"/><path d="M379.59,193.65a2.48,2.48,0,0,1-2.48-2.47v-75a2.48,2.48,0,0,1,4.95,0v75A2.48,2.48,0,0,1,379.59,193.65Z"/><path d="M269.52,315.51a2.47,2.47,0,0,1-.75-4.82,66.42,66.42,0,0,0,45.5-62.42,2.48,2.48,0,0,1,2.47-2.48h0a2.48,2.48,0,0,1,2.48,2.46,71.35,71.35,0,0,1-48.94,67.14A2.51,2.51,0,0,1,269.52,315.51Z"/><path d="M247.67,334.38a87.21,87.21,0,0,1-22.44-2.94,2.47,2.47,0,1,1,1.28-4.77,82.17,82.17,0,0,0,21.16,2.78h0a2.47,2.47,0,1,1,0,4.93Z"/><path d="M269.53,250.73H225.87a2.47,2.47,0,0,1,0-4.94h43.66a2.47,2.47,0,1,1,0,4.94Z"/><path d="M225.87,250.73H162.7a2.47,2.47,0,1,1,0-4.94h63.17a2.47,2.47,0,1,1,0,4.94Z"/><path d="M58.54,279a32.15,32.15,0,0,1-21.37-9c-5.75-5.63-9.44-14.18-9.4-21.79a2.48,2.48,0,0,1,2.48-2.46h0a2.47,2.47,0,0,1,2.46,2.49,26.4,26.4,0,0,0,26.36,25.78h.06a26.65,26.65,0,0,0,12-2.88,2.47,2.47,0,1,1,2.26,4.4A31.36,31.36,0,0,1,59.21,279h-.67Z"/><path d="M379.59,495.4a2.48,2.48,0,0,1-2.48-2.47V379.25a2.48,2.48,0,0,1,4.95,0V492.93A2.48,2.48,0,0,1,379.59,495.4Z"/><path d="M269.53,331.52a2.47,2.47,0,0,1-2.48-2.47V166.34a2.48,2.48,0,0,1,4.95,0V329.05A2.47,2.47,0,0,1,269.53,331.52Z"/><path d="M379.59,306.69a2.48,2.48,0,0,1-2.48-2.47v-113a2.48,2.48,0,0,1,4.95,0v113A2.48,2.48,0,0,1,379.59,306.69Z"/><path d="M379.59,118.62a2.48,2.48,0,0,1-2.48-2.47V2.47a2.48,2.48,0,0,1,4.95,0V116.15A2.48,2.48,0,0,1,379.59,118.62Z"/><path d="M379.59,4.94H115.81a2.47,2.47,0,1,1,0-4.94H379.59a2.47,2.47,0,1,1,0,4.94Z"/><path d="M34.4,262.74a2.47,2.47,0,0,1-2.2-1.34,30,30,0,0,1-3.3-13.71,2.47,2.47,0,0,1,2.48-2.46h0a2.47,2.47,0,0,1,2.47,2.47,24.93,24.93,0,0,0,2.76,11.45,2.46,2.46,0,0,1-1.08,3.32A2.54,2.54,0,0,1,34.4,262.74Z"/><path d="M71.75,274.84a2.47,2.47,0,0,1-1.06-4.7c9-4.24,14-14.69,13.75-22.34a2.47,2.47,0,1,1,4.94-.2c.43,10.73-6.69,22.34-16.57,27A2.54,2.54,0,0,1,71.75,274.84Z"/><path d="M115.81,118.62a2.48,2.48,0,0,1-2.48-2.47V2.47a2.48,2.48,0,0,1,5,0V116.15A2.47,2.47,0,0,1,115.81,118.62Z"/><path d="M407.36,250.73H269.53a2.47,2.47,0,1,1,0-4.94H407.36a2.47,2.47,0,0,1,0,4.94Z"/><path d="M30.25,250.73H2.48a2.47,2.47,0,1,1,0-4.94H30.25a2.47,2.47,0,0,1,0,4.94Z"/><path d="M225.87,249.6H115.81a2.47,2.47,0,1,1,0-4.94H225.87a2.47,2.47,0,1,1,0,4.94Z"/><path d="M115.81,306.69H2.48a2.47,2.47,0,1,1,0-4.94H115.81a2.47,2.47,0,0,1,0,4.94Z"/></svg>