<svg xmlns="http://www.w3.org/2000/svg" viewBox="0 0 495.39 495.4"><path d="M165.57,495.4a2.72,2.72,0,0,1-.79-.13,262.59,262.59,0,0,1-76-40.46,2.5,2.5,0,1,1,3-4,257.28,257.28,0,0,0,74.58,39.68,2.5,2.5,0,0,1-.79,4.88Z"/><path d="M464,5H449a2.5,2.5,0,0,1,0-5h15a2.5,2.5,0,0,1,0,5Z"/><path d="M42.57,407.65a2.49,2.49,0,0,1-2-1A262.72,262.72,0,0,1,.13,330.62,2.5,2.5,0,1,1,4.87,329a257.76,257.76,0,0,0,39.68,74.58,2.5,2.5,0,0,1-.46,3.51A2.48,2.48,0,0,1,42.57,407.65Z"/><path d="M215.91,5h-15.4a2.5,2.5,0,0,1,0-5h15.4a2.5,2.5,0,0,1,0,5Z"/><path d="M177.91,5H165.57a2.5,2.5,0,0,1,0-5h12.34a2.5,2.5,0,0,1,0,5Z"/><path d="M2.5,218.41a2.5,2.5,0,0,1-2.5-2.5V200.52a2.5,2.5,0,0,1,5,0v15.39A2.5,2.5,0,0,1,2.5,218.41Z"/><path d="M2.5,297.38a2.5,2.5,0,0,1-2.5-2.5V279.49a2.5,2.5,0,0,1,5,0v15.39A2.5,2.5,0,0,1,2.5,297.38Z"/><path d="M492.89,218.41a2.5,2.5,0,0,1-2.5-2.5V200.52a2.5,2.5,0,1,1,5,0v15.39A2.49,2.49,0,0,1,492.89,218.41Z"/><path d="M46.42,495.4h-15a2.5,2.5,0,1,1,0-5h15a2.5,2.5,0,0,1,0,5Z"/><path d="M177.91,495.4H165.57a2.5,2.5,0,0,1,0-5h12.34a2.5,2.5,0,0,1,0,5Z"/><path d="M245.8,413.1c-41.91,0-85.84-18.46-115.06-48.46A165.38,165.38,0,0,1,199.69,89.43,165.39,165.39,0,0,1,390.44,331.24a165.35,165.35,0,0,1-142.58,81.85H245.8ZM248,87.32a160.38,160.38,0,0,0-159.9,176.1,160.36,160.36,0,0,0,46.2,97.69l0,0c28.3,29.07,70.88,47,111.51,47h2a160.39,160.39,0,0,0,9.42-320.5Q252.64,87.32,248,87.32Z"/><path d="M317.48,495.4a2.5,2.5,0,0,1-2.5-2.5V480.72a2.5,2.5,0,0,1,1.8-2.4C354,467.41,389.9,446,417.93,417.93S467.41,354,478.32,316.78a2.5,2.5,0,0,1,2.4-1.8h12.17a2.5,2.5,0,0,1,0,5H482.58c-11.3,37.35-32.95,73.32-61.12,101.48S357.33,471.28,320,482.58V492.9A2.5,2.5,0,0,1,317.48,495.4Z"/><path d="M14.68,180.41H2.5a2.5,2.5,0,0,1,0-5H12.81c11.31-37.34,33-73.32,61.12-101.48s64.14-49.81,101.48-61.11V2.5a2.5,2.5,0,0,1,5,0V14.68a2.5,2.5,0,0,1-1.79,2.4C141.42,28,105.5,49.44,77.47,77.47S28,141.42,17.08,178.62A2.51,2.51,0,0,1,14.68,180.41Z"/><path d="M457.09,219.47a2.65,2.65,0,0,1-.68-.09,2.52,2.52,0,0,1-1.8-2A209.12,209.12,0,0,0,278.06,40.78a2.5,2.5,0,0,1-1.23-4.4c9.52-7.88,15.77-21.48,15.55-33.83A2.51,2.51,0,0,1,294.84,0a2.46,2.46,0,0,1,2.54,2.46,50,50,0,0,1-13.52,34.18,212.46,212.46,0,0,1,58.36,18.92,214.08,214.08,0,0,1,97.62,97.62,212.68,212.68,0,0,1,18.92,58.36c9-8.54,21.92-13.76,34.18-13.52a2.5,2.5,0,0,1,0,5h0c-12.38-.2-26,6-33.84,15.56A2.49,2.49,0,0,1,457.09,219.47Z"/><path d="M2.5,180.41a2.49,2.49,0,0,1-2.5-2.5V165.57a2.5,2.5,0,0,1,5,0v12.34A2.49,2.49,0,0,1,2.5,180.41Z"/><path d="M200.51,495.4a2.5,2.5,0,0,1-2.49-2.46,50,50,0,0,1,13.52-34.18,212.68,212.68,0,0,1-58.36-18.92,214.16,214.16,0,0,1-97.63-97.62,212.77,212.77,0,0,1-18.91-58.36A50.17,50.17,0,0,1,2.46,297.38,2.5,2.5,0,0,1,0,294.84a2.53,2.53,0,0,1,2.54-2.46c12.39.23,26-6,33.84-15.55a2.5,2.5,0,0,1,4.4,1.23A209.1,209.1,0,0,0,217.33,454.61a2.52,2.52,0,0,1,2,1.8,2.49,2.49,0,0,1-.81,2.6c-9.52,7.89-15.77,21.48-15.56,33.84a2.5,2.5,0,0,1-2.45,2.55Z"/><path d="M38.31,219.47a2.5,2.5,0,0,1-1.93-.9C28.5,209.05,14.93,202.82,2.54,203a2.5,2.5,0,1,1-.08-5,49.94,49.94,0,0,1,34.18,13.52,212.66,212.66,0,0,1,18.91-58.36,214,214,0,0,1,97.63-97.62,212.35,212.35,0,0,1,58.36-18.92A50,50,0,0,1,198,2.46a2.5,2.5,0,1,1,5,.09c-.21,12.35,6,26,15.56,33.83a2.5,2.5,0,0,1-1.24,4.4A209.15,209.15,0,0,0,40.78,217.33a2.51,2.51,0,0,1-1.8,2A2.57,2.57,0,0,1,38.31,219.47Z"/><path d="M255.27,397.78H240.13a2.5,2.5,0,0,1-2.5-2.36c-.61-11.75-6.33-16.42-12.38-21.36-6.48-5.3-13.19-10.78-11.47-24.39,1.17-9.31,6.34-22.49,11.34-35.24,3.56-9.07,6.92-17.64,8.75-24.46,2-7.53,1.3-10,.77-10.74-.92.17-3.15,1.38-7,8.13-3.54,6.12-7.22,14.56-11.12,23.49-5.48,12.55-11.14,25.53-16.89,32.93-8.41,10.85-17,10-25.36,9.14-7.77-.78-15.12-1.52-23.86,6.35a2.5,2.5,0,0,1-3.44-.09l-10.7-10.71a2.5,2.5,0,0,1-.09-3.44c7.87-8.73,7.13-16.08,6.34-23.86-.83-8.33-1.7-16.94,9.14-25.35,7.41-5.75,20.39-11.42,32.94-16.9,8.93-3.89,17.36-7.58,23.48-11.11,6.75-3.9,8-6.13,8.14-7.05-.77-.53-3.21-1.25-10.74.76-6.83,1.83-15.4,5.19-24.47,8.75-12.75,5-25.93,10.17-35.23,11.35-13.62,1.71-19.09-5-24.39-11.47-5-6.06-9.62-11.77-21.36-12.39a2.49,2.49,0,0,1-2.37-2.49V240.13a2.5,2.5,0,0,1,2.37-2.5c11.74-.61,16.41-6.33,21.36-12.38,5.3-6.48,10.77-13.19,24.39-11.47,9.3,1.17,22.48,6.34,35.23,11.34,9.07,3.56,17.64,6.92,24.47,8.75,7.53,2,10,1.3,10.74.77-.17-.92-1.39-3.15-8.14-7-6.12-3.54-14.55-7.22-23.48-11.12C172,211,159,205.33,151.61,199.58c-10.84-8.41-10-17-9.14-25.36.79-7.77,1.53-15.12-6.34-23.86a2.5,2.5,0,0,1,.09-3.44l10.7-10.7a2.5,2.5,0,0,1,3.44-.09c8.74,7.87,16.08,7.13,23.86,6.34,8.33-.83,16.95-1.7,25.36,9.14C205.33,159,211,172,216.47,184.55c3.9,8.93,7.58,17.36,11.12,23.48,3.9,6.76,6.13,8,7,8.14.53-.77,1.25-3.21-.77-10.74C232,198.6,228.68,190,225.12,181c-5-12.75-10.17-25.93-11.34-35.23-1.72-13.62,5-19.09,11.47-24.39,6.05-5,11.77-9.62,12.38-21.36a2.5,2.5,0,0,1,2.5-2.37h15.14a2.49,2.49,0,0,1,2.49,2.37c.62,11.74,6.33,16.41,12.39,21.36,6.48,5.3,13.18,10.77,11.47,24.39-1.18,9.3-6.35,22.48-11.35,35.23-3.56,9.08-6.92,17.64-8.75,24.47-2,7.53-1.29,10-.76,10.74.92-.17,3.15-1.38,7.05-8.14,3.53-6.12,7.22-14.55,11.11-23.48,5.48-12.55,11.15-25.53,16.9-32.94,8.41-10.84,17-10,25.35-9.14,7.78.79,15.13,1.53,23.86-6.34a2.5,2.5,0,0,1,3.44.09l10.71,10.7a2.5,2.5,0,0,1,.09,3.44c-7.87,8.74-7.13,16.08-6.35,23.86.84,8.33,1.71,16.95-9.14,25.36-7.4,5.75-20.38,11.41-32.93,16.89-8.93,3.9-17.37,7.58-23.49,11.12-6.75,3.9-8,6.13-8.13,7,.76.53,3.21,1.25,10.74-.77,6.82-1.83,15.39-5.19,24.46-8.75,12.75-5,25.93-10.17,35.23-11.34,13.61-1.72,19.1,5,24.4,11.47,4.94,6.05,9.61,11.77,21.35,12.38a2.5,2.5,0,0,1,2.37,2.5v15.14a2.49,2.49,0,0,1-2.37,2.49c-11.74.62-16.41,6.33-21.35,12.39-5.3,6.48-10.78,13.19-24.4,11.47-9.3-1.18-22.48-6.35-35.23-11.35-9.07-3.56-17.64-6.92-24.46-8.75-7.54-2-10-1.29-10.74-.76.17.92,1.38,3.15,8.13,7.05,6.12,3.53,14.56,7.22,23.49,11.11,12.55,5.48,25.53,11.15,32.93,16.9,10.85,8.41,10,17,9.14,25.35-.78,7.78-1.52,15.13,6.35,23.86a2.5,2.5,0,0,1-.09,3.44l-10.71,10.71a2.51,2.51,0,0,1-3.44.09c-8.73-7.87-16.08-7.13-23.86-6.35-8.32.84-16.94,1.71-25.35-9.14-5.75-7.4-11.42-20.38-16.9-32.93-3.89-8.93-7.58-17.37-11.11-23.49-3.9-6.75-6.13-8-7.05-8.13-.53.77-1.25,3.21.76,10.74,1.83,6.82,5.19,15.39,8.75,24.46,5,12.75,10.17,25.93,11.35,35.24,1.71,13.61-5,19.09-11.47,24.39-6.06,4.94-11.77,9.61-12.39,21.36A2.49,2.49,0,0,1,255.27,397.78Zm-12.84-5H253c1.38-12.26,8.07-17.73,14-22.59,6.17-5.05,11-9,9.68-19.9-1.1-8.68-6.16-21.57-11-34-9-23-14.19-37.29-7.18-41.59a2.77,2.77,0,0,1,.73-.31c8-1.91,14.46,11.86,24.34,34.49,5.35,12.27,10.89,24.95,16.26,31.87,6.71,8.66,13,8,20.9,7.23,7.65-.77,16.25-1.64,25.9,6.06l7.44-7.44c-7.7-9.65-6.83-18.25-6.06-25.9.79-7.92,1.42-14.19-7.23-20.9-6.92-5.37-19.6-10.91-31.87-16.26-22.63-9.88-36.4-16.34-34.49-24.34a3.12,3.12,0,0,1,.3-.73c4.31-7,18.62-1.84,41.6,7.18,12.46,4.89,25.35,9.94,34,11,10.87,1.38,14.85-3.5,19.9-9.67,4.86-6,10.33-12.64,22.59-14V242.43c-12.26-1.37-17.73-8.07-22.59-14-5.05-6.17-9-11-19.9-9.67-8.68,1.1-21.57,6.15-34,11-23,9-37.29,14.18-41.6,7.17a3,3,0,0,1-.3-.72c-1.91-8,11.86-14.46,34.49-24.34,12.27-5.36,24.95-10.9,31.87-16.26,8.65-6.72,8-13,7.23-20.91-.77-7.64-1.64-16.25,6.06-25.89l-7.44-7.45c-9.65,7.71-18.25,6.84-25.9,6.07-7.93-.8-14.19-1.43-20.9,7.23-5.37,6.91-10.91,19.6-16.26,31.87-9.88,22.63-16.35,36.4-24.34,34.48a2.45,2.45,0,0,1-.73-.3c-7-4.3-1.84-18.61,7.18-41.59,4.88-12.47,9.94-25.35,11-34,1.37-10.88-3.51-14.86-9.68-19.9-6-4.86-12.64-10.33-14-22.6H242.43c-1.37,12.27-8.07,17.74-14,22.6-6.17,5-11,9-9.67,19.9,1.1,8.68,6.15,21.56,11,34,9,23,14.18,37.29,7.17,41.59a2.39,2.39,0,0,1-.72.3,6.29,6.29,0,0,1-1.47.18c-7.35,0-13.6-13.43-22.87-34.66-5.36-12.27-10.9-25-16.26-31.87-6.72-8.66-13-8-20.91-7.23-7.64.77-16.25,1.63-25.89-6.07l-7.45,7.45c7.7,9.64,6.84,18.25,6.07,25.89-.8,7.93-1.43,14.19,7.23,20.91,6.91,5.36,19.6,10.9,31.87,16.26,22.62,9.88,36.39,16.34,34.48,24.34a2.39,2.39,0,0,1-.3.72c-4.3,7-18.61,1.84-41.59-7.17-12.47-4.89-25.35-9.94-34-11-10.87-1.37-14.85,3.5-19.89,9.67-4.86,6-10.33,12.65-22.6,14V253c12.27,1.38,17.74,8.07,22.6,14,5,6.17,9,11,19.89,9.67,8.69-1.09,21.57-6.14,34-11,23-9,37.29-14.19,41.59-7.18a2.45,2.45,0,0,1,.3.73c1.91,8-11.86,14.46-34.48,24.34-12.27,5.35-25,10.89-31.87,16.26-8.66,6.71-8,13-7.23,20.9.77,7.65,1.63,16.25-6.07,25.9l7.45,7.44c9.64-7.7,18.25-6.83,25.89-6.06,7.93.79,14.19,1.42,20.91-7.23,5.36-6.92,10.9-19.6,16.26-31.87,9.88-22.63,16.35-36.4,24.34-34.49a2.7,2.7,0,0,1,.72.31c7,4.3,1.84,18.61-7.17,41.59-4.89,12.46-9.94,25.35-11,34-1.37,10.87,3.5,14.85,9.67,19.9C234.36,375.05,241.06,380.52,242.43,392.78Z"/><path d="M247.94,448.21h-.49a200.54,200.54,0,0,1-141.54-58.73A200.5,200.5,0,0,1,61.26,173.89,200.52,200.52,0,0,1,247.46,47.18H248a200.52,200.52,0,0,1,0,401Zm-.24-5h.23A195.5,195.5,0,0,0,443.21,247.7h0A195.53,195.53,0,0,0,247.94,52.18h-.48A195.52,195.52,0,0,0,109.45,386a195.45,195.45,0,0,0,138,57.26Z"/><path d="M449.85,461.05c-4.1,0-7.45-2.74-10.54-5.27-6.65-5.44-14.2-11.62-32.91-.79a2.5,2.5,0,1,1-2.51-4.33c21.71-12.56,31.46-4.57,38.59,1.25,5,4.11,7.28,5.68,11.72,2.29,3.39-4.44,1.82-6.71-2.29-11.72-5.82-7.12-13.81-16.88-1.25-38.59A2.5,2.5,0,0,1,455,406.4c-10.83,18.71-4.65,26.25.79,32.91,4,4.82,8.42,10.28,2.16,18.22a2.65,2.65,0,0,1-.41.41C454.68,460.19,452.14,461.05,449.85,461.05Z"/><path d="M294.88,5H279.49a2.5,2.5,0,0,1,0-5h15.39a2.5,2.5,0,0,1,0,5Z"/><path d="M2.5,466.47A2.5,2.5,0,0,1,0,464V449a2.5,2.5,0,0,1,5,0v15A2.5,2.5,0,0,1,2.5,466.47Z"/><path d="M449,495.4a2.51,2.51,0,0,1-2.5-2.44c-.3-11.42,5-24.33,13.6-32.89s21.48-13.92,32.89-13.59a2.5,2.5,0,1,1-.13,5c-10.11-.25-21.58,4.5-29.22,12.14s-12.41,19.11-12.14,29.22a2.49,2.49,0,0,1-2.43,2.56Z"/><path d="M464,495.4a2.51,2.51,0,0,1-2.5-2.44c-.2-7.74,3.41-16.49,9.21-22.28s14.53-9.43,22.28-9.21a2.5,2.5,0,0,1,2.43,2.57,2.47,2.47,0,0,1-2.56,2.43c-6.43-.17-13.75,2.87-18.62,7.74a26.76,26.76,0,0,0-7.74,18.62,2.49,2.49,0,0,1-2.43,2.56Z"/><path d="M492.33,33.93a32.11,32.11,0,0,1-21.65-9.21c-5.8-5.8-9.41-14.54-9.21-22.29a2.5,2.5,0,0,1,5,.14c-.17,6.43,2.87,13.74,7.74,18.62a26.79,26.79,0,0,0,18.62,7.73,2.5,2.5,0,0,1,.13,5Z"/><path d="M492,48.93c-11.18,0-23.63-5.27-32-13.6-8.56-8.57-13.9-21.48-13.6-32.9a2.5,2.5,0,0,1,5,.14c-.27,10.11,4.5,21.58,12.14,29.22s19.12,12.41,29.22,12.13a2.5,2.5,0,0,1,.13,5Z"/><path d="M215.91,495.4a2.51,2.51,0,0,1-2.5-2.44c-.22-8.44,3.72-18,10-24.31s15.85-10.25,24.25-10c8.45-.19,17.94,3.73,24.24,10S282.21,484.52,282,493a2.5,2.5,0,0,1-5-.13c.19-7.14-3.18-15.24-8.58-20.64s-13.53-8.77-20.65-8.58h-.13c-7.15-.19-15.24,3.17-20.64,8.58s-8.77,13.5-8.58,20.64a2.49,2.49,0,0,1-2.43,2.56Z"/><path d="M329.83,495.4a2.5,2.5,0,0,1-.79-4.88,257.28,257.28,0,0,0,74.58-39.68,2.5,2.5,0,1,1,3.05,4,262.72,262.72,0,0,1-76.05,40.46A2.72,2.72,0,0,1,329.83,495.4Z"/><path d="M31.43,495.4h-.07a2.5,2.5,0,0,1-2.44-2.56c.18-6.44-2.86-13.75-7.74-18.62S9,466.29,2.57,466.47a2.5,2.5,0,1,1-.14-5c7.72-.22,16.49,3.41,22.29,9.21s9.41,14.54,9.2,22.28A2.5,2.5,0,0,1,31.43,495.4Z"/><path d="M46.42,495.4h-.06a2.5,2.5,0,0,1-2.44-2.56c.27-10.11-4.49-21.59-12.13-29.22S12.68,451.22,2.57,451.47H2.5a2.5,2.5,0,0,1-.07-5c11.41-.28,24.33,5,32.9,13.59S49.22,481.54,48.92,493A2.51,2.51,0,0,1,46.42,495.4Z"/><path d="M492.27,282a35,35,0,0,1-23.62-10.05c-6.31-6.31-10.25-15.81-10-24.24-.21-8.43,3.73-17.94,10-24.25s15.9-10.27,24.31-10a2.5,2.5,0,0,1-.13,5c-7.15-.17-15.25,3.18-20.65,8.58s-8.76,13.5-8.57,20.64v.13c-.19,7.14,3.17,15.25,8.57,20.65s13.51,8.75,20.65,8.58a2.5,2.5,0,0,1,.13,5Z"/><path d="M3.37,48.93H2.43A2.5,2.5,0,0,1,0,46.36a2.54,2.54,0,0,1,2.57-2.44c10.1.27,21.58-4.49,29.22-12.13S44.19,12.68,43.92,2.57a2.5,2.5,0,0,1,5-.14c.3,11.42-5,24.33-13.59,32.9C27,43.66,14.55,48.93,3.37,48.93Z"/><path d="M248.32,36.8h-.62c-8.43.21-17.94-3.74-24.25-10s-10.26-15.87-10-24.32a2.5,2.5,0,0,1,5,.14c-.19,7.14,3.18,15.24,8.58,20.64s13.5,8.76,20.64,8.58h.13c7.11.17,15.25-3.18,20.65-8.58S277.18,9.71,277,2.57a2.5,2.5,0,1,1,5-.14c.22,8.45-3.72,18-10.05,24.32A35.06,35.06,0,0,1,248.32,36.8Z"/><path d="M492.89,180.41H480.72a2.5,2.5,0,0,1-2.4-1.79C467.41,141.42,446,105.5,417.93,77.47S354,28,316.78,17.08a2.5,2.5,0,0,1-1.8-2.4V2.5a2.5,2.5,0,0,1,5,0V12.82c37.35,11.3,73.32,33,101.48,61.11s49.82,64.14,61.12,101.48h10.31a2.5,2.5,0,0,1,0,5Z"/><path d="M492.89,297.38a2.5,2.5,0,0,1-2.5-2.5V279.49a2.5,2.5,0,0,1,5,0v15.39A2.49,2.49,0,0,1,492.89,297.38Z"/><path d="M492.89,168.07a2.5,2.5,0,0,1-2.37-1.71,257.28,257.28,0,0,0-39.68-74.58,2.5,2.5,0,0,1,4-3,262.59,262.59,0,0,1,40.46,76.05,2.5,2.5,0,0,1-2.38,3.29Z"/><path d="M294.88,495.4h0a2.52,2.52,0,0,1-2.46-2.55c.22-12.36-6-26-15.55-33.84a2.5,2.5,0,0,1,1.23-4.4A209.07,209.07,0,0,0,454.61,278.06a2.5,2.5,0,0,1,4.4-1.23c7.75,9.36,21,15.56,33.21,15.56h.68a2.5,2.5,0,0,1,0,5h-.74a50.09,50.09,0,0,1-33.44-13.53,212.79,212.79,0,0,1-18.92,58.36,214.21,214.21,0,0,1-97.62,97.62,212.9,212.9,0,0,1-58.36,18.92,50,50,0,0,1,13.52,34.18A2.51,2.51,0,0,1,294.88,495.4Z"/><path d="M90.25,45.07a2.46,2.46,0,0,1-2-1,2.49,2.49,0,0,1,.46-3.5A262.59,262.59,0,0,1,164.78.13a2.5,2.5,0,0,1,1.58,4.74A257.76,257.76,0,0,0,91.78,44.55,2.52,2.52,0,0,1,90.25,45.07Z"/><path d="M2.5,168.07a2.42,2.42,0,0,1-.79-.13,2.5,2.5,0,0,1-1.58-3.16,262.59,262.59,0,0,1,40.46-76,2.5,2.5,0,1,1,4,3A257.76,257.76,0,0,0,4.87,166.36,2.49,2.49,0,0,1,2.5,168.07Z"/><path d="M452.83,92.75a2.5,2.5,0,0,1-2.17-1.25C438.1,69.8,446.09,60,451.91,52.92c4.11-5,5.67-7.28,2.29-11.72-4.44-3.39-6.71-1.82-11.72,2.28-7.12,5.83-16.88,13.81-38.59,1.25a2.5,2.5,0,1,1,2.51-4.32c18.71,10.82,26.26,4.65,32.91-.8,4.82-3.94,10.28-8.41,18.22-2.16a2.33,2.33,0,0,1,.41.42c6.26,7.93,1.79,13.4-2.16,18.21C450.34,62.74,444.16,70.29,455,89a2.51,2.51,0,0,1-.91,3.42A2.6,2.6,0,0,1,452.83,92.75Z"/><path d="M492.89,332.33a2.5,2.5,0,0,1-2.5-2.5V317.48a2.5,2.5,0,0,1,5,0v12.35A2.49,2.49,0,0,1,492.89,332.33Z"/><path d="M492.89,466.47a2.5,2.5,0,0,1-2.5-2.5V449a2.5,2.5,0,0,1,5,0v15A2.49,2.49,0,0,1,492.89,466.47Z"/><path d="M45.55,461.05c-2.3,0-4.83-.86-7.68-3.11a2.33,2.33,0,0,1-.42-.41c-6.25-7.94-1.78-13.4,2.16-18.22,5.45-6.66,11.62-14.2.8-32.91a2.5,2.5,0,1,1,4.32-2.51c12.56,21.71,4.58,31.47-1.25,38.59-4.1,5-5.67,7.28-2.28,11.72,4.44,3.39,6.7,1.82,11.72-2.29,7.12-5.82,16.87-13.81,38.58-1.25A2.5,2.5,0,0,1,89,455c-18.72-10.83-26.26-4.65-32.92.79C53,458.31,49.65,461.05,45.55,461.05Z"/><path d="M452.82,407.65a2.48,2.48,0,0,1-1.52-.52,2.51,2.51,0,0,1-.46-3.51A257.28,257.28,0,0,0,490.52,329a2.5,2.5,0,0,1,4.75,1.58,262.72,262.72,0,0,1-40.46,76.05A2.52,2.52,0,0,1,452.82,407.65Z"/><path d="M464,495.4H449a2.5,2.5,0,0,1,0-5h15a2.5,2.5,0,0,1,0,5Z"/><path d="M46.42,5h-15a2.5,2.5,0,0,1,0-5h15a2.5,2.5,0,0,1,0,5Z"/><path d="M177.91,495.4a2.5,2.5,0,0,1-2.5-2.5V482.58c-37.34-11.3-73.32-32.95-101.48-61.12S24.12,357.33,12.81,320H2.5a2.5,2.5,0,0,1,0-5H14.68a2.51,2.51,0,0,1,2.4,1.8C28,354,49.44,389.9,77.47,417.93s63.95,49.48,101.15,60.39a2.5,2.5,0,0,1,1.79,2.4V492.9A2.49,2.49,0,0,1,177.91,495.4Z"/><path d="M3.12,282H2.43A2.51,2.51,0,0,1,0,279.42,2.54,2.54,0,0,1,2.57,277c7.13.17,15.24-3.18,20.64-8.58S32,254.9,31.79,247.76v-.13c.19-7.14-3.18-15.24-8.58-20.64s-13.5-8.75-20.64-8.58a2.5,2.5,0,1,1-.14-5c8.44-.24,18,3.72,24.32,10s10.24,15.82,10,24.25c.2,8.43-3.74,17.93-10,24.24A35.06,35.06,0,0,1,3.12,282Z"/><path d="M492.89,48.92a2.5,2.5,0,0,1-2.5-2.5v-15a2.5,2.5,0,1,1,5,0v15A2.49,2.49,0,0,1,492.89,48.92Z"/><path d="M2.5,48.92A2.5,2.5,0,0,1,0,46.42v-15a2.5,2.5,0,0,1,5,0v15A2.5,2.5,0,0,1,2.5,48.92Z"/><path d="M405.14,45.07a2.48,2.48,0,0,1-1.52-.52A257.76,257.76,0,0,0,329,4.87,2.5,2.5,0,0,1,330.62.13a262.72,262.72,0,0,1,76.05,40.46,2.5,2.5,0,0,1-1.53,4.48Z"/><path d="M2.5,332.33a2.5,2.5,0,0,1-2.5-2.5V317.48a2.5,2.5,0,0,1,5,0v12.35A2.5,2.5,0,0,1,2.5,332.33Z"/><path d="M42.57,92.75a2.54,2.54,0,0,1-1.25-.33A2.5,2.5,0,0,1,40.41,89c10.82-18.71,4.65-26.26-.8-32.92-3.94-4.81-8.41-10.28-2.16-18.21a2.09,2.09,0,0,1,.42-.42c7.93-6.25,13.4-1.78,18.21,2.16,6.66,5.45,14.2,11.62,32.92.8a2.5,2.5,0,0,1,2.5,4.32C69.8,57.29,60,49.31,52.92,43.48c-5-4.1-7.28-5.67-11.72-2.28-3.39,4.44-1.82,6.7,2.28,11.72C49.31,60,57.29,69.8,44.73,91.5A2.49,2.49,0,0,1,42.57,92.75Z"/><path d="M492.89,180.41a2.49,2.49,0,0,1-2.5-2.5V165.57a2.5,2.5,0,0,1,5,0v12.34A2.49,2.49,0,0,1,492.89,180.41Z"/><path d="M3.07,33.93H2.43A2.49,2.49,0,0,1,0,31.36a2.54,2.54,0,0,1,2.57-2.44c6.43.18,13.74-2.86,18.61-7.73S29.1,9,28.92,2.57a2.5,2.5,0,0,1,5-.14c.21,7.75-3.4,16.49-9.2,22.29A32.12,32.12,0,0,1,3.07,33.93Z"/><path d="M492.89,495.39H2.5a2.5,2.5,0,0,1-2.5-2.5V2.5A2.5,2.5,0,0,1,2.5,0H492.89a2.5,2.5,0,0,1,2.5,2.5V492.89A2.5,2.5,0,0,1,492.89,495.39ZM5,490.39H490.39V5H5Z"/></svg>