<svg xmlns="http://www.w3.org/2000/svg" viewBox="0 0 368.18 494.61"><path d="M81.36,158c-1.82-8,2.8-65.28,2.42-72.41C83,67.72,69,36.46,69,36.46l-5.38-1.21S77.51,68.4,78.28,85.7c.28,7.07-4.4,64.34-2.58,72.32,7.42,32.49,23.63,43.68,23.63,43.68v-6.52C95.05,191.34,86.64,181.22,81.36,158Z" transform="translate(-63.61)"/><path d="M314.37,446.6c-3.52-7.35-5.92-18.28-6.49-26.42h-5.5c.55,7.92,2.85,18.65,6.22,25.83a37.86,37.86,0,0,0,27,21.12H165.28s16.65,0,26.76-20.59c3.49-7.34,5.85-18.25,6.47-26.36H193c-.48,8-2.77,18.74-6.25,25.92-5.33,10.67-27,21-27,21v27.48H341.14V467.13S319.65,457.09,314.37,446.6Zm21.27,42.51H165.28V472.63H335.64Z" transform="translate(-63.61)"/><path d="M298.19,22h0c-4.44.74-11.39,3.93-17.07,15.63-3.36,7.17-4.79,9.78-5.34,17.66,1.82,0,3.64,0,5.46,0,.58-8.1,2.14-10.92,5.66-18.26,5.27-10.48,21.26-15,21.26-15V0H187.26V22ZM192.75,5.5H302.67v11H192.75Z" transform="translate(-63.61)"/><path d="M431.79,35.48l-5.39,1s-13.93,31.28-14.75,49.13c-.39,7.13,4.23,64.43,2.41,72.41-5.28,23.24-13.69,33.36-18,37.2v-8.33h5.5V131.9h-5.5V115.41H390.6v-4.68c0-11.86-3.17-21.17-8.8-28.52,1.6-6,6.65-21.29,18.14-29.34,9.38-5.95,17.8-9.67,28.72-11.74l-1.19-4.91A94.34,94.34,0,0,0,395.87,49c-11.6,8.12-16.17,23.81-17.45,29.24C360,59.61,322.86,55.88,281.27,55.14c0,0-24.51-.18-34.16-.18-9.26,0-18.47,0-27.5.19,0,0-5.43.14-5.43.12-41.61,1-78.6,5.46-97,23.72h0l-3.39,3.8h0c-5.73,7.27-9,16.4-9,27.94l.08,4.68H99.33V131.9h-5.5v54.95h5.5v22h5.49v32.28c0,51.86,24.25,117.06,73.1,150.09,1.28,3.33,2.52,6.67,3.84,10v11l5.5,4.05V396.94a123.89,123.89,0,0,0,61.11,15.58,120.47,120.47,0,0,0,37.28-5.84s.57-.12.58-.19a111.86,111.86,0,0,0,27.43-13.19h0v20.93l5.49-2.06V395.69c1-2.7,2-5.42,3-8.13,44.95-34,68.62-96.43,68.62-146.44l-.14-32.28h5.47v-7s16.22-11.29,23.64-43.78c1.81-8-2.86-65.25-2.59-72.32C417.91,68.4,431.79,35.48,431.79,35.48Zm-321,75.25c0-51.6,74.91-50.11,136.3-50.11s138-5.2,138,50.11v4.34H110.81Zm274,130.39c0,47.08-21.58,100.55-58,133.71q9.76-28,17.29-56.77a629.74,629.74,0,0,0,13.57-76.25h-5.49A626,626,0,0,1,338.5,318.2q-8.33,32.07-19.61,63.26a122.53,122.53,0,0,1-30.52,17.69,523,523,0,0,0,18.14-85.86,501.72,501.72,0,0,0,1.65-71.48h-5.49a499.82,499.82,0,0,1-1.6,71,526.81,526.81,0,0,1-18.85,88.53,107.59,107.59,0,0,1-29,5.31V241.81h-5.5V407.08l5.43-.4c-1.59.07-3.16.16-4.77.16a114.31,114.31,0,0,1-29.18-3.77,523.21,523.21,0,0,1-19.29-89.86,500.57,500.57,0,0,1-1.65-71.4h-5.5A500.29,500.29,0,0,0,194.4,313a528.44,528.44,0,0,0,18.78,88.32,120,120,0,0,1-32.12-16.15q-12.33-32.64-22-66.2a314.85,314.85,0,0,1-10.28-77.14h-5.5a312.25,312.25,0,0,0,10.23,76.94q8.8,30.67,19.88,60.62c-40.14-32.75-63.08-89.23-63.08-138.25V209.18H384.77ZM104.82,120.9H390.6v11H104.82Zm-5.49,16.49H396.09v44H99.33Zm5.49,66V186.85H390.6v16.49Z" transform="translate(-63.61)"/><path d="M181.76,412.17v5.5c37.64,10.86,38.19,11,66.06,11,29.68,0,71.33-11,71.33-11v-5.5s-41.93,11-71.77,11C219.57,423.17,181.76,412.17,181.76,412.17Z" transform="translate(-63.61)"/><path d="M117.31,79.65c-1-4.56-5.56-22.1-17.76-30.63A94.34,94.34,0,0,0,68,36.22L66.16,41A80.68,80.68,0,0,1,95.48,52.87c11.89,8.32,17,24.74,18.37,30.22A38.75,38.75,0,0,1,117.31,79.65Z" transform="translate(-63.61)"/><path d="M214,37.08c-4.86-9.91-11.23-13.75-16.54-15.1H187.26s16.16,4.87,21.49,15.54c3.46,7.16,5,9.9,5.44,17.82,1.8-.05,3.6,0,5.42-.07C219,47.21,217.5,44.4,214,37.08Z" transform="translate(-63.61)"/></svg>