<svg xmlns="http://www.w3.org/2000/svg" viewBox="0 0 495.39 495.39"><path d="M82.57,379.8h5.5v27.52h-5.5Zm110.08,0h5.51v27.52h-5.51Zm110.09,0h5.51v27.52h-5.51Zm110.09,0h5.5v27.52h-5.5Zm0-5.5v5.5H385.31v-5.5Zm0-88.07v5.5H385.31v-5.5Zm0-93.58v5.51H385.31v-5.51ZM115.59,374.3v5.5H88.07v-5.5Zm0-88.07v5.5H88.07v-5.5Zm0-93.58v5.51H88.07v-5.51Zm79.82-74.31H189.9v-33h5.51Zm110.08,0H300v-33h5.5ZM121.1,374.3h-5.51V115.59h5.51Zm264.21,0H379.8V115.59h5.51ZM121.1,121.1v-5.51H379.8v5.51Zm16.51,253.2h-5.5V137.61h5.5ZM247.7,137.61h5.5V374.3h-5.5Zm-115.59,0v-5.5H363.29v5.5Zm231.18-5.5h5.5V374.3h-5.5ZM88.07,379.8v-5.5H412.83v5.5Zm-5.5,33v-5.51H418.33v5.51Zm5.5-5.51h-5.5V82.57h5.5Zm330.26,0h-5.5V82.57h5.5ZM383.66,121.1l-3.86-3.86L415,82l3.85,3.85Zm-295.59-33v-5.5H418.33v5.5ZM5.5,181.64v-5.5H82.57v5.5Zm0,44v-5.5H82.57v5.5Zm0,49.54v-5.5H82.57v5.5Zm0,44v-5.5H82.57v5.5Zm0,49.54v-5.5H82.57v5.5Zm0,44v-5.51H82.57v5.51Zm0,44v-5.5H489.89v5.5Zm0-324.75V126.6H82.57v5.51Zm0-44v-5.5H82.57v5.5Zm412.83,93.57v-5.5h77.06v5.5Zm0,44v-5.5h77.06v5.5Zm0,49.54v-5.5h77.06v5.5Zm0,44v-5.5h77.06v5.5Zm0,49.54v-5.5h77.06v5.5Zm0,44v-5.51h77.06v5.51Zm0-280.72V126.6h77.06v5.51Zm0-44v-5.5h77.06v5.5ZM5.5,44V38.53H495.39V44ZM88.07,82.57h-5.5V0h5.5Zm82.57,0h-5.51V0h5.51Zm82.56,0h-5.5V0h5.5Zm82.57,0h-5.51V0h5.51Zm82.56,0h-5.5V0h5.5ZM88.07,489.89h-5.5V412.83h5.5Zm82.57,0h-5.51V412.83h5.51Zm82.56,0h-5.5V412.83h5.5Zm82.57,0h-5.51V412.83h5.51Zm82.56,0h-5.5V412.83h5.5ZM0,0H5.5V495.39H0ZM489.89,0h5.5V495.39h-5.5Zm5.5,0V5.5H0V0Zm0,489.89v5.5H0v-5.5ZM121.65,117.24l-3.86,3.86L82.57,86.42l3.85-3.85Z"/></svg>