<?xml version="1.0" encoding="utf-8"?>
<svg version="1.1" xmlns="http://www.w3.org/2000/svg" xmlns:xlink="http://www.w3.org/1999/xlink" x="0px" y="0px"
	 viewBox="0 0 495.39 495.4" xml:space="preserve">
	<g>
		<path d="M488.89,50.65H6.5c-0.66,0-1.29-0.26-1.76-0.73c-0.46-0.47-0.72-1.1-0.72-1.76C4.08,41.88,5.5,29.66,14.4,18.3
			C25.09,4.65,39.69,1.04,45.48,0.12c0.13-0.02,0.26-0.03,0.39-0.03h403.66c0.13,0,0.26,0.01,0.39,0.03
			c5.79,0.92,20.4,4.53,31.08,18.18c8.9,11.37,10.32,23.59,10.37,29.86c0.01,0.66-0.25,1.29-0.72,1.76
			C490.18,50.39,489.55,50.65,488.89,50.65z M9.07,45.7h477.25c-0.4-6.03-2.28-15.49-9.23-24.36
			c-9.49-12.11-22.44-15.43-27.77-16.31H46.07c-5.33,0.88-18.28,4.2-27.77,16.31C11.35,30.21,9.48,39.67,9.07,45.7z"/>
		<path d="M488.89,464.31H6.5c-0.66,0-1.29-0.26-1.76-0.73c-0.46-0.47-0.72-1.1-0.72-1.76c0.05-6.27,1.47-18.5,10.37-29.86
			c10.68-13.64,25.29-17.26,31.08-18.18c0.13-0.02,0.26-0.03,0.39-0.03h403.66c0.13,0,0.26,0.01,0.39,0.03
			c5.79,0.92,20.4,4.53,31.08,18.18c8.9,11.36,10.32,23.59,10.37,29.86c0.01,0.66-0.25,1.3-0.72,1.76
			C490.18,464.04,489.55,464.31,488.89,464.31z M9.07,459.36h477.25c-0.4-6.03-2.28-15.49-9.23-24.36
			c-9.49-12.11-22.44-15.43-27.77-16.31H46.07c-5.33,0.88-18.28,4.2-27.77,16.31C11.35,443.87,9.48,453.33,9.07,459.36z"/>
		<path d="M131.02,495.31H30.32c-1.37,0-2.47-1.11-2.47-2.47v-31c0-1.37,1.11-2.47,2.47-2.47s2.47,1.11,2.47,2.47v28.52h95.75
			v-28.52c0-1.37,1.11-2.47,2.47-2.47c1.37,0,2.47,1.11,2.47,2.47v31C133.49,494.2,132.38,495.31,131.02,495.31z"/>
		<path d="M465.31,495.31h-100.7c-1.37,0-2.47-1.11-2.47-2.47v-31c0-1.37,1.11-2.47,2.47-2.47s2.47,1.11,2.47,2.47v28.52h95.75
			v-28.52c0-1.37,1.11-2.47,2.47-2.47s2.47,1.11,2.47,2.47v31C467.79,494.2,466.68,495.31,465.31,495.31z"/>
		<path d="M38.99,420.32c-1.37,0-2.47-1.11-2.47-2.47V48.18c0-1.37,1.11-2.47,2.47-2.47c1.37,0,2.47,1.11,2.47,2.47v369.67
			C41.47,419.21,40.36,420.32,38.99,420.32z"/>
		<path d="M456.4,420.32c-1.37,0-2.47-1.11-2.47-2.47V48.18c0-1.37,1.11-2.47,2.47-2.47c1.37,0,2.47,1.11,2.47,2.47v369.67
			C458.87,419.21,457.76,420.32,456.4,420.32z"/>
		<path d="M456.4,96.41H38.99c-1.37,0-2.47-1.11-2.47-2.47c0-1.37,1.11-2.47,2.47-2.47h417.4c1.37,0,2.47,1.11,2.47,2.47
			C458.87,95.31,457.76,96.41,456.4,96.41z"/>
		<path d="M456.4,383.85H38.99c-1.37,0-2.47-1.11-2.47-2.47s1.11-2.47,2.47-2.47h417.4c1.37,0,2.47,1.11,2.47,2.47
			S457.76,383.85,456.4,383.85z"/>
		<path d="M90.84,418.69c-1.37,0-2.47-1.11-2.47-2.47v-34.84c0-1.37,1.11-2.47,2.47-2.47s2.47,1.11,2.47,2.47v34.84
			C93.31,417.59,92.2,418.69,90.84,418.69z"/>
		<path d="M178.94,418.69c-1.37,0-2.47-1.11-2.47-2.47v-34.84c0-1.37,1.11-2.47,2.47-2.47c1.37,0,2.47,1.11,2.47,2.47v34.84
			C181.42,417.59,180.31,418.69,178.94,418.69z"/>
		<path d="M328.91,418.69c-1.37,0-2.47-1.11-2.47-2.47v-34.84c0-1.37,1.11-2.47,2.47-2.47s2.47,1.11,2.47,2.47v34.84
			C331.38,417.59,330.27,418.69,328.91,418.69z"/>
		<path d="M427.01,418.69c-1.37,0-2.47-1.11-2.47-2.47v-34.84c0-1.37,1.11-2.47,2.47-2.47c1.37,0,2.47,1.11,2.47,2.47v34.84
			C429.48,417.59,428.38,418.69,427.01,418.69z"/>
		<path d="M136.12,96.41c-1.37,0-2.47-1.11-2.47-2.47V48.18c0-1.37,1.11-2.47,2.47-2.47s2.47,1.11,2.47,2.47v45.76
			C138.6,95.31,137.49,96.41,136.12,96.41z"/>
		<path d="M262.34,96.41c-1.37,0-2.47-1.11-2.47-2.47V48.18c0-1.37,1.11-2.47,2.47-2.47s2.47,1.11,2.47,2.47v45.76
			C264.82,95.31,263.71,96.41,262.34,96.41z"/>
		<path d="M371.7,96.41c-1.37,0-2.47-1.11-2.47-2.47V48.18c0-1.37,1.11-2.47,2.47-2.47c1.37,0,2.47,1.11,2.47,2.47v45.76
			C374.17,95.31,373.06,96.41,371.7,96.41z"/>
		<path d="M371.05,358.58h-246.7c-1.37,0-2.47-1.11-2.47-2.47V221.73c0-0.07,0-0.13,0.01-0.2c2.53-31.5,16.77-60.79,40.11-82.49
			c23.31-21.68,53.48-33.72,84.96-33.9c65.71-0.38,121.29,50.73,126.57,116.39c0,0.07,0.01,0.13,0.01,0.2V356.1
			C373.52,357.47,372.41,358.58,371.05,358.58z M126.82,353.63h241.75v-131.8c-5.1-62.8-58.11-111.74-120.88-111.74
			c-0.24,0-0.48,0-0.72,0c-62.34,0.37-115.09,49.45-120.15,111.74V353.63z"/>
		<path d="M339.2,326.5H156.19c-1.37,0-2.47-1.11-2.47-2.47v-99.68c0-0.07,0-0.13,0.01-0.2c3.89-48.46,44.92-86.64,93.41-86.93
			c0.19,0,0.37,0,0.56,0c48.83,0,90.05,38.08,93.98,86.93c0,0.07,0.01,0.13,0.01,0.2v99.68C341.68,325.4,340.57,326.5,339.2,326.5z
			 M158.67,321.55h178.06v-97.11c-3.77-46.24-42.81-82.28-89.04-82.28c-0.18,0-0.35,0-0.53,0c-45.91,0.27-84.76,36.41-88.5,82.28
			V321.55z"/>
		<path d="M207.43,326.5c-0.79,0-1.56-0.37-2.04-1.07c-4.31-6.25-7.49-12.98-9.45-20.01c-10.17-36.36,15.92-71.23,18.93-75.09
			c0.84-1.08,2.4-1.27,3.47-0.43c1.08,0.84,1.27,2.4,0.43,3.47c-2.85,3.65-27.58,36.69-18.07,70.71c1.82,6.5,4.77,12.74,8.76,18.53
			c0.78,1.12,0.49,2.67-0.63,3.44C208.41,326.36,207.92,326.5,207.43,326.5z"/>
		<path d="M236.63,266.61c-0.28,0-0.56-0.05-0.84-0.15c-7.61-2.75-15.53-7.65-21.38-34.07c-0.3-1.33,0.55-2.65,1.88-2.95
			c1.33-0.29,2.66,0.55,2.95,1.88c5.31,23.99,11.65,28.11,18.23,30.49c1.28,0.46,1.95,1.88,1.49,3.17
			C238.59,265.99,237.64,266.61,236.63,266.61z"/>
		<path d="M236.63,266.61c-1.07,0-2.05-0.7-2.37-1.77c-0.39-1.31,0.36-2.69,1.67-3.07c1.27-0.38,2.43-0.93,3.45-1.64
			c8.37-5.85,5.98-21.55,5.87-22.21c-0.21-1.35,0.71-2.62,2.06-2.83c1.35-0.21,2.62,0.71,2.83,2.06c0.31,1.98,2.77,19.57-7.92,27.05
			c-1.46,1.02-3.1,1.8-4.89,2.33C237.1,266.58,236.86,266.61,236.63,266.61z"/>
		<path d="M290.66,326.5c-0.51,0-1.02-0.15-1.46-0.48c-1.1-0.81-1.35-2.35-0.54-3.46c3.17-4.35,5.74-9.01,7.64-13.85
			c17.65-45.05-25.33-98.13-34.13-108.32c-0.89-1.03-0.78-2.6,0.26-3.49c1.03-0.89,2.6-0.78,3.49,0.26
			c4.97,5.75,17.56,21.25,27.19,40.99c13.31,27.27,15.94,51.62,7.8,72.37c-2.05,5.24-4.83,10.27-8.25,14.96
			C292.17,326.15,291.42,326.5,290.66,326.5z"/>
		<path d="M262.45,268c-0.23,0-0.46-0.03-0.69-0.1c-1.31-0.38-2.07-1.75-1.69-3.06c2.71-9.4,4.35-19.1,4.87-28.84
			c0.66-12.28-0.46-24.61-3.31-36.64c-0.32-1.33,0.51-2.66,1.84-2.98c1.33-0.32,2.66,0.51,2.98,1.84
			c2.96,12.49,4.12,25.29,3.44,38.05c-0.54,10.11-2.24,20.19-5.06,29.95C264.52,267.3,263.53,268,262.45,268z"/>
		<path d="M262.45,268c-1.3,0-2.4-1.02-2.47-2.34c-0.29-5.24-1.77-10.45-4.27-15.04c-2.34-4.3-5.63-8.15-9.52-11.14
			c-1.08-0.83-1.29-2.39-0.45-3.47c0.83-1.08,2.39-1.29,3.47-0.45c4.43,3.41,8.18,7.8,10.85,12.69c2.85,5.24,4.54,11.16,4.87,17.14
			c0.08,1.36-0.97,2.53-2.33,2.61C262.54,268,262.5,268,262.45,268z"/>
		<path d="M270.73,326.5c-0.2,0-0.4-0.02-0.59-0.07c-1.33-0.33-2.14-1.67-1.81-3c1.56-6.32,1.65-12.97,0.24-19.22
			c-2.54-11.33-9.3-18.77-13.1-22.19c-1.02-0.91-1.1-2.48-0.18-3.49c0.91-1.02,2.48-1.1,3.49-0.18
			c4.24,3.82,11.78,12.11,14.62,24.79c1.57,6.99,1.47,14.42-0.27,21.49C272.85,325.75,271.84,326.5,270.73,326.5z"/>
		<path d="M229.66,326.5c-0.89,0-1.75-0.48-2.19-1.32c-1.36-2.57-5.47-11.74-1.52-21.65c1.5-3.77,4.02-7.17,7.27-9.85
			c1.06-0.87,2.61-0.72,3.48,0.34c0.87,1.06,0.72,2.61-0.34,3.48c-2.61,2.15-4.62,4.87-5.82,7.86c-3.17,7.94,0.2,15.41,1.3,17.52
			c0.64,1.21,0.17,2.71-1.04,3.34C230.44,326.41,230.05,326.5,229.66,326.5z"/>
		<path d="M239.93,303.58c-0.66,0-1.32-0.27-1.81-0.79l-5.13-5.52c-0.93-1-0.87-2.57,0.13-3.5c1-0.93,2.57-0.87,3.5,0.13l5.13,5.52
			c0.93,1,0.87,2.57-0.13,3.5C241.14,303.36,240.53,303.58,239.93,303.58z"/>
		<path d="M239.93,303.58c-0.55,0-1.11-0.18-1.57-0.56c-1.06-0.87-1.21-2.43-0.34-3.48l17.2-20.92c0.87-1.05,2.43-1.21,3.48-0.34
			c1.06,0.87,1.21,2.43,0.34,3.48l-17.2,20.92C241.35,303.27,240.64,303.58,239.93,303.58z"/>
		<path d="M124.35,326.5H38.99c-1.37,0-2.47-1.11-2.47-2.47c0-1.37,1.11-2.47,2.47-2.47h85.35c1.37,0,2.47,1.11,2.47,2.47
			C126.82,325.4,125.71,326.5,124.35,326.5z"/>
		<path d="M456.4,326.5h-84.7c-1.37,0-2.47-1.11-2.47-2.47c0-1.37,1.11-2.47,2.47-2.47h84.7c1.37,0,2.47,1.11,2.47,2.47
			C458.87,325.4,457.76,326.5,456.4,326.5z"/>
		<path d="M124.35,268.39H38.99c-1.37,0-2.47-1.11-2.47-2.47c0-1.37,1.11-2.47,2.47-2.47h85.35c1.37,0,2.47,1.11,2.47,2.47
			C126.82,267.28,125.71,268.39,124.35,268.39z"/>
		<path d="M456.4,268.39h-84.7c-1.37,0-2.47-1.11-2.47-2.47c0-1.37,1.11-2.47,2.47-2.47h84.7c1.37,0,2.47,1.11,2.47,2.47
			C458.87,267.28,457.76,268.39,456.4,268.39z"/>
		<path d="M126.03,211.53H38.99c-1.37,0-2.47-1.11-2.47-2.47c0-1.37,1.11-2.47,2.47-2.47h87.04c1.37,0,2.47,1.11,2.47,2.47
			C128.5,210.42,127.4,211.53,126.03,211.53z"/>
		<path d="M456.4,211.53h-87.03c-1.37,0-2.47-1.11-2.47-2.47c0-1.37,1.11-2.47,2.47-2.47h87.03c1.37,0,2.47,1.11,2.47,2.47
			C458.87,210.42,457.76,211.53,456.4,211.53z"/>
		<path d="M153.44,154.04H38.99c-1.37,0-2.47-1.11-2.47-2.47s1.11-2.47,2.47-2.47h114.44c1.37,0,2.47,1.11,2.47,2.47
			S154.8,154.04,153.44,154.04z"/>
		<path d="M456.4,154.04H341.95c-1.37,0-2.47-1.11-2.47-2.47s1.11-2.47,2.47-2.47H456.4c1.37,0,2.47,1.11,2.47,2.47
			S457.76,154.04,456.4,154.04z"/>
		<path d="M60.15,383.85c-1.37,0-2.47-1.11-2.47-2.47v-57.35c0-1.37,1.11-2.47,2.47-2.47c1.37,0,2.47,1.11,2.47,2.47v57.35
			C62.62,382.74,61.51,383.85,60.15,383.85z"/>
		<path d="M90.84,326.5c-1.37,0-2.47-1.11-2.47-2.47v-58.11c0-1.37,1.11-2.47,2.47-2.47s2.47,1.11,2.47,2.47v58.11
			C93.31,325.4,92.2,326.5,90.84,326.5z"/>
		<path d="M68.19,268.39c-1.37,0-2.47-1.11-2.47-2.47v-56.86c0-1.37,1.11-2.47,2.47-2.47s2.47,1.11,2.47,2.47v56.86
			C70.67,267.28,69.56,268.39,68.19,268.39z"/>
		<path d="M90.84,211.53c-1.37,0-2.47-1.11-2.47-2.47v-57.49c0-1.37,1.11-2.47,2.47-2.47s2.47,1.11,2.47,2.47v57.49
			C93.31,210.42,92.2,211.53,90.84,211.53z"/>
		<path d="M118.25,154.04c-1.37,0-2.47-1.11-2.47-2.47V93.94c0-1.37,1.11-2.47,2.47-2.47s2.47,1.11,2.47,2.47v57.63
			C120.72,152.93,119.61,154.04,118.25,154.04z"/>
		<path d="M328.91,140.81c-1.37,0-2.47-1.11-2.47-2.47V93.94c0-1.37,1.11-2.47,2.47-2.47s2.47,1.11,2.47,2.47v44.39
			C331.38,139.7,330.27,140.81,328.91,140.81z"/>
		<path d="M412.88,154.04c-1.37,0-2.47-1.11-2.47-2.47V93.94c0-1.37,1.11-2.47,2.47-2.47c1.37,0,2.47,1.11,2.47,2.47v57.63
			C415.36,152.93,414.25,154.04,412.88,154.04z"/>
		<path d="M386.84,211.53c-1.37,0-2.47-1.11-2.47-2.47v-57.49c0-1.37,1.11-2.47,2.47-2.47c1.37,0,2.47,1.11,2.47,2.47v57.49
			C389.32,210.42,388.21,211.53,386.84,211.53z"/>
		<path d="M427.01,268c-1.37,0-2.47-1.11-2.47-2.47v-56.47c0-1.37,1.11-2.47,2.47-2.47c1.37,0,2.47,1.11,2.47,2.47v56.47
			C429.48,266.89,428.38,268,427.01,268z"/>
		<path d="M403.83,326.5c-1.37,0-2.47-1.11-2.47-2.47v-58.11c0-1.37,1.11-2.47,2.47-2.47s2.47,1.11,2.47,2.47v58.11
			C406.3,325.4,405.19,326.5,403.83,326.5z"/>
	</g>
</svg>
